<?xml version="1.0" encoding="UTF-8" standalone="no"?>
<svg
   width="16"
   height="16"
   fill="currentColor"
   class="bi bi-grid-3x2-gap"
   viewBox="0 0 16 16"
   version="1.1"
   id="svg1"
   sodipodi:docname="grid-2x2-gap.svg"
   inkscape:version="1.3.2 (091e20ef0f, 2023-11-25, custom)"
   xmlns:inkscape="http://www.inkscape.org/namespaces/inkscape"
   xmlns:sodipodi="http://sodipodi.sourceforge.net/DTD/sodipodi-0.dtd"
   xmlns="http://www.w3.org/2000/svg"
   xmlns:svg="http://www.w3.org/2000/svg">
  <defs
     id="defs1" />
  <sodipodi:namedview
     id="namedview1"
     pagecolor="#ffffff"
     bordercolor="#000000"
     borderopacity="0.25"
     inkscape:showpageshadow="2"
     inkscape:pageopacity="0.0"
     inkscape:pagecheckerboard="0"
     inkscape:deskcolor="#d1d1d1"
     inkscape:zoom="25.28125"
     inkscape:cx="5.7948084"
     inkscape:cy="8.0098888"
     inkscape:window-width="1920"
     inkscape:window-height="1020"
     inkscape:window-x="0"
     inkscape:window-y="32"
     inkscape:window-maximized="1"
     inkscape:current-layer="svg1" />
  <path
     d="M 4.2645814,8.7062567 H 6.7937439 V 11.23542 H 4.2645814 Z M 13.11665,7.4416754 h -2.529162 c -0.6984095,0 -1.2645815,0.5661723 -1.2645815,1.2645813 V 11.23542 c 0,0.698408 0.566172,1.264581 1.2645815,1.264581 h 2.529162 c 0.69841,0 1.264582,-0.566173 1.264582,-1.264581 V 8.7062567 c 0,-0.698409 -0.566172,-1.2645812 -1.264582,-1.2645813 m -6.3229061,0 H 4.2645814 c -0.6984093,0 -1.2645813,0.5661723 -1.2645813,1.2645813 V 11.23542 c 0,0.698408 0.566172,1.264581 1.2645813,1.264581 h 2.5291625 c 0.6984094,0 1.2645813,-0.566173 1.2645813,-1.264581 V 8.7062567 c 0,-0.698409 -0.5661719,-1.2645813 -1.2645813,-1.2645813 M 13.11665,1.118769 h -2.529162 c -0.6984095,0 -1.2645815,0.5661723 -1.2645815,1.2645813 v 2.5291625 c 0,0.6984089 0.566172,1.2645813 1.2645815,1.2645813 h 2.529162 c 0.69841,-10e-8 1.264582,-0.5661724 1.264582,-1.2645813 V 2.3833503 c 0,-0.698409 -0.566172,-1.2645812 -1.264582,-1.2645813 m -6.3229061,0 H 4.2645814 c -0.6984093,0 -1.2645813,0.5661723 -1.2645813,1.2645813 v 2.5291625 c 0,0.6984089 0.566172,1.2645813 1.2645813,1.2645813 h 2.5291625 c 0.6984094,0 1.2645813,-0.5661724 1.2645813,-1.2645813 V 2.3833503 c 0,-0.698409 -0.5661719,-1.2645813 -1.2645813,-1.2645813 M 4.2645814,2.3833503 H 6.7937439 V 4.9125128 H 4.2645814 Z M 10.587488,8.7062567 H 13.11665 V 11.23542 h -2.529162 z"
     id="path2"
     sodipodi:nodetypes="ccccccsssssssccsssssssccsssssssccsssssssccccccccccc"
     style="stroke-width:1" />
</svg>
