<?xml version="1.0" encoding="UTF-8" standalone="no"?>
<svg
   width="16"
   height="16"
   fill="currentColor"
   class="bi bi-info-circle"
   viewBox="0 0 16 16"
   version="1.1"
   id="svg2"
   sodipodi:docname="bi-insi.svg"
   inkscape:version="1.4 (e7c3feb100, 2024-10-09)"
   xmlns:inkscape="http://www.inkscape.org/namespaces/inkscape"
   xmlns:sodipodi="http://sodipodi.sourceforge.net/DTD/sodipodi-0.dtd"
   xmlns="http://www.w3.org/2000/svg"
   xmlns:svg="http://www.w3.org/2000/svg">
  <defs
     id="defs2" />
  <sodipodi:namedview
     id="namedview2"
     pagecolor="#ffffff"
     bordercolor="#000000"
     borderopacity="0.25"
     inkscape:showpageshadow="2"
     inkscape:pageopacity="0.0"
     inkscape:pagecheckerboard="0"
     inkscape:deskcolor="#d1d1d1"
     inkscape:zoom="11.313708"
     inkscape:cx="-14.097942"
     inkscape:cy="7.2036507"
     inkscape:window-width="1920"
     inkscape:window-height="1052"
     inkscape:window-x="0"
     inkscape:window-y="0"
     inkscape:window-maximized="1"
     inkscape:current-layer="svg2" />
  <path
     style="fill:#ff6600"
     d="m 3.0078125,4.2773437 c -0.1428097,0.00893 -0.3449463,0.082278 -0.4492187,0.2460938 -0.1027997,0.1615016 -0.091065,0.3059256 -0.078125,0.4199219 0.052382,0.562091 0.3691105,1.1322626 0.6953125,1.671875 0.024973,0.041322 0.2322932,0.4172272 0.6328125,0.9433593 l 0.029297,0.037109 -0.037109,0.033203 C 3.2828729,8.0927539 2.6888744,8.6866593 1.8964844,9.2734375 L 1.6875,9.4277344 l 0.068359,0.25 C 2.0710078,10.853082 2.7071411,11.895244 3.5664063,12.705078 L 3.6875,12.820313 3.8535156,12.808594 C 7.3757197,12.5706 10.952818,11.811117 13.255859,10.017578 L 13.601563,9.75 13.287109,9.4453125 c -0.08511,-0.082475 -0.134765,-0.1912351 -0.134765,-0.3222656 0,7.414e-4 -3.3e-5,-0.014532 0.002,-0.039063 l 0.02734,-0.3300781 -0.324219,-0.070312 C 12.264988,8.5524525 11.622379,8.3317612 11.275391,8.0371094 10.886586,7.7069478 10.614619,7.316387 10.386719,6.9472656 10.190704,6.6297875 10.0262,6.3525151 9.8066406,6.109375 9.7303468,5.9092539 9.6560583,5.743462 9.5839844,5.5996094 L 9.4863281,5.40625 8.9941406,5.3710937 C 8.2349644,5.3189493 7.5222586,5.4174429 6.8496094,5.6074219 l -0.019531,0.00586 -0.019531,-0.00977 -0.00195,-0.00195 C 5.2127182,4.7871215 4.4576495,4.5963583 4.4550781,4.5957031 4.1811843,4.5018799 3.9154593,4.4193791 3.6660156,4.3632812 3.5127423,4.3288126 3.3824905,4.3119074 3.2890625,4.296875 c -0.09443,-0.015199 -0.181176,-0.025745 -0.28125,-0.019531 z m 0.3183594,0.7988282 c 0.05684,0.00893 0.1149917,0.016505 0.171875,0.029297 0.2172729,0.048863 0.4699558,0.1248322 0.7363281,0.2167969 L 4.25,5.328125 l 0.017578,0.00391 c 0,0 0.6369308,0.1525372 2.1972656,0.9492188 l 0.00195,0.00195 0.2851562,0.140625 0.3027344,-0.083984 h 0.00195 C 7.6605094,6.1692907 8.2793244,6.0853839 8.9414063,6.1308594 l 0.046875,0.00391 c 0.037091,0.081723 0.074543,0.153425 0.1132812,0.2558594 l 0.03125,0.083984 0.068359,0.0625 c 0.1030329,0.093402 0.2939121,0.4166495 0.5371094,0.8105468 0.2431972,0.3938974 0.5638267,0.8609998 1.0449217,1.2695313 0.475387,0.4036839 1.112557,0.5769376 1.697266,0.71875 0.01426,0.069475 0.05448,0.1227736 0.08008,0.1875 C 10.509167,11.017397 7.2824891,11.772995 4.0058594,12.015625 3.3570808,11.369053 2.8803318,10.563888 2.6015625,9.6679688 3.289249,9.1260354 3.8818623,8.57919 4.3105469,8.1953125 l 0.5585937,-0.5039063 -0.4550781,-0.59375 -0.00195,-0.00195 C 4.0403131,6.6068937 3.8994084,6.3406095 3.828125,6.2226562 3.5673456,5.7912677 3.4042015,5.3806847 3.3261719,5.0761719 Z"
     id="path10" />
  <path
     style="fill:#ff6600;fill-rule:evenodd;stroke-linecap:round;stroke-linejoin:round;stroke-miterlimit:10"
     d="m 13.601563,8.2910156 c -0.453517,-2e-6 -0.830079,0.376565 -0.830079,0.8300782 0,0.4535131 0.376564,0.8320312 0.830079,0.8320312 0.453516,2.1e-6 0.830078,-0.3785181 0.830078,-0.8320312 0,-0.4535132 -0.376563,-0.8300782 -0.830078,-0.8300782 z m 0,0.796875 c 0.01403,0 0.03516,0.01918 0.03516,0.033203 0,0.014023 -0.02113,0.035156 -0.03516,0.035156 -0.01403,0 -0.03516,-0.021131 -0.03516,-0.035156 0,-0.014023 0.02113,-0.033203 0.03516,-0.033203 z"
     id="path11" />
  <path
     style="fill:#ff6600;fill-rule:evenodd;stroke-linecap:round;stroke-linejoin:round;stroke-miterlimit:10"
     d="M 8.140625,6.8769531 C 7.5980483,6.8769454 7.1503916,7.3265639 7.1503906,7.8691406 7.1503897,8.4117186 7.598047,8.8593828 8.140625,8.859375 8.6831951,8.8593711 9.1328135,8.4117107 9.1328125,7.8691406 9.1328115,7.3265719 8.6831937,6.876957 8.140625,6.8769531 Z m 0,0.8652344 c 0.075029,5e-7 0.126953,0.051925 0.1269531,0.1269531 2e-7,0.075029 -0.051924,0.1269526 -0.1269531,0.1269531 -0.07503,1.1e-6 -0.1250001,-0.051923 -0.125,-0.1269531 10e-8,-0.07503 0.04997,-0.1269542 0.125,-0.1269531 z"
     id="path9" />
  <path
     d="M 8,15 A 7,7 0 1 1 8,1 7,7 0 0 1 8,15 m 0,1 A 8,8 0 1 0 8,0 8,8 0 0 0 8,16"
     id="path3"
     style="fill:#ff6600" />
</svg>
