<?xml version="1.0" encoding="UTF-8" standalone="no"?>
<!-- Created with Inkscape (http://www.inkscape.org/) -->

<svg
   version="1.1"
   id="svg1"
   width="1667.0247"
   height="302.07422"
   viewBox="0 0 1667.0247 302.07423"
   xml:space="preserve"
   sodipodi:docname="emarches-name-white.svg"
   inkscape:version="1.4 (e7c3feb100, 2024-10-09)"
   xmlns:inkscape="http://www.inkscape.org/namespaces/inkscape"
   xmlns:sodipodi="http://sodipodi.sourceforge.net/DTD/sodipodi-0.dtd"
   xmlns="http://www.w3.org/2000/svg"
   xmlns:svg="http://www.w3.org/2000/svg"><sodipodi:namedview
     id="namedview1"
     pagecolor="#ffffff"
     bordercolor="#000000"
     borderopacity="0.25"
     inkscape:showpageshadow="2"
     inkscape:pageopacity="0.0"
     inkscape:pagecheckerboard="true"
     inkscape:deskcolor="#d1d1d1"
     inkscape:zoom="0.30771347"
     inkscape:cx="550.83712"
     inkscape:cy="40.622206"
     inkscape:window-width="1920"
     inkscape:window-height="1052"
     inkscape:window-x="0"
     inkscape:window-y="0"
     inkscape:window-maximized="1"
     inkscape:current-layer="svg1" /><defs
     id="defs1"><inkscape:path-effect
       effect="fillet_chamfer"
       id="path-effect49"
       is_visible="true"
       lpeversion="1"
       nodesatellites_param="F,1,0,1,0,0,0,1 @ F,1,1,1,0,0.2,0,1 @ F,1,1,1,0,0.2,0,1 @ F,1,1,1,0,0.2,0,1 @ F,1,1,1,0,0.2,0,1 @ F,0,0,1,0,0,0,1"
       radius="20"
       unit="px"
       method="auto"
       mode="F"
       chamfer_steps="1"
       flexible="true"
       use_knot_distance="true"
       apply_no_radius="true"
       apply_with_radius="true"
       only_selected="true"
       hide_knots="false" /><inkscape:path-effect
       effect="fillet_chamfer"
       id="path-effect48"
       is_visible="true"
       lpeversion="1"
       nodesatellites_param="F,1,0,1,0,0,0,1 @ F,1,0,1,0,0,0,1 @ F,1,0,1,0,0,0,1 @ F,1,0,1,0,0,0,1 @ F,1,1,1,0,0.2,0,1 @ F,0,0,1,0,0,0,1"
       radius="20"
       unit="px"
       method="auto"
       mode="F"
       chamfer_steps="1"
       flexible="true"
       use_knot_distance="true"
       apply_no_radius="true"
       apply_with_radius="true"
       only_selected="true"
       hide_knots="false" /><inkscape:path-effect
       effect="fillet_chamfer"
       id="path-effect47"
       is_visible="true"
       lpeversion="1"
       nodesatellites_param="F,1,0,1,0,0,0,1 @ F,1,1,1,0,0.2,0,1 @ F,1,1,1,0,0.2,0,1 @ F,0,0,1,0,0,0,1"
       radius="20"
       unit="px"
       method="auto"
       mode="F"
       chamfer_steps="1"
       flexible="true"
       use_knot_distance="true"
       apply_no_radius="true"
       apply_with_radius="true"
       only_selected="true"
       hide_knots="false" /><inkscape:path-effect
       effect="offset"
       id="path-effect18"
       is_visible="true"
       lpeversion="1.2"
       linejoin_type="miter"
       unit="px"
       offset="5"
       miter_limit="4"
       attempt_force_join="false"
       update_on_knot_move="true" /><inkscape:path-effect
       effect="offset"
       id="path-effect12"
       is_visible="true"
       lpeversion="1.2"
       linejoin_type="miter"
       unit="px"
       offset="-5"
       miter_limit="4"
       attempt_force_join="false"
       update_on_knot_move="true" /><inkscape:path-effect
       effect="offset"
       id="path-effect9"
       is_visible="true"
       lpeversion="1.2"
       linejoin_type="miter"
       unit="px"
       offset="15"
       miter_limit="4"
       attempt_force_join="false"
       update_on_knot_move="true" /><inkscape:path-effect
       effect="interpolate"
       id="path-effect8"
       is_visible="false"
       lpeversion="1"
       trajectory="m 232.24852,394.18623 8e-5,-53.39071"
       equidistant_spacing="false"
       steps="32" /><inkscape:path-effect
       effect="interpolate"
       id="path-effect2"
       is_visible="true"
       lpeversion="1"
       trajectory="m 232.24852,394.18623 8e-5,-53.39071"
       equidistant_spacing="false"
       steps="9" /><inkscape:path-effect
       effect="fillet_chamfer"
       id="path-effect14"
       is_visible="true"
       lpeversion="1"
       nodesatellites_param="F,0,0,1,0,0,0,1 @ F,0,0,1,0,0,0,1 @ F,0,0,1,0,0,0,1"
       radius="5"
       unit="px"
       method="auto"
       mode="F"
       chamfer_steps="1"
       flexible="false"
       use_knot_distance="true"
       apply_no_radius="true"
       apply_with_radius="true"
       only_selected="true"
       hide_knots="false" /><inkscape:path-effect
       effect="offset"
       id="path-effect13"
       is_visible="true"
       lpeversion="1.2"
       linejoin_type="miter"
       unit="px"
       offset="10"
       miter_limit="4"
       attempt_force_join="false"
       update_on_knot_move="true" /><inkscape:path-effect
       effect="offset"
       id="path-effect7"
       is_visible="true"
       lpeversion="1.2"
       linejoin_type="miter"
       unit="px"
       offset="10"
       miter_limit="4"
       attempt_force_join="false"
       update_on_knot_move="true" /><inkscape:path-effect
       effect="offset"
       id="path-effect6"
       is_visible="true"
       lpeversion="1.2"
       linejoin_type="miter"
       unit="px"
       offset="10"
       miter_limit="4"
       attempt_force_join="false"
       update_on_knot_move="true" /><inkscape:path-effect
       effect="offset"
       id="path-effect4"
       is_visible="true"
       lpeversion="1.2"
       linejoin_type="miter"
       unit="px"
       offset="-15"
       miter_limit="4"
       attempt_force_join="true"
       update_on_knot_move="true" /><inkscape:path-effect
       effect="offset"
       id="path-effect3"
       is_visible="true"
       lpeversion="1.2"
       linejoin_type="miter"
       unit="px"
       offset="-4"
       miter_limit="4"
       attempt_force_join="false"
       update_on_knot_move="true" /><inkscape:path-effect
       effect="offset"
       id="path-effect1"
       is_visible="false"
       lpeversion="1.2"
       linejoin_type="miter"
       unit="px"
       offset="-4"
       miter_limit="4"
       attempt_force_join="false"
       update_on_knot_move="true" /></defs><path
     id="path5"
     style="fill:#ffffff;fill-rule:evenodd;stroke:none;stroke-width:25.0001;stroke-linecap:round;stroke-linejoin:round;stroke-miterlimit:10;stroke-dasharray:none;stroke-dashoffset:2.6;paint-order:fill markers stroke"
     d="M 24.398437,0 C 10.88183,0 0,10.881805 0,24.398438 V 277.67578 c 0,13.51664 10.88183,24.39844 24.398437,24.39844 H 425.69336 l 26.00195,-72.54492 c -95.41511,73.37342 -306.92084,64.68201 -390.960935,45.68164 -0.08461,-0.25484 -0.168555,-0.51039 -0.251953,-0.76563 l 1.214844,0.0117 C 183.01744,272.68757 230.77224,217.85655 261.40039,190.42969 l 6.33984,-5.67774 -5.15429,-6.77148 c -8.25145,-10.83932 -11.97441,-17.64155 -13.00196,-19.3418 -6.75926,-11.18137 -12.89994,-23.22698 -13.71875,-32.23437 v -0.002 c -0.50859,-4.42559 1.03136,-6.07502 7.89454,-4.9707 2.22623,0.35821 4.7634,0.67956 7.56054,1.30859 5.0644,1.13894 10.67244,2.8196 16.53516,4.84375 0,0 14.90073,3.70217 48.5918,20.9043 l 3.21875,1.64453 3.47851,-0.98437 c 13.60036,-3.84118 27.80676,-5.76852 42.94922,-4.72852 l 5.8457,0.40235 c 1.48766,2.96924 2.98657,6.20476 4.54297,10.32031 8.31551,7.53818 14.9793,28.43921 33.51563,44.17969 9.39675,7.97946 24.05204,12.56805 37.1914,15.47656 -0.0372,0.47379 -0.0625,0.94965 -0.0625,1.43359 0,4.7782 1.90508,9.05882 4.95117,12.23242 L 533.96875,0 Z M 228.375,10.060547 l 28.30859,43.09375 0.50196,-39.902344 22.0625,46.632813 6.02343,-39.447266 15.38868,49.265625 11.42968,-38.21875 8.41407,50.9375 16.61328,-36.251953 1.27539,51.617187 21.47265,-33.572265 -5.88671,51.291016 25.91601,-30.244141 -12.93555,49.972661 c -18.00973,-1.07188 -33.05696,0.94142 -46.32031,5.04687 -15.49508,-6.86276 -32.94959,-14.64301 -48.47265,-20.37109 -8.97117,-3.31039 -17.21773,-5.91706 -24.16211,-7.20313 -3.47216,-0.64302 -6.6911,-1.11065 -9.61329,-0.94726 -2.8838,0.16122 -5.47197,0.9566 -7.73242,2.78125 -2.39873,1.78828 -3.71119,4.58653 -4.10351,7.32031 -0.40051,2.79093 -0.0761,5.6753 0.61914,8.75195 1.3906,6.15329 4.38006,13.14169 8.09765,20.41602 5.96902,11.6797 13.61143,23.48062 19.97852,32.5332 -39.96493,37.05691 -83.81085,81.74609 -197.003906,81.74609 L 23.59375,284.82422 52.763672,242.31055 16.46875,256.74414 51.103516,218.73242 12.443359,227.89648 52.146484,195.10938 12.589844,198.7793 56.449219,171.87109 16.771484,169.97656 63.929688,149.45312 24.908203,142.14844 74.455078,128.41602 36.847656,115.83398 87.814453,109.16406 52.339844,91.552734 103.8418,92.5 71.191406,69.769531 122.01172,77.470703 93.052734,50.904297 l 49.591796,15.3125 -25.14844,-30.890625 46.74024,21.474609 -20.1875,-33.464843 43.83984,28.490234 -15.69922,-36.65625 37.68164,34.255859 -10.46679,-38.496093 34.00195,38.716796 z m 42.66406,136.396483 c -1.66025,0.0239 -3.02725,0.44272 -4.0332,1.36914 -5.36485,4.94087 13.44922,26.52735 13.44922,26.52735 8.30427,-5.85247 13.9822,-9.83485 23.40234,-14.92579 -12.90158,-5.74581 -25.62438,-13.07445 -32.81836,-12.9707 z" /><g
     id="g45"
     transform="matrix(1.1422049,0,0,1.1422049,-121.06658,47.280052)"
     style="stroke:#ff6600;stroke-width:0.703229"><path
       style="fill:none;fill-rule:evenodd;stroke:#ffffff;stroke-width:21.0969;stroke-linecap:round;stroke-linejoin:round;stroke-miterlimit:10;stroke-dasharray:none;stroke-dashoffset:2.6;paint-order:fill markers stroke"
       d="m 743.47274,154.32115 0.0666,-128.057594 56.8407,64.128829 57.10745,-64.128829 -0.0667,128.324534"
       id="path34"
       sodipodi:nodetypes="ccccc" /><path
       style="fill:none;fill-rule:evenodd;stroke:#ffffff;stroke-width:21.0969;stroke-linecap:round;stroke-linejoin:round;stroke-miterlimit:10;stroke-dasharray:none;stroke-dashoffset:2.6;paint-order:fill markers stroke"
       d="m 705.375,154.42865 -48.58302,1e-5 a 15.34199,15.34199 44.999951 0 1 -15.34199,-15.34197 l -8e-5,-48.423019 A 12.912911,12.912911 135.07069 0 1 654.3947,77.75078 l 51.77925,0.12784"
       id="path35" /><path
       style="fill:none;fill-rule:evenodd;stroke:#ffffff;stroke-width:21.0969;stroke-linecap:round;stroke-linejoin:round;stroke-miterlimit:10;stroke-dasharray:none;stroke-dashoffset:2.6;paint-order:fill markers stroke"
       d="m 1072.5992,154.38865 -31.9227,-38.31483 h 14 c 24.3293,0 23.836,-38.1952 -1.1352,-38.1952 l -29.5254,-0.131487 a 15.273757,15.273757 135.1275 0 0 -15.3418,15.273645 l 2e-4,61.367872"
       id="path36"
       sodipodi:nodetypes="cccccc" /><path
       style="fill:none;fill-rule:evenodd;stroke:#ffffff;stroke-width:21.0969;stroke-linecap:round;stroke-linejoin:round;stroke-miterlimit:10;stroke-dasharray:none;stroke-dashoffset:2.6;paint-order:fill markers stroke"
       d="m 1172.6147,77.79856 -27.4104,-0.0798 c -23.8843,0 -35.3018,8.46682 -35.3037,38.35496 0,29.88814 8.5765,38.35488 35.3039,38.35488 h 27.57"
       id="path37"
       sodipodi:nodetypes="cczcc" /><path
       style="fill:none;fill-rule:evenodd;stroke:#ffffff;stroke-width:21.0969;stroke-linecap:round;stroke-linejoin:round;stroke-miterlimit:10;stroke-dasharray:none;stroke-dashoffset:2.6;paint-order:fill markers stroke"
       d="m 1276.7634,77.7587 -0.04,76.82978"
       id="path52" /><path
       style="fill:none;fill-rule:evenodd;stroke:#ffffff;stroke-width:21.0969;stroke-linecap:round;stroke-linejoin:round;stroke-miterlimit:10;stroke-dasharray:none;stroke-dashoffset:2.6;paint-order:fill markers stroke"
       d="m 1210.0733,154.42866 0.04,-76.66996"
       id="path51" /><path
       style="fill:none;fill-rule:evenodd;stroke:#ffffff;stroke-width:21.0969;stroke-linecap:round;stroke-linejoin:round;stroke-miterlimit:10;stroke-dasharray:none;stroke-dashoffset:2.6;paint-order:fill markers stroke"
       d="m 971.37529,154.54884 -38.39382,-76.82929 -38.1952,76.78939"
       id="path46" /><path
       style="fill:none;fill-rule:evenodd;stroke:#ffffff;stroke-width:21.0969;stroke-linecap:round;stroke-linejoin:round;stroke-miterlimit:10;stroke-dasharray:none;stroke-dashoffset:2.6;paint-order:fill markers stroke"
       d="m 933.08076,144.13482 v 0"
       id="path44" /><path
       id="path45"
       style="fill:none;fill-rule:evenodd;stroke:#ffffff;stroke-width:21.0969;stroke-linecap:round;stroke-linejoin:round;stroke-miterlimit:10;stroke-dasharray:none;stroke-dashoffset:2.6;paint-order:fill markers stroke"
       d="m 1416.0855,154.42866 57.0845,-1e-5 a 7.6390372,7.6390372 135 0 0 7.639,-7.63904 v -17.61134 a 12.9448,12.9448 45 0 0 -12.9448,-12.9448 h -44.0763 a 7.70293,7.70293 45 0 1 -7.7029,-7.70293 V 90.663659 a 12.912919,12.912919 135.07073 0 1 12.9448,-12.912879 l 51.7792,0.12784"
       sodipodi:nodetypes="cccccc" /><path
       style="fill:none;fill-rule:evenodd;stroke:#ffffff;stroke-width:21.0969;stroke-linecap:round;stroke-linejoin:round;stroke-miterlimit:10;stroke-dasharray:none;stroke-dashoffset:2.6;paint-order:fill markers stroke"
       d="m 1377.9874,154.41269 -48.5831,1e-5 a 15.34199,15.34199 0 0 1 -15.342,-15.34197 l -10e-5,-48.423015 a 12.912911,12.912911 0 0 1 12.9448,-12.9129 l 51.7793,0.12784"
       id="path49" /><path
       style="fill:none;fill-rule:evenodd;stroke:#ffffff;stroke-width:21.0969;stroke-linecap:round;stroke-linejoin:round;stroke-miterlimit:10;stroke-dasharray:none;stroke-dashoffset:2.6;paint-order:fill markers stroke"
       d="m 1373.1719,117.39811 c -10.5049,0.0749 -21.5052,0.13479 -32.7948,0.17083 m -85.2316,-0.29312 c -7.3363,-0.0852 -14.5839,-0.189 -21.6886,-0.31354 M 700.64233,118.542 c -10.58254,0.006 -20.7076,0.45081 -30.37425,1.23075"
       id="path55"
       sodipodi:nodetypes="ccccss" /></g><path
     style="fill:none;fill-rule:evenodd;stroke:#ffffff;stroke-width:23.0892;stroke-linecap:round;stroke-linejoin:round;stroke-miterlimit:10;stroke-dasharray:none;stroke-dashoffset:2.6;paint-order:fill markers stroke"
     d="M 573.32471,11.5446 H 1632.9466 c 12.4834,0 22.5335,10.049879 22.5335,22.53336 v 233.91813 c 0,12.48348 -10.0501,22.53336 -22.5335,22.53336 H 473.32471 Z"
     id="path6"
     sodipodi:nodetypes="csssscc" /><g
     id="g15"
     transform="matrix(1.2919945,0,0,1.2919945,-45.077616,-43.58711)"><path
       style="fill:#008080;fill-opacity:1;fill-rule:evenodd;stroke:none;stroke-width:0.999996;stroke-linecap:round;stroke-linejoin:round;stroke-miterlimit:10;stroke-dasharray:none"
       d="m 154.27405,127.76844 c -0.006,-0.0606 -0.0238,-0.1271 -0.0293,-0.1875 l 0.0352,0.35547 c -0.006,-0.0549 8e-5,-0.11296 -0.006,-0.16797 z"
       id="path13" /><path
       style="fill:#ff0000;fill-rule:evenodd;stroke:none;stroke-width:7.13415;stroke-linecap:round;stroke-linejoin:round;stroke-miterlimit:10"
       d="m 401.2242,201.09997 c 0,3.62419 -2.93796,6.56218 -6.56219,6.56217 -3.62417,1e-5 -6.56212,-2.93798 -6.56212,-6.56217 0,-3.62419 2.93795,-6.56218 6.56218,-6.56217 3.62417,0 6.56213,2.93798 6.56213,6.56217 z"
       id="path11"
       inkscape:export-filename="limace.svg"
       inkscape:export-xdpi="96"
       inkscape:export-ydpi="96" /><path
       id="path9"
       style="fill:#000000;fill-rule:evenodd;stroke:#ffffff;stroke-width:7.13409;stroke-linecap:round;stroke-linejoin:round;stroke-miterlimit:10"
       d="m 313.82433,180.42829 a 9.2216425,9.2216425 0 0 1 -9.22158,9.22165 9.2216425,9.2216425 0 0 1 -9.22177,-9.22165 9.2216425,9.2216425 0 0 1 9.22177,-9.22164 9.2216425,9.2216425 0 0 1 9.22158,9.22164 z" /></g></svg>
