<?xml version="1.0" encoding="UTF-8" standalone="no"?>
<!-- Created with Inkscape (http://www.inkscape.org/) -->

<svg
   version="1.1"
   id="svg1"
   width="1487.0247"
   height="302.07422"
   viewBox="0 0 1487.0247 302.07423"
   xml:space="preserve"
   sodipodi:docname="emarches-name-white-ar.svg"
   inkscape:version="1.4 (e7c3feb100, 2024-10-09)"
   xmlns:inkscape="http://www.inkscape.org/namespaces/inkscape"
   xmlns:sodipodi="http://sodipodi.sourceforge.net/DTD/sodipodi-0.dtd"
   xmlns="http://www.w3.org/2000/svg"
   xmlns:svg="http://www.w3.org/2000/svg"><sodipodi:namedview
     id="namedview1"
     pagecolor="#ffffff"
     bordercolor="#000000"
     borderopacity="0.25"
     inkscape:showpageshadow="2"
     inkscape:pageopacity="0.0"
     inkscape:pagecheckerboard="true"
     inkscape:deskcolor="#d1d1d1"
     inkscape:zoom="0.42452481"
     inkscape:cx="638.36081"
     inkscape:cy="378.06978"
     inkscape:window-width="1920"
     inkscape:window-height="1052"
     inkscape:window-x="0"
     inkscape:window-y="0"
     inkscape:window-maximized="1"
     inkscape:current-layer="svg1" /><defs
     id="defs1"><inkscape:path-effect
       effect="fillet_chamfer"
       id="path-effect49"
       is_visible="true"
       lpeversion="1"
       nodesatellites_param="F,1,0,1,0,0,0,1 @ F,1,1,1,0,0.2,0,1 @ F,1,1,1,0,0.2,0,1 @ F,1,1,1,0,0.2,0,1 @ F,1,1,1,0,0.2,0,1 @ F,0,0,1,0,0,0,1"
       radius="20"
       unit="px"
       method="auto"
       mode="F"
       chamfer_steps="1"
       flexible="true"
       use_knot_distance="true"
       apply_no_radius="true"
       apply_with_radius="true"
       only_selected="true"
       hide_knots="false" /><inkscape:path-effect
       effect="fillet_chamfer"
       id="path-effect48"
       is_visible="true"
       lpeversion="1"
       nodesatellites_param="F,1,0,1,0,0,0,1 @ F,1,0,1,0,0,0,1 @ F,1,0,1,0,0,0,1 @ F,1,0,1,0,0,0,1 @ F,1,1,1,0,0.2,0,1 @ F,0,0,1,0,0,0,1"
       radius="20"
       unit="px"
       method="auto"
       mode="F"
       chamfer_steps="1"
       flexible="true"
       use_knot_distance="true"
       apply_no_radius="true"
       apply_with_radius="true"
       only_selected="true"
       hide_knots="false" /><inkscape:path-effect
       effect="fillet_chamfer"
       id="path-effect47"
       is_visible="true"
       lpeversion="1"
       nodesatellites_param="F,1,0,1,0,0,0,1 @ F,1,1,1,0,0.2,0,1 @ F,1,1,1,0,0.2,0,1 @ F,0,0,1,0,0,0,1"
       radius="20"
       unit="px"
       method="auto"
       mode="F"
       chamfer_steps="1"
       flexible="true"
       use_knot_distance="true"
       apply_no_radius="true"
       apply_with_radius="true"
       only_selected="true"
       hide_knots="false" /><inkscape:path-effect
       effect="offset"
       id="path-effect18"
       is_visible="true"
       lpeversion="1.2"
       linejoin_type="miter"
       unit="px"
       offset="5"
       miter_limit="4"
       attempt_force_join="false"
       update_on_knot_move="true" /><inkscape:path-effect
       effect="offset"
       id="path-effect12"
       is_visible="true"
       lpeversion="1.2"
       linejoin_type="miter"
       unit="px"
       offset="-5"
       miter_limit="4"
       attempt_force_join="false"
       update_on_knot_move="true" /><inkscape:path-effect
       effect="offset"
       id="path-effect9"
       is_visible="true"
       lpeversion="1.2"
       linejoin_type="miter"
       unit="px"
       offset="15"
       miter_limit="4"
       attempt_force_join="false"
       update_on_knot_move="true" /><inkscape:path-effect
       effect="interpolate"
       id="path-effect8"
       is_visible="false"
       lpeversion="1"
       trajectory="m 232.24852,394.18623 8e-5,-53.39071"
       equidistant_spacing="false"
       steps="32" /><inkscape:path-effect
       effect="interpolate"
       id="path-effect2"
       is_visible="true"
       lpeversion="1"
       trajectory="m 232.24852,394.18623 8e-5,-53.39071"
       equidistant_spacing="false"
       steps="9" /><inkscape:path-effect
       effect="fillet_chamfer"
       id="path-effect14"
       is_visible="true"
       lpeversion="1"
       nodesatellites_param="F,0,0,1,0,0,0,1 @ F,0,0,1,0,0,0,1 @ F,0,0,1,0,0,0,1"
       radius="5"
       unit="px"
       method="auto"
       mode="F"
       chamfer_steps="1"
       flexible="false"
       use_knot_distance="true"
       apply_no_radius="true"
       apply_with_radius="true"
       only_selected="true"
       hide_knots="false" /><inkscape:path-effect
       effect="offset"
       id="path-effect13"
       is_visible="true"
       lpeversion="1.2"
       linejoin_type="miter"
       unit="px"
       offset="10"
       miter_limit="4"
       attempt_force_join="false"
       update_on_knot_move="true" /><inkscape:path-effect
       effect="offset"
       id="path-effect7"
       is_visible="true"
       lpeversion="1.2"
       linejoin_type="miter"
       unit="px"
       offset="10"
       miter_limit="4"
       attempt_force_join="false"
       update_on_knot_move="true" /><inkscape:path-effect
       effect="offset"
       id="path-effect6"
       is_visible="true"
       lpeversion="1.2"
       linejoin_type="miter"
       unit="px"
       offset="10"
       miter_limit="4"
       attempt_force_join="false"
       update_on_knot_move="true" /><inkscape:path-effect
       effect="offset"
       id="path-effect4"
       is_visible="true"
       lpeversion="1.2"
       linejoin_type="miter"
       unit="px"
       offset="-15"
       miter_limit="4"
       attempt_force_join="true"
       update_on_knot_move="true" /><inkscape:path-effect
       effect="offset"
       id="path-effect3"
       is_visible="true"
       lpeversion="1.2"
       linejoin_type="miter"
       unit="px"
       offset="-4"
       miter_limit="4"
       attempt_force_join="false"
       update_on_knot_move="true" /><inkscape:path-effect
       effect="offset"
       id="path-effect1"
       is_visible="false"
       lpeversion="1.2"
       linejoin_type="miter"
       unit="px"
       offset="-4"
       miter_limit="4"
       attempt_force_join="false"
       update_on_knot_move="true" /></defs><path
     id="rect2"
     style="fill:none;fill-rule:evenodd;stroke-width:0.499999;stroke-linecap:round;stroke-linejoin:round;stroke-miterlimit:10;stroke-dashoffset:2.6;paint-order:fill markers stroke"
     d="M 297.41466,688.44527 H 1340.0411 c 13.5166,0 24.3983,10.88162 24.3983,24.39825 v 253.27749 c 0,13.51663 -10.8817,24.39825 -24.3983,24.39825 H 297.41466 Z"
     sodipodi:nodetypes="csssscc" /><path
     style="fill:#008080;fill-opacity:1;fill-rule:evenodd;stroke:none;stroke-width:0.999996;stroke-linecap:round;stroke-linejoin:round;stroke-miterlimit:10;stroke-dasharray:none"
     d="m -208.31129,816.21367 c -0.006,-0.0606 -0.0238,-0.1271 -0.0293,-0.1875 l 0.0352,0.35547 c -0.006,-0.0549 8e-5,-0.11296 -0.006,-0.16797 z"
     id="path13" /><g
     id="g1"
     transform="translate(297.41466,688.44527)"><path
       id="text2"
       style="font-size:319.037px;line-height:0;font-family:Alhurra;-inkscape-font-specification:'Alhurra, Normal';letter-spacing:0px;word-spacing:0px;fill:#ffffff;fill-rule:evenodd;stroke:none;stroke-width:1.20223;stroke-miterlimit:10;stroke-dashoffset:2.6;paint-order:fill markers stroke"
       d="m 540.0971,-621.07744 v 127.46434 c 3.2631,-2.81582 7.06933,-4.69461 11.36851,-5.62611 0.0316,-0.007 0.0616,-0.014 0.0939,-0.02 2.76806,-0.55361 5.56266,-0.80326 8.3863,-0.7514 1.68895,0.031 3.38332,0.16912 5.08134,0.41561 1.38353,0.20086 2.74826,0.46987 4.09867,0.79366 v -122.27611 z m 19.80422,133.36446 c -2.64958,-0.0486 -5.27329,0.18629 -7.86995,0.70561 -0.0191,0.003 -0.0391,0.009 -0.0582,0.0113 -4.42432,0.95867 -8.20034,2.96713 -11.40112,6.09336 -0.0209,0.0203 -0.0399,0.0405 -0.0599,0.0611 l -3.90263,3.99649 c -1.45317,1.45317 -2.74728,2.9889 -3.87571,4.61054 -0.0127,0.0195 -0.0258,0.0389 -0.0399,0.0586 -1.06295,1.59445 -2.05786,3.25262 -2.98436,4.97331 -0.17672,0.32825 -0.30153,0.68193 -0.36983,1.04843 l -2.05928,11.05025 c -0.0399,0.21798 -0.0616,0.43925 -0.0616,0.66097 0,1.79391 0.13856,3.48312 0.44487,5.0144 0.0113,0.0434 0.0184,0.0863 0.0275,0.12912 0.34003,1.42793 0.74047,2.73837 1.22228,3.86263 l -0.0433,-0.10797 1.26081,3.22748 h -14.19547 c -1.99189,0 -3.60655,1.61477 -3.60655,3.6067 v 17.97835 c 0,1.99194 1.61466,3.60671 3.60655,3.60671 h 70.51284 c 1.99189,0 3.60663,-1.61477 3.60663,-3.60671 v -17.97838 c 0,-1.99192 -1.61474,-3.60669 -3.60663,-3.60669 h -19.72079 l -7.24154,-1.3032 -4.6809,-3.2451 -1.86676,-2.49018 -0.3228,-2.97151 0.34744,-4.03176 1.96426,-2.55354 2.94094,-2.65456 3.68076,-0.95451 c 1.6744,0.0496 3.01,0.40189 4.14792,1.02965 0.0127,0.009 0.03,0.0165 0.0441,0.0246 1.40058,0.74697 2.79643,1.88974 4.17738,3.53625 0.0113,0.009 0.0127,0.0149 0.0207,0.0223 l 2.71567,3.18405 c 1.52114,1.78398 4.31357,1.66504 5.6778,-0.24186 l 11.05002,-15.4506 c 1.06587,-1.49049 0.84464,-3.54329 -0.51401,-4.77255 l -1.96676,-1.77987 c -2.73877,-2.58443 -6.07176,-4.79436 -9.93464,-6.65926 -0.0149,-0.009 -0.0324,-0.0149 -0.0482,-0.0222 -3.93477,-1.83175 -8.01208,-3.05746 -12.24071,-3.67126 -1.59953,-0.23222 -3.19229,-0.36183 -4.77941,-0.39098 z m -94.34389,-61.63501 c 3.24628,0.0623 6.27434,0.71797 9.08366,1.96654 2.80925,1.24858 5.27519,2.93412 7.3977,5.05666 2.12252,2.12256 3.80815,4.61998 5.05672,7.49164 1.24859,2.80928 1.93564,5.83746 2.06037,9.08372 0.12503,3.43353 -0.43739,6.71018 -1.68596,9.83157 -1.18601,3.12139 -2.90301,5.86845 -5.15041,8.2407 -2.24747,2.37228 -4.90004,4.24563 -7.95905,5.61906 -2.99654,1.37339 -6.24282,1.99747 -9.73879,1.87262 -3.30852,-0.0624 -6.43018,-0.74949 -9.3643,-2.06046 -2.87164,-1.31099 -5.40058,-3.08988 -7.58558,-5.33728 -2.12259,-2.30984 -3.80805,-4.96356 -5.05672,-7.96011 -1.18618,-2.99655 -1.71566,-6.21135 -1.59086,-9.6449 0.0624,-3.30869 0.74838,-6.43017 2.05936,-9.36428 1.37347,-2.99654 3.15353,-5.58729 5.33836,-7.77226 2.24755,-2.24742 4.83815,-3.99479 7.77235,-5.24336 2.93404,-1.24855 6.05444,-1.84227 9.36315,-1.77986 z m -107.78134,79.40881 v -151.13826 h 29.02898 v 122.10923 l 15.31027,1.1e-4 14.93577,1.1e-4 -4.30758,-12.07988 c -0.31218,-2.06012 -0.62359,-4.24493 -0.93558,-6.55477 -0.24994,-2.30984 -0.37466,-4.65095 -0.37466,-7.02321 0,-3.93297 0.31143,-7.55371 0.93567,-10.86239 0.68689,-3.30868 1.65484,-6.64946 2.90359,-10.02058 1.56058,-3.24625 3.21467,-6.33624 4.9627,-9.27037 1.81043,-2.99654 3.90181,-5.86841 6.27418,-8.61523 2.68452,-2.24742 5.39992,-4.33773 8.14675,-6.273 2.80942,-1.93528 5.83738,-3.65233 9.08368,-5.15059 3.37116,-1.43586 6.80407,-2.43435 10.30013,-2.9962 3.55837,-0.56187 7.30386,-0.84297 11.23687,-0.84297 3.93279,0 7.64824,0.2811 11.14412,0.84297 3.5583,0.56185 6.95983,1.56034 10.20604,2.9962 3.37116,1.49826 6.39939,3.15233 9.08384,4.96275 2.74658,1.8104 5.36895,3.9637 7.86604,6.46084 2.30979,2.74682 4.49469,5.61869 6.55481,8.61523 2.06002,2.93413 3.83891,6.02412 5.33719,9.27037 1.49826,3.37112 2.5598,6.83672 3.18405,10.3951 0.62424,3.49597 0.93683,7.21003 0.93683,11.14298 0,3.55842 -0.31259,7.08582 -0.93683,10.58179 -0.62425,3.49599 -1.68579,6.86708 -3.18405,10.11335 -1.49828,3.37111 -3.27717,6.4926 -5.33719,9.36429 -2.06012,2.87169 -4.24502,5.55574 -6.55481,8.05286 -2.49709,2.49711 -5.11946,4.65043 -7.86604,6.46084 -2.68445,1.81041 -5.71268,3.46564 -9.08384,4.96393 -6.49249,2.99652 -13.60917,4.4943 -21.35016,4.4943 l -62.9274,8e-5 z m -32.11928,1.77921 -7.11677,17.04283 -10.95618,16.94919 -14.88899,17.04286 -24.06603,-18.35385 9.27056,-10.9561 7.77231,-9.45783 5.33754,-8.4278 4.49483,-8.14684 3.65202,-9.45785 2.43469,-10.39427 c 1.81039,-7.55376 2.8717,-14.98271 3.18386,-22.28679 0.31215,-7.36651 0.0317,-14.73299 -0.84282,-22.0995 -0.87394,-6.99195 -2.43467,-13.85903 -4.68209,-20.60124 -2.24742,-6.80466 -4.99425,-13.42204 -8.24049,-19.85212 h 32.96205 c 2.99649,7.05439 5.36879,14.26481 7.1168,21.63132 1.74789,7.30406 2.90284,15.01393 3.46475,23.12957 0.87393,7.55378 0.99884,15.29488 0.37453,23.22321 -0.6243,7.86594 -1.90402,15.79428 -3.83928,23.78507 z m -223.71072,-30.80824 c 1.5607,0 3.02775,-0.15605 4.40117,-0.46821 1.37342,-0.31213 2.49712,-0.78035 3.37111,-1.40463 l 5.43124,-4.77573 3.65203,-7.11681 1.03006,-8.42775 v -56.37251 h 29.12267 v 64.80026 c 0,0.87401 0.12488,1.77921 0.37456,2.71564 0.31215,0.93641 0.62428,1.84161 0.93642,2.71561 l 3.65204,5.3376 c 2.68443,2.49711 5.5873,3.99539 8.70871,4.49481 3.12141,0.49944 6.05551,0.18729 8.80235,-0.93641 2.74682,-1.12372 5.1191,-2.96533 7.11678,-5.5249 1.99771,-2.55953 3.24627,-5.71215 3.74569,-9.45782 v -64.14479 h 29.30995 v 64.14479 c 0.12488,3.74567 0.99884,6.83587 2.62197,9.27055 1.62312,2.37226 3.5896,4.12024 5.89945,5.24395 2.30982,1.12372 4.80694,1.65435 7.49134,1.59193 2.74684,-0.12489 5.27517,-0.78037 7.58502,-1.9665 2.30983,-1.24856 4.27631,-3.05897 5.89944,-5.43125 1.62312,-2.37226 2.49711,-5.27517 2.62196,-8.70869 v -64.14479 h 29.02904 v 56.65341 9.92606 c 0,2.68442 -0.28094,5.36881 -0.84278,8.05322 -0.56185,2.68442 -1.27979,5.36879 -2.15378,8.05321 -0.43699,1.37343 -0.99883,2.71561 -1.68555,4.0266 -0.68671,1.31099 -1.46705,2.55954 -2.34105,3.74567 -0.81157,1.24857 -1.68557,2.40349 -2.62199,3.46476 -0.93641,1.06127 -1.87282,2.06013 -2.80924,2.99654 -2.06013,2.18498 -4.36997,4.12025 -6.92952,5.80582 -2.55954,1.68555 -5.21273,3.12138 -7.95957,4.30754 -2.6844,1.49827 -5.61851,2.55952 -8.80234,3.18381 -3.1214,0.62429 -6.36765,0.93644 -9.73877,0.93644 -2.62198,0 -5.36881,-0.28094 -8.2405,-0.84278 -2.80926,-0.56186 -5.58729,-1.43584 -8.33414,-2.62199 -2.68439,-1.18613 -5.1191,-2.52832 -7.30408,-4.02659 -2.12254,-1.49827 -4.2763,-3.0902 -6.46129,-4.77575 -2.06011,1.68555 -4.27631,3.27748 -6.64858,4.77575 -2.30983,1.49827 -4.83817,2.84046 -7.58499,4.02659 -5.24395,2.30983 -10.76883,3.46477 -16.57463,3.46477 -2.68442,0 -5.33762,-0.24972 -7.95958,-0.74916 -2.62197,-0.4994 -5.11909,-1.18613 -7.49136,-2.06011 -2.37225,-0.99885 -4.61965,-2.06013 -6.74222,-3.18382 -2.12254,-1.12371 -4.27631,-2.43469 -6.4613,-3.93295 -0.87399,0.87398 -1.90404,1.71675 -3.09017,2.52833 -1.12371,0.81156 -2.46592,1.52947 -4.02662,2.15376 l -9.45785,1.77918 -119.4644787,-0.0466 -37.3163483,-0.0469 v -78.09739 c -5.556107,-0.81155 -9.520276,-0.0936 -11.892533,2.15377 -2.372265,2.18498 -3.495955,5.61852 -3.371113,10.30061 v 65.64303 H -169.17162 c -3.80812,0 -7.33531,-0.43701 -10.58156,-1.31099 -3.18384,-0.87399 -6.39885,-1.99768 -9.64513,-3.37111 -3.24624,-1.43585 -6.27401,-3.05897 -9.08325,-4.86938 -2.74683,-1.81043 -5.46247,-3.87053 -8.14688,-6.18038 -2.30983,-2.68439 -4.33873,-5.43123 -6.08672,-8.24048 -1.68555,-2.87167 -3.24626,-5.93066 -4.68211,-9.17694 -1.49826,-3.55836 -2.55953,-7.08556 -3.18381,-10.58152 -0.56185,-3.55841 -0.71793,-7.21045 -0.46822,-10.95613 0,-4.24507 0.28094,-8.0844 0.84278,-11.51795 0.62426,-3.49597 1.5607,-6.83586 2.80925,-10.01971 1.43585,-3.24624 2.99656,-6.30522 4.68211,-9.17691 1.74799,-2.93412 3.77689,-5.55608 6.08672,-7.86593 2.68441,-1.9977 5.40005,-3.8393 8.14688,-5.52488 2.80924,-1.74798 5.83701,-3.33991 9.08325,-4.77573 3.24628,-1.31099 6.46129,-2.27863 9.64513,-2.9029 3.24625,-0.68671 6.77344,-1.03007 10.58156,-1.03007 v 28.93537 l -8.61508,1.68556 c -1.49827,0.56185 -2.96533,1.27978 -4.40116,2.15377 -1.37344,0.81156 -2.49714,1.81041 -3.3711,2.99654 -0.87401,0.87399 -1.71679,1.99769 -2.52836,3.37111 -0.81156,1.311 -1.46705,2.71563 -1.96649,4.21389 l -1.96648,10.11333 c 0,3.93299 0.65552,7.30408 1.96648,10.11333 0.49944,1.49829 1.15493,2.96536 1.96649,4.40119 0.81157,1.37341 1.65435,2.49713 2.52836,3.37113 1.31097,1.18612 2.55953,2.2162 3.74566,3.09015 1.18613,0.81159 2.52833,1.49829 4.0266,2.06015 l 8.61508,1.96648 h 88.117116 v -51.31587 c 1.3734,-9.73879 4.494812,-16.48102 9.364193,-20.22668 4.93182,-3.74571 11.986169,-5.61853 21.163091,-5.61853 h 43.7308038 v 77.16101 H 1.0227113 Z M 216.93846,-623.6057 c 2.30983,0 4.46361,0.43699 6.46129,1.31098 1.99771,0.81157 3.7457,1.96651 5.24395,3.46475 1.49827,1.49827 2.68441,3.27748 3.55839,5.3376 0.93643,2.06012 1.46707,4.30753 1.59191,6.74222 0.0623,2.43469 -0.34335,4.74454 -1.21735,6.92951 -0.87398,2.12255 -2.12255,3.99539 -3.74568,5.61852 -1.56069,1.56071 -3.40229,2.80928 -5.52486,3.74569 -2.12255,0.93641 -4.36998,1.37341 -6.74223,1.31098 -2.37226,0 -4.61968,-0.46819 -6.74221,-1.40463 -2.12256,-0.99885 -3.93299,-2.34105 -5.43123,-4.0266 -1.49828,-1.68558 -2.65322,-3.65205 -3.46477,-5.89945 -0.81157,-2.30983 -1.09249,-4.77574 -0.84278,-7.39772 0.24971,-2.18498 0.84278,-4.2451 1.77921,-6.18037 0.93642,-1.93528 2.15374,-3.58961 3.65204,-4.96304 1.49825,-1.43583 3.21502,-2.55953 5.1503,-3.3711 1.93527,-0.81156 4.0266,-1.21734 6.27402,-1.21734 z m -39.61057,-0.18729 c 2.30983,0 4.46361,0.43699 6.46131,1.31099 1.99767,0.81156 3.74568,1.96648 5.24392,3.46474 1.49829,1.49829 2.68442,3.27749 3.5584,5.33761 0.93643,2.06012 1.46707,4.30754 1.59193,6.74221 0.0623,2.4347 -0.34335,4.74454 -1.21735,6.92952 -0.874,2.12254 -2.12256,3.9954 -3.74567,5.61853 -1.56069,1.56069 -3.40232,2.80925 -5.52488,3.74569 -2.12255,0.9364 -4.36996,1.37339 -6.74224,1.31097 -2.37225,0 -4.61966,-0.46822 -6.74221,-1.40463 -2.12256,-0.99885 -3.93297,-2.34105 -5.43124,-4.0266 -1.49826,-1.68555 -2.6532,-3.65204 -3.46475,-5.89946 -0.81156,-2.30983 -1.09249,-4.77573 -0.84279,-7.3977 0.24972,-2.185 0.84279,-4.24511 1.77922,-6.18038 0.93641,-1.93527 2.15374,-3.58962 3.65203,-4.96303 1.49826,-1.43585 3.21503,-2.55955 5.1503,-3.37112 1.93528,-0.81156 4.02661,-1.21734 6.27402,-1.21734 z m 20.3203,-33.8984 c 2.30985,0 4.46361,0.43699 6.46132,1.31097 1.99768,0.81158 3.74568,1.9665 5.24394,3.46478 1.49826,1.49826 2.68441,3.27746 3.5584,5.33757 0.93641,2.06014 1.46704,4.30754 1.5919,6.74223 0.0623,2.43471 -0.34335,4.74454 -1.21733,6.92952 -0.87398,2.12255 -2.12254,3.99538 -3.74568,5.61854 -1.5607,1.56068 -3.40233,2.80923 -5.5249,3.74566 -2.12255,0.93642 -4.36994,1.37341 -6.74221,1.31098 -2.37226,0 -4.61966,-0.46821 -6.74222,-1.40464 -2.12255,-0.99882 -3.93296,-2.34103 -5.43122,-4.02658 -1.49828,-1.68557 -2.65321,-3.65206 -3.46476,-5.89945 -0.81157,-2.30984 -1.09249,-4.77575 -0.84279,-7.39771 0.24972,-2.185 0.84279,-4.24512 1.7792,-6.18038 0.93642,-1.93527 2.15377,-3.58963 3.65203,-4.96305 1.49828,-1.43583 3.21505,-2.55953 5.1503,-3.37109 1.93528,-0.81158 4.02662,-1.21735 6.27402,-1.21735 z m -295.745533,203.5777 c 2.309836,0 4.463597,0.40579 6.461276,1.21735 1.997697,0.87398 3.7457,2.06013 5.243968,3.5584 1.498259,1.49827 2.684396,3.27747 3.558394,5.3376 0.93641,2.06011 1.467053,4.30752 1.591912,6.74224 0.06226,2.43467 -0.343372,4.7133 -1.217352,6.83584 -0.874006,2.18498 -2.122538,4.05781 -3.745674,5.61852 -1.560689,1.62312 -3.402328,2.9029 -5.524883,3.83933 -2.122556,0.93641 -4.369962,1.3734 -6.742219,1.31097 -3.745689,-0.2497 -6.835879,-1.27975 -9.270569,-3.09019 -2.43468,-1.81041 -4.24511,-3.99538 -5.43124,-6.55493 -1.12369,-2.49713 -1.65433,-5.21273 -1.59192,-8.14686 0.12489,-2.9341 0.81158,-5.64972 2.06013,-8.14685 1.31099,-2.43469 3.18383,-4.46359 5.61852,-6.08671 2.43468,-1.62313 5.43125,-2.43471 8.989657,-2.43471 z m -39.610577,-0.18727 c 2.30983,0 4.46359,0.40577 6.46129,1.21733 1.99772,0.874 3.74568,2.06013 5.24396,3.55841 1.49828,1.49826 2.6844,3.27747 3.55838,5.33757 0.93642,2.06015 1.46706,4.30755 1.59194,6.74223 0.0623,2.4347 -0.34336,4.71332 -1.21736,6.83589 -0.874,2.18497 -2.12256,4.05781 -3.74568,5.6185 -1.5607,1.62314 -3.40232,2.9029 -5.52487,3.83933 -2.12256,0.93639 -4.36997,1.37342 -6.74222,1.311 -2.37228,0 -4.61967,-0.49945 -6.74223,-1.49831 -2.12256,-0.93639 -3.93297,-2.24738 -5.43125,-3.93294 -1.49826,-1.68558 -2.65316,-3.68326 -3.46476,-5.99308 -0.81155,-2.24743 -1.09246,-4.68212 -0.84278,-7.30409 0.24972,-2.18498 0.84278,-4.24511 1.77922,-6.18037 0.93641,-1.93528 2.15376,-3.62082 3.65204,-5.05669 1.49826,-1.3734 3.21503,-2.46589 5.15031,-3.27746 1.93524,-0.81155 4.02661,-1.21732 6.27401,-1.21732 z"
       sodipodi:nodetypes="ccscsscccssccccscscccsscccsssssssscccccccccsccccccccscssscsscccscccccccsscccccccccscccccccscccccccsscscccscccccccccccccccccccccccssccccccscccssscccccsccsccccsscscscsccsccccccsscsccccccccccsccccccccccccccccccccccccccccccccscccsscscccssccsccscssscscccssccsccscssscscccssccsccscssscsccccscscccssscsccccsccsccscss" /><path
       id="path5"
       style="fill:#ffffff;fill-rule:evenodd;stroke:none;stroke-width:25.0001;stroke-linecap:round;stroke-linejoin:round;stroke-miterlimit:10;stroke-dasharray:none;stroke-dashoffset:2.6;paint-order:fill markers stroke"
       d="m 1165.2116,-688.44527 c 13.5166,0 24.3984,10.8818 24.3984,24.3984 v 253.27738 c 0,13.51664 -10.8818,24.39844 -24.3984,24.39844 h -401.295 l -26.00191,-72.54492 c 95.41511,73.37342 306.92081,64.68201 390.96091,45.68164 0.085,-0.25484 0.1686,-0.51039 0.252,-0.76563 l -1.2149,0.0117 c -121.3201,-1.76944 -169.0749,-56.60051 -199.7031,-84.02731 l -6.3398,-5.6778 5.1543,-6.7714 c 8.2514,-10.8394 11.9744,-17.6416 13.0019,-19.3418 6.7593,-11.1814 12.9,-23.227 13.7188,-32.2344 v 0 c 0.5086,-4.4256 -1.0314,-6.075 -7.8946,-4.9707 -2.2262,0.3582 -4.7634,0.6796 -7.5605,1.3086 -5.0644,1.1389 -10.6724,2.8196 -16.5352,4.8437 0,0 -14.9007,3.7022 -48.5918,20.9043 l -3.2187,1.6446 -3.4785,-0.9844 c -13.6004,-3.8412 -27.8068,-5.7685 -42.9492,-4.7285 l -5.8457,0.4023 c -1.4877,2.9693 -2.9866,6.2048 -4.543,10.3203 -8.3155,7.5382 -14.9793,28.4392 -33.5157,44.1797 -9.3967,7.9795 -24.05199,12.5681 -37.19135,15.4766 0.0372,0.4738 0.0625,0.9496 0.0625,1.4336 0,4.7782 -1.90508,9.0588 -4.95117,12.2324 l -81.89063,-228.4668 z m -203.9766,10.0605 -28.3086,43.0938 -0.5019,-39.9023 -22.0625,46.6328 -6.0235,-39.4473 -15.3887,49.2656 -11.4296,-38.2187 -8.4141,50.9375 -16.6133,-36.252 -1.2754,51.6172 -21.4726,-33.5723 5.8867,51.2911 -25.916,-30.2442 12.9355,49.9727 c 18.0097,-1.0719 33.057,0.9414 46.3203,5.0468 15.4951,-6.8627 32.9496,-14.643 48.4727,-20.371 8.9712,-3.3104 17.2177,-5.9171 24.1621,-7.2032 3.4721,-0.643 6.6911,-1.1106 9.6133,-0.9472 2.8838,0.1612 5.472,0.9566 7.7324,2.7812 2.3987,1.7883 3.7112,4.5865 4.1035,7.3203 0.4005,2.791 0.076,5.6753 -0.6191,8.752 -1.3906,6.1533 -4.3801,13.1417 -8.0977,20.416 -5.969,11.6797 -13.6114,23.4806 -19.9785,32.5332 39.9649,37.0569 83.8108,81.74609 197.0039,81.74609 l 34.6524,19.51563 -29.17,-42.51362 36.295,14.4335 -34.6348,-38.0117 38.6601,9.1641 -39.7031,-32.7871 39.5567,3.6699 -43.8594,-26.9082 39.6777,-1.8945 -47.1582,-20.5235 39.0215,-7.3047 -49.5469,-13.7324 37.6074,-12.582 -50.9668,-6.6699 35.4747,-17.6114 -51.502,0.9473 32.6504,-22.7305 -50.8203,7.7012 28.959,-26.5664 -49.5918,15.3125 25.1484,-30.8906 -46.7402,21.4746 20.1875,-33.4649 -43.8399,28.4903 15.6993,-36.6563 -37.6817,34.2559 10.4668,-38.4961 -34.0019,38.7168 z m -42.6641,136.3965 c 1.6603,0.024 3.0273,0.4427 4.0332,1.3692 5.3649,4.9408 -13.4492,26.5273 -13.4492,26.5273 -8.3042,-5.8525 -13.9822,-9.8348 -23.4023,-14.9258 12.9016,-5.7458 25.6244,-13.0744 32.8183,-12.9707 z" /><path
       style="fill:none;fill-rule:evenodd;stroke:#ffffff;stroke-width:23.0892;stroke-linecap:round;stroke-linejoin:round;stroke-miterlimit:10;stroke-dasharray:none;stroke-dashoffset:2.6;paint-order:fill markers stroke"
       d="m 616.28529,-676.90067 h -879.62185 c -12.4834,0 -22.5335,10.0499 -22.5335,22.5334 v 233.91809 c 0,12.48348 10.0501,22.53336 22.5335,22.53336 h 979.62185 z"
       id="path6"
       sodipodi:nodetypes="csssscc" /><g
       id="g15"
       transform="matrix(-1.2919945,0,0,1.2919945,1234.6876,-732.03237)"><path
         style="fill:#008080;fill-opacity:1;fill-rule:evenodd;stroke:none;stroke-width:0.999996;stroke-linecap:round;stroke-linejoin:round;stroke-miterlimit:10;stroke-dasharray:none"
         d="m 154.27405,127.76844 c -0.006,-0.0606 -0.0238,-0.1271 -0.0293,-0.1875 l 0.0352,0.35547 c -0.006,-0.0549 8e-5,-0.11296 -0.006,-0.16797 z"
         id="path13-5" /><path
         style="fill:#ff0000;fill-rule:evenodd;stroke:none;stroke-width:7.13415;stroke-linecap:round;stroke-linejoin:round;stroke-miterlimit:10"
         d="m 401.2242,201.09997 c 0,3.62419 -2.93796,6.56218 -6.56219,6.56217 -3.62417,1e-5 -6.56212,-2.93798 -6.56212,-6.56217 0,-3.62419 2.93795,-6.56218 6.56218,-6.56217 3.62417,0 6.56213,2.93798 6.56213,6.56217 z"
         id="path11"
         inkscape:export-filename="limace.svg"
         inkscape:export-xdpi="96"
         inkscape:export-ydpi="96" /><path
         id="path9"
         style="fill:#000000;fill-rule:evenodd;stroke:#ffffff;stroke-width:7.13409;stroke-linecap:round;stroke-linejoin:round;stroke-miterlimit:10"
         d="m 313.82433,180.42829 a 9.2216425,9.2216425 0 0 1 -9.22158,9.22165 9.2216425,9.2216425 0 0 1 -9.22177,-9.22165 9.2216425,9.2216425 0 0 1 9.22177,-9.22164 9.2216425,9.2216425 0 0 1 9.22158,9.22164 z" /></g></g></svg>
