<?xml version="1.0" encoding="UTF-8" standalone="no"?>
<!-- Created with Inkscape (http://www.inkscape.org/) -->

<svg
   version="1.1"
   id="svg1"
   width="2007.2886"
   height="302.07401"
   viewBox="0 0 2007.2886 302.07402"
   xml:space="preserve"
   sodipodi:docname="insi-admin.svg"
   inkscape:version="1.4 (e7c3feb100, 2024-10-09)"
   xmlns:inkscape="http://www.inkscape.org/namespaces/inkscape"
   xmlns:sodipodi="http://sodipodi.sourceforge.net/DTD/sodipodi-0.dtd"
   xmlns="http://www.w3.org/2000/svg"
   xmlns:svg="http://www.w3.org/2000/svg"><sodipodi:namedview
     id="namedview1"
     pagecolor="#ffffff"
     bordercolor="#000000"
     borderopacity="0.25"
     inkscape:showpageshadow="2"
     inkscape:pageopacity="0.0"
     inkscape:pagecheckerboard="true"
     inkscape:deskcolor="#d1d1d1"
     inkscape:zoom="0.50330302"
     inkscape:cx="1060.9911"
     inkscape:cy="24.835933"
     inkscape:window-width="1920"
     inkscape:window-height="1052"
     inkscape:window-x="0"
     inkscape:window-y="0"
     inkscape:window-maximized="1"
     inkscape:current-layer="g3" /><defs
     id="defs1"><inkscape:path-effect
       effect="fillet_chamfer"
       id="path-effect49"
       is_visible="true"
       lpeversion="1"
       nodesatellites_param="F,1,0,1,0,0,0,1 @ F,1,1,1,0,0.2,0,1 @ F,1,1,1,0,0.2,0,1 @ F,1,1,1,0,0.2,0,1 @ F,1,1,1,0,0.2,0,1 @ F,0,0,1,0,0,0,1"
       radius="20"
       unit="px"
       method="auto"
       mode="F"
       chamfer_steps="1"
       flexible="true"
       use_knot_distance="true"
       apply_no_radius="true"
       apply_with_radius="true"
       only_selected="true"
       hide_knots="false" /><inkscape:path-effect
       effect="fillet_chamfer"
       id="path-effect48"
       is_visible="true"
       lpeversion="1"
       nodesatellites_param="F,1,0,1,0,0,0,1 @ F,1,0,1,0,0,0,1 @ F,1,0,1,0,0,0,1 @ F,1,0,1,0,0,0,1 @ F,1,1,1,0,0.2,0,1 @ F,0,0,1,0,0,0,1"
       radius="20"
       unit="px"
       method="auto"
       mode="F"
       chamfer_steps="1"
       flexible="true"
       use_knot_distance="true"
       apply_no_radius="true"
       apply_with_radius="true"
       only_selected="true"
       hide_knots="false" /><inkscape:path-effect
       effect="fillet_chamfer"
       id="path-effect47"
       is_visible="true"
       lpeversion="1"
       nodesatellites_param="F,1,0,1,0,0,0,1 @ F,1,1,1,0,0.2,0,1 @ F,1,1,1,0,0.2,0,1 @ F,0,0,1,0,0,0,1"
       radius="20"
       unit="px"
       method="auto"
       mode="F"
       chamfer_steps="1"
       flexible="true"
       use_knot_distance="true"
       apply_no_radius="true"
       apply_with_radius="true"
       only_selected="true"
       hide_knots="false" /><inkscape:path-effect
       effect="offset"
       id="path-effect18"
       is_visible="true"
       lpeversion="1.2"
       linejoin_type="miter"
       unit="px"
       offset="5"
       miter_limit="4"
       attempt_force_join="false"
       update_on_knot_move="true" /><inkscape:path-effect
       effect="offset"
       id="path-effect12"
       is_visible="true"
       lpeversion="1.2"
       linejoin_type="miter"
       unit="px"
       offset="-5"
       miter_limit="4"
       attempt_force_join="false"
       update_on_knot_move="true" /><inkscape:path-effect
       effect="offset"
       id="path-effect9"
       is_visible="true"
       lpeversion="1.2"
       linejoin_type="miter"
       unit="px"
       offset="15"
       miter_limit="4"
       attempt_force_join="false"
       update_on_knot_move="true" /><inkscape:path-effect
       effect="interpolate"
       id="path-effect8"
       is_visible="false"
       lpeversion="1"
       trajectory="m 232.24852,394.18623 8e-5,-53.39071"
       equidistant_spacing="false"
       steps="32" /><inkscape:path-effect
       effect="interpolate"
       id="path-effect2"
       is_visible="true"
       lpeversion="1"
       trajectory="m 232.24852,394.18623 8e-5,-53.39071"
       equidistant_spacing="false"
       steps="9" /><inkscape:path-effect
       effect="fillet_chamfer"
       id="path-effect14"
       is_visible="true"
       lpeversion="1"
       nodesatellites_param="F,0,0,1,0,0,0,1 @ F,0,0,1,0,0,0,1 @ F,0,0,1,0,0,0,1"
       radius="5"
       unit="px"
       method="auto"
       mode="F"
       chamfer_steps="1"
       flexible="false"
       use_knot_distance="true"
       apply_no_radius="true"
       apply_with_radius="true"
       only_selected="true"
       hide_knots="false" /><inkscape:path-effect
       effect="offset"
       id="path-effect13"
       is_visible="true"
       lpeversion="1.2"
       linejoin_type="miter"
       unit="px"
       offset="10"
       miter_limit="4"
       attempt_force_join="false"
       update_on_knot_move="true" /><inkscape:path-effect
       effect="offset"
       id="path-effect7"
       is_visible="true"
       lpeversion="1.2"
       linejoin_type="miter"
       unit="px"
       offset="10"
       miter_limit="4"
       attempt_force_join="false"
       update_on_knot_move="true" /><inkscape:path-effect
       effect="offset"
       id="path-effect6"
       is_visible="true"
       lpeversion="1.2"
       linejoin_type="miter"
       unit="px"
       offset="10"
       miter_limit="4"
       attempt_force_join="false"
       update_on_knot_move="true" /><inkscape:path-effect
       effect="offset"
       id="path-effect4"
       is_visible="true"
       lpeversion="1.2"
       linejoin_type="miter"
       unit="px"
       offset="-15"
       miter_limit="4"
       attempt_force_join="true"
       update_on_knot_move="true" /><inkscape:path-effect
       effect="offset"
       id="path-effect3"
       is_visible="true"
       lpeversion="1.2"
       linejoin_type="miter"
       unit="px"
       offset="-4"
       miter_limit="4"
       attempt_force_join="false"
       update_on_knot_move="true" /><inkscape:path-effect
       effect="offset"
       id="path-effect1"
       is_visible="false"
       lpeversion="1.2"
       linejoin_type="miter"
       unit="px"
       offset="-4"
       miter_limit="4"
       attempt_force_join="false"
       update_on_knot_move="true" /></defs><path
     id="rect2"
     style="fill:none;fill-rule:evenodd;stroke-width:0.462399;stroke-linecap:round;stroke-linejoin:round;stroke-miterlimit:10;stroke-dashoffset:2.6;paint-order:fill markers stroke"
     d="m 595.2142,0 h 1391.2076 c 11.5601,0 20.8668,10.881619 20.8668,24.398248 V 277.67574 c 0,13.51663 -9.3067,24.39825 -20.8668,24.39825 H 475.2142 Z"
     sodipodi:nodetypes="csssscc" /><path
     id="rect1"
     style="fill:none;fill-rule:evenodd;stroke-width:0.499999;stroke-linecap:round;stroke-linejoin:round;stroke-miterlimit:10;stroke-dashoffset:2.6;paint-order:fill markers stroke"
     d="M 24.398245,0 H 611.2142 l -120,302.07399 H 24.398245 C 10.881617,302.07399 0,291.19237 0,277.67574 V 24.398248 C 0,10.881619 10.881617,0 24.398245,0 Z"
     sodipodi:nodetypes="sccssss" /><path
     style="fill:#008080;fill-opacity:1;fill-rule:evenodd;stroke:none;stroke-width:0.999996;stroke-linecap:round;stroke-linejoin:round;stroke-miterlimit:10;stroke-dasharray:none"
     d="m 227.48825,127.7684 c -0.006,-0.0606 -0.0238,-0.1271 -0.0293,-0.1875 l 0.0352,0.35547 c -0.006,-0.0549 8e-5,-0.11296 -0.006,-0.16797 z"
     id="path13" /><g
     id="g3"
     transform="matrix(1.0374581,0,0,1.0374581,-4.9052341,-5.6578101)"><path
       id="text25"
       style="font-size:270.424px;line-height:0;font-family:Facon;-inkscape-font-specification:'Facon, Normal';letter-spacing:0px;word-spacing:0px;fill:#ff7f2a;fill-rule:evenodd;stroke-width:4.05634;stroke-miterlimit:10;stroke-dashoffset:2.6;paint-order:fill markers stroke"
       d="m 748.60418,24.844375 c -1.05634,0.6162 -3.03844,1.715688 -5.94339,3.300208 -2.81692,1.584513 -6.20479,3.477227 -10.16607,5.67794 -3.87326,2.20072 -8.18749,4.622235 -12.94104,7.263095 -4.66552,2.552826 -9.33165,5.061853 -13.99717,7.526659 -6.60215,3.6972 -13.99609,6.468754 -22.18275,8.317354 -8.09864,1.848607 -15.93199,2.773079 -23.50246,2.773079 h -18.08996 l -0.13366,0.263565 h -0.13179 l -42.914,68.267065 c -0.88029,1.2324 -2.20043,2.8607 -3.96101,4.88536 -1.67254,2.02466 -3.609,4.22553 -5.80972,6.6023 -2.20071,2.28875 -4.53284,4.62088 -6.99765,6.99765 -2.4648,2.28874 -4.93007,4.3146 -7.39487,6.07517 z m -58.49634,52.287503 -110.12305,80.810872 -64.7014,47.79937 c 1.58451,-0.79226 4.13729,-2.06865 7.65844,-3.82922 3.43311,-1.8486 7.08726,-3.65192 10.96053,-5.4125 3.87326,-1.8486 7.52554,-3.47878 10.95865,-4.88724 3.52115,-1.40846 6.03017,-2.11229 7.52666,-2.11229 2.4648,0 3.47678,1.32015 3.03664,3.96101 -0.35211,2.55283 -1.93666,6.25074 -4.75358,11.09231 l -29.18039,46.47967 h 53.34364 l 20.07047,-35.25557 h 63.24992 c -0.35212,0.88029 -1.01219,2.46483 -1.98051,4.75358 -0.96831,2.28875 -2.2447,4.88529 -3.82922,7.79023 -1.49648,2.90494 -3.34544,5.89714 -5.54615,8.97814 -2.11269,2.99298 -4.53421,5.58951 -7.2631,7.79023 L 730.646,178.27678 c -4.22538,2.55282 -7.83578,4.35802 -10.82875,5.41437 -2.90495,1.05635 -5.36834,1.58516 -7.393,1.58516 -1.58452,0 -2.90654,-0.26441 -3.96288,-0.79258 -1.05635,-0.6162 -1.93519,-1.40941 -2.63942,-2.37773 -0.70423,-0.96832 -1.23304,-2.06781 -1.58515,-3.30021 -0.35211,-1.32044 -0.61652,-2.68433 -0.79258,-4.09279 v -0.66079 l -0.13178,-0.52901 z m -39.61192,41.065292 4.48814,60.07961 H 616.2965 Z m 72.7552,74.86936 -15.71223,11.48766 v -0.13178 l -47.93303,35.12378 v 0.13179 l -66.8137,49.11907 c 11.00358,-8.09864 20.86279,-14.61185 29.57763,-19.54145 8.71483,-4.84158 16.19816,-8.62699 22.44819,-11.35588 6.25004,-2.64086 11.26809,-4.40231 15.05332,-5.28259 3.78524,-0.88029 6.24862,-1.40722 7.393,-1.58327 h 46.61144 l -3.82922,-27.72891 c 0,-0.70423 -0.0437,-1.27679 -0.13178,-1.71694 -0.35211,-2.55282 -0.17522,-5.14936 0.52901,-7.79022 0.79226,-2.72889 1.848,-5.3273 3.16843,-7.79211 1.40846,-2.4648 2.94925,-4.79693 4.6218,-6.99765 1.76057,-2.20071 3.43263,-4.18093 5.01714,-5.9415 z" /><g
       id="g17"
       transform="matrix(0.76462563,0,0,0.76462563,-519.18824,507.16011)"
       style="stroke-width:1.30783"><path
         style="fill:#2b1100;fill-rule:evenodd;stroke:none;stroke-width:13.0784;stroke-linecap:round;stroke-linejoin:round;stroke-miterlimit:10;stroke-dasharray:none"
         d="m 988.04133,-637.87658 6.22163,48.94502 -42.04195,-47.87125 12.9409,47.59868 -46.58892,-42.35583 19.41033,45.3252 -54.20645,-35.22769 24.96085,41.37705 -57.79117,-26.55292 31.09577,38.19499 -61.31806,-18.93333 35.80586,32.84889 -62.83579,-9.52346 40.36936,28.10575 -63.67828,-1.17081 43.86116,21.77467 -63.01544,8.24733 46.49808,15.55718 -61.26025,16.97784 48.24706,9.032 -58.30947,25.37591 49.06066,2.3437 -54.22917,33.27014 48.90784,-4.53872 -49.08956,40.54075 47.80104,-11.33233 -42.82456,46.99986 44.87711,-17.84511 -36.06605,52.56483 42.84521,-24.13076 c 139.95614,0 194.16899,-55.25561 243.58313,-101.07415 -7.8725,-11.19296 -17.3224,-25.78359 -24.70272,-40.22482 -4.59657,-8.99425 -8.29345,-17.63354 -10.01284,-25.2417 -0.85965,-3.80408 -1.26129,-7.37149 -0.76609,-10.82229 0.48508,-3.38016 2.10971,-6.83948 5.0756,-9.05058 2.79489,-2.25607 5.9929,-3.23876 9.55855,-3.43811 3.6131,-0.20202 7.5947,0.37575 11.8878,1.17081 8.5863,1.59014 18.7832,4.81296 29.8755,8.90604 19.1933,7.08242 40.7738,16.70056 59.9325,25.18595 16.3993,-5.07614 35.0028,-7.56346 57.2707,-6.23815 l 15.995,-61.78888 -32.0436,37.39586 7.2789,-63.42017 -26.5489,41.51128 -1.5776,-63.82077 -20.5419,44.82135 -10.4031,-62.98033 -14.1324,47.2559 -19.0262,-60.91334 -7.4482,48.77362 -27.2797,-57.65902 -0.6196,49.33736 z"
         id="path23-8" /><path
         style="fill:#ff0000;fill-rule:evenodd;stroke:none;stroke-width:13.0785;stroke-linecap:round;stroke-linejoin:round;stroke-miterlimit:10"
         d="m 1290.8787,-382.9572 c 0,5.78954 -4.6933,10.48289 -10.4829,10.48287 -5.7895,1e-5 -10.4828,-4.69333 -10.4828,-10.48287 0,-5.78954 4.6933,-10.48289 10.4829,-10.48287 5.7895,-1e-5 10.4828,4.69334 10.4828,10.48287 z"
         id="path11"
         inkscape:export-filename="limace.svg"
         inkscape:export-xdpi="96"
         inkscape:export-ydpi="96" /><path
         id="path7"
         style="fill:#ff6600;fill-opacity:1;fill-rule:evenodd;stroke:none;stroke-width:1.30783;stroke-linecap:round;stroke-linejoin:round;stroke-miterlimit:10;stroke-dasharray:none"
         d="m 997.3022,-494.02569 c 1.0124,11.13708 8.606,26.03134 16.9634,39.8564 1.2705,2.10226 5.8728,10.51261 16.0752,23.91474 l 6.3749,8.37372 -7.8395,7.02039 c -37.8698,33.91159 -96.91532,101.70682 -246.92013,103.89465 l -1.50246,-0.0156 c 0.10312,0.31558 0.207,0.63091 0.31162,0.946 104.19073,23.55616 366.87067,34.32271 484.38467,-57.19368 -4.0954,-3.96879 -6.6353,-9.53316 -6.6353,-15.72799 0,-0.59837 0.032,-1.18822 0.078,-1.77402 -16.246,-3.5962 -34.3657,-9.26969 -45.9842,-19.1358 -22.919,-19.46211 -31.1597,-45.30454 -41.4413,-54.62504 -1.9244,-5.08861 -3.7764,-9.08962 -5.6158,-12.76091 l -7.2296,-0.49637 c -18.7227,-1.28591 -36.2866,1.09799 -53.1026,5.84736 l -4.3004,1.21532 -3.9798,-2.03221 c -41.6569,-21.26935 -60.0807,-25.84679 -60.0807,-25.84679 -7.2489,-2.50274 -14.1828,-4.58159 -20.4446,-5.98982 -3.4585,-0.77776 -6.596,-1.1753 -9.3486,-1.6182 -8.48589,-1.36542 -10.39164,0.67587 -9.7628,6.14785 z m 43.4913,24.79395 c 8.8949,-0.12826 24.6255,8.93305 40.5775,16.03739 -11.6474,6.29462 -18.6686,11.22069 -28.9363,18.4569 0,0 -23.2605,-26.69132 -16.6272,-32.8004 1.2438,-1.14546 2.9332,-1.66429 4.986,-1.69389 z"
         sodipodi:nodetypes="cccccccccscscccccccsscsccss"
         inkscape:export-filename="limace.svg"
         inkscape:export-xdpi="96"
         inkscape:export-ydpi="96" /><path
         id="path9"
         style="fill:#000000;fill-rule:evenodd;stroke:#ffffff;stroke-width:13.0784;stroke-linecap:round;stroke-linejoin:round;stroke-miterlimit:10"
         d="m 1151.26,-415.9796 a 14.731301,14.731301 0 0 1 -14.7312,14.73131 14.731301,14.731301 0 0 1 -14.7315,-14.73131 14.731301,14.731301 0 0 1 14.7315,-14.73129 14.731301,14.731301 0 0 1 14.7312,14.73129 z" /></g><path
       id="path44"
       style="font-size:270.424px;line-height:0;font-family:Facon;-inkscape-font-specification:'Facon, Normal';letter-spacing:0px;word-spacing:0px;fill:#ff6600;fill-rule:evenodd;stroke-width:4.05634;stroke-miterlimit:10;stroke-dashoffset:2.6;paint-order:fill markers stroke"
       d="m 1814.9817,109.87932 96.3913,-70.775038 q -1.1884,1.18839 -5.2817,5.80989 -4.0933,4.62151 -9.243,10.56344 -5.1497,5.94194 -10.2993,12.14796 -5.1497,6.20602 -8.1867,10.56343 -4.7536,6.73419 -7.3944,13.33634 -2.6409,6.60215 -3.6972,10.431398 l -15.8452,63.77676 -87.0163,63.90879 q 0.7923,-0.79225 3.8292,-4.09333 3.037,-3.43311 6.7342,-7.79053 3.8293,-4.35742 7.5265,-8.84688 3.8292,-4.62151 6.074,-7.79054 3.301,-4.6215 5.1496,-9.37505 1.9807,-4.75355 2.905,-7.52645 z m 33.6709,67.20987 v 0.13204 l 27.2009,-19.93849 q -5.4138,5.8099 -10.2994,11.22366 -2.9049,3.16903 -4.8856,5.41376 -1.8486,2.24473 -3.6972,4.48946 -1.8486,2.24473 -3.6972,4.48946 -1.7165,2.24473 -2.9049,3.96129 -2.5088,3.56516 -4.2254,7.26236 -1.7166,3.56516 -2.7729,6.60215 -1.3204,3.43312 -1.9806,6.60215 h -0.2641 l -10.8276,44.36644 h -50.4404 l 7.2624,-29.31354 z m 24.2959,-119.102758 -90.4494,66.417608 q 1.0563,-1.18838 5.1497,-5.80989 4.2253,-4.6215 9.375,-10.43139 5.1497,-5.94194 10.2994,-12.147958 5.1496,-6.33806 8.3187,-10.69548 3.169,-4.75354 5.4137,-9.50709 2.3768,-4.75355 3.6972,-8.71484 1.7166,-4.48946 2.7729,-8.71483 h 0.1321 l 0.132,-0.39613 z" /><path
       id="path40"
       style="font-size:270.424px;line-height:0;font-family:Facon;-inkscape-font-specification:'Facon, Normal';letter-spacing:0px;word-spacing:0px;fill:#ff6600;fill-rule:evenodd;stroke-width:4.05634;stroke-miterlimit:10;stroke-dashoffset:2.6;paint-order:fill markers stroke"
       d="m 1619.4267,171.01521 -62.7204,46.083 q -3.5651,-12.94021 0.2641,-28.65332 l 0.2641,-0.9243 h 14.6568 v -0.13205 q 7.3944,-0.13204 15.317,-1.98064 7.3944,-1.58452 15.581,-4.75355 8.1867,-3.30107 16.6374,-9.63914 z m -10.1673,-9.243 q -35.1234,-18.75011 -26.9367,-51.62881 3.5651,-14.524718 13.2043,-24.824078 9.6391,-10.43139 22.4473,-17.03354 12.8081,-6.60215 27.3329,-9.63914 14.6567,-3.16903 28.1251,-3.16903 8.5828,0 17.4297,1.45247 8.8469,1.32043 16.7694,4.62151 8.0547,3.30107 14.5248,8.97892 6.4701,5.54581 10.2993,13.99656 0.3962,0.66021 0.6602,1.45247 0.2641,0.66021 0.3962,1.32043 l -58.4951,43.046008 q 3.5652,-3.16903 5.5458,-6.47011 2.1127,-3.30107 3.037,-6.4701 l 0.3962,-1.58452 q 2.9049,-11.09161 -2.6409,-16.901498 -5.6779,-6.07398 -17.6938,-6.07398 -4.4894,0 -9.5071,1.05635 -5.0176,0.9243 -9.5071,3.16903 -4.3574,2.11269 -7.6584,5.677848 -3.3011,3.43311 -4.6216,8.45075 -1.5845,6.60215 4.4895,12.01591 6.7342,5.80989 25.3523,12.01591 1.1883,0.39613 2.1126,0.79226 1.0564,0.26408 1.9807,0.66021 l -43.046,31.55827 q -4.0933,-1.58451 -7.5265,-3.16903 -3.4331,-1.71656 -6.4701,-3.30107 z m 95.9953,-44.36644 58.495,-42.913968 q -0.7923,0.9243 -3.5652,3.96129 -2.6408,3.03699 -5.9419,6.86623 -3.3011,3.69721 -6.6021,7.79054 -3.3011,3.96129 -5.2818,6.73419 -2.1126,3.036988 -3.6972,6.206018 -1.4524,3.03699 -2.3767,5.54581 -1.0564,2.90494 -1.7166,5.67784 h -0.5282 v 0.13205 z m -12.28,31.69031 q 28.6533,18.48602 20.5987,50.7045 -3.6972,15.0529 -12.6761,25.61634 -8.979,10.43139 -21.1269,16.9015 -12.0159,6.47011 -26.1445,9.37505 -14.1286,2.90495 -28.2572,2.90495 -6.8663,0 -14.3927,-0.9243 -7.5265,-0.79226 -14.9209,-2.77291 -7.3944,-1.98064 -14.1286,-5.28172 -6.7342,-3.30107 -12.1479,-8.05462 -1.5845,-0.79225 -3.9613,-0.79225 -3.4331,0 -8.1867,1.45247 -4.7535,1.32043 -10.1673,3.6972 -5.2817,2.24473 -11.0916,5.14968 -5.8099,2.90494 -11.2236,6.07397 -12.9403,7.13032 -27.0689,16.24129 l 109.3316,-80.15009 q -3.5651,14.92086 2.3768,21.65505 6.206,6.99828 24.1639,6.99828 4.7535,0 9.375,-0.9243 4.6215,-1.05634 8.5828,-3.16903 4.0933,-2.11269 6.9983,-5.54581 3.037,-3.43311 4.2254,-8.45075 2.3767,-9.50709 -3.1691,-14.78881 -5.8099,-5.54581 -22.8434,-11.48774 -2.905,-0.9243 -5.5458,-1.98064 l 43.046,-31.69032 q 5.5458,2.24473 10.0353,4.62151 4.6215,2.24473 8.3187,4.6215 z" /><path
       id="path37"
       style="font-size:270.424px;line-height:0;font-family:Facon;-inkscape-font-specification:'Facon, Normal';letter-spacing:0px;word-spacing:0px;fill:#ff6600;fill-rule:evenodd;stroke-width:4.05634;stroke-miterlimit:10;stroke-dashoffset:2.6;paint-order:fill markers stroke"
       d="m 1467.1812,114.50082 119.4989,-87.544488 q -14.9209,11.48774 -28.1252,24.95612 -7.7905,7.65849 -12.9402,13.73247 -5.1496,6.07398 -10.1673,13.2043 -5.0176,6.99828 -9.5071,14.92085 -4.3574,7.790538 -7.2623,16.109248 l -35.2555,142.60641 h -49.5161 q -7.5265,-21.65505 -13.3364,-38.68859 -3.5651,-10.29935 -5.6778,-16.24129 -2.1127,-6.07397 -3.8293,-11.09161 -1.7165,-5.01763 -2.9049,-8.31871 -1.1884,-3.30107 -1.1884,-3.43311 -1.7165,-5.14968 -5.2817,-5.14968 -2.5088,0 -5.8099,2.50882 -6.9983,5.01763 -10.2993,8.97892 -3.1691,3.82925 -4.4895,7.52645 l -15.8452,63.9088 h -39.6129 q -14.1286,0.39613 -26.9367,3.43312 -12.9402,3.03698 -23.1075,6.60215 -10.1674,3.6972 -16.7695,6.99827 -6.7342,3.30108 -8.3187,4.22538 l 188.4253,-138.38104 13.4684,39.21676 z m 63.5127,-55.986218 -85.1677,62.588368 q 4.7535,-4.6215 9.9032,-11.75182 5.2817,-7.26237 10.0353,-15.449028 4.7535,-8.18667 8.5827,-16.37333 3.8293,-8.18667 5.942,-14.65677 l 1.0563,-4.35742 z m -143.5307,105.502338 -61.7961,45.29074 37.3681,-150.793078 h 49.7802 l 23.7678,69.322558 -36.1798,26.67268 -6.206,-17.95784 z" /><path
       id="path34"
       style="font-size:270.424px;line-height:0;font-family:Facon;-inkscape-font-specification:'Facon, Normal';letter-spacing:0px;word-spacing:0px;fill:#ff6600;fill-rule:evenodd;stroke-width:4.05634;stroke-miterlimit:10;stroke-dashoffset:2.6;paint-order:fill markers stroke"
       d="m 1240.8595,109.87932 96.3914,-70.775038 q -1.1884,1.18839 -5.2817,5.80989 -4.0934,4.62151 -9.243,10.56344 -5.1497,5.94194 -10.2994,12.14796 -5.1497,6.20602 -8.1867,10.56343 -4.7535,6.73419 -7.3944,13.33634 -2.6408,6.60215 -3.6972,10.431398 l -15.8451,63.77676 -87.0163,63.90879 q 0.7922,-0.79225 3.8292,-4.09333 3.037,-3.43311 6.7342,-7.79053 3.8292,-4.35742 7.5264,-8.84688 3.8293,-4.62151 6.074,-7.79054 3.3011,-4.6215 5.1497,-9.37505 1.9806,-4.75355 2.9049,-7.52645 z m 33.671,67.20987 v 0.13204 l 27.2008,-19.93849 q -5.4137,5.8099 -10.2993,11.22366 -2.905,3.16903 -4.8856,5.41376 -1.8486,2.24473 -3.6972,4.48946 -1.8486,2.24473 -3.6972,4.48946 -1.7166,2.24473 -2.905,3.96129 -2.5088,3.56516 -4.2253,7.26236 -1.7166,3.56516 -2.7729,6.60215 -1.3205,3.43312 -1.9807,6.60215 h -0.2641 l -10.8275,44.36644 h -50.4404 l 7.2623,-29.31354 z m 24.2959,-119.102758 -90.4495,66.417608 q 1.0564,-1.18838 5.1497,-5.80989 4.2254,-4.6215 9.3751,-10.43139 5.1496,-5.94194 10.2993,-12.147958 5.1497,-6.33806 8.3187,-10.69548 3.1691,-4.75354 5.4138,-9.50709 2.3768,-4.75355 3.6972,-8.71484 1.7166,-4.48946 2.7729,-8.71483 h 0.132 l 0.1321,-0.39613 z" /><path
       id="path31"
       style="font-size:270.424px;line-height:0;font-family:Facon;-inkscape-font-specification:'Facon, Normal';letter-spacing:0px;word-spacing:0px;fill:#ff7f2a;fill-rule:evenodd;stroke-width:4.05634;stroke-miterlimit:10;stroke-dashoffset:2.6;paint-order:fill markers stroke"
       d="M 1057.1877,69.342122 928.97401,163.48876 q 1.98065,-1.98064 6.20602,-6.20602 4.22538,-4.22537 9.5071,-9.77118 5.28172,-5.5458 11.09161,-11.88386 5.80989,-6.47011 10.82752,-12.94021 5.01763,-6.47011 8.84688,-12.28 3.82925,-5.94193 5.28172,-10.563438 l 10.29935,-41.98966 h 65.22919 z m 63.5127,182.483388 81.2064,-59.68342 q -6.4701,6.99828 -12.412,13.60043 -3.4331,3.82924 -5.8099,6.4701 -2.2447,2.64086 -4.4895,5.41376 -2.2447,2.64086 -4.3574,5.28172 -2.1127,2.64086 -3.5651,4.75355 -2.905,4.22538 -5.0177,8.58279 -1.9806,4.22538 -3.301,7.6585 -1.4525,4.09333 -2.3768,7.92257 v -0.52817 l -0.1321,0.52817 z m 24.9561,-128.34577 -76.981,128.34577 h -33.5389 L 1021.4041,122.55544 993.67507,251.82551 H 943.10261 L 970.17142,142.62597 1110.4011,39.500412 q -1.3205,1.18839 -5.6779,5.14968 -4.3574,3.82924 -10.1673,9.50709 -5.6778,5.67785 -11.8839,12.54408 -6.206,6.86624 -11.3557,13.99656 -5.1496,7.13032 -8.3187,14.1286 -3.037,6.866228 -2.5088,12.412038 0,0 0.2641,3.56516 0.3961,3.56516 0.9243,9.24301 0.5282,5.67784 1.0563,12.94021 0.6603,7.26236 1.3205,14.78881 1.5845,17.8258 3.4331,40.40515 l 75.5286,-130.326408 h 65.4933 l -35.9157,144.719088 -79.3578,58.363 q 5.2817,-5.67785 9.7712,-11.09161 2.6408,-3.16903 4.2253,-5.28172 1.7166,-2.24473 3.1691,-4.6215 1.5845,-2.37678 2.7729,-4.62151 1.1883,-2.24473 1.7165,-4.22537 z" /><path
       id="path28"
       style="font-size:270.424px;line-height:0;font-family:Facon;-inkscape-font-specification:'Facon, Normal';letter-spacing:0px;word-spacing:0px;fill:#ff7f2a;fill-rule:evenodd;stroke-width:4.05634;stroke-miterlimit:10;stroke-dashoffset:2.6;paint-order:fill markers stroke"
       d="m 808.02265,251.69347 128.7419,-94.54277 q -0.92431,1.05635 -4.22538,4.75355 -3.16903,3.56516 -7.39441,8.58279 -4.22537,5.01764 -8.84688,11.09161 -4.6215,5.94194 -8.58279,11.75183 -8.05462,13.20429 -18.88214,23.89978 -10.69548,10.56343 -23.50365,18.22193 -12.80817,7.52645 -27.3329,11.75182 -14.39268,4.22538 -29.97375,4.48946 z m 13.33634,-122.79996 -106.03051,77.90535 q 2.7729,-2.37677 7.3944,-6.73419 4.48947,-4.48946 10.03527,-10.16731 5.41376,-5.67785 11.22365,-12.41204 5.80989,-6.86623 10.95957,-13.99656 5.14968,-7.13032 8.97892,-14.39268 3.96129,-7.26236 5.54581,-13.99655 l 19.01419,-76.320838 h 64.70105 q 13.33634,0 25.22021,3.30107 12.01591,3.30107 21.12688,9.24301 l -59.15526,43.574178 q 1.32043,-1.32043 3.96129,-3.82925 2.64086,-2.64086 5.01764,-5.41376 2.37677,-2.7729 3.56516,-5.14967 1.32043,-2.376778 -0.13205,-3.169038 -3.96129,-0.79225 -8.45075,-0.79225 h -15.0529 z m -53.34537,142.73845 q 2.11269,-1.71656 5.54581,-5.01763 3.43312,-3.16903 6.20602,-6.47011 2.90494,-3.16903 3.96129,-5.67785 1.18839,-2.50881 -1.45247,-2.7729 h -41.59354 l 16.37333,-66.28557 61.53202,-45.1587 -18.22193,73.54794 h 14.92086 q 12.14795,0 21.25892,-4.62151 9.24301,-4.6215 15.84516,-12.27999 6.73419,-7.6585 11.09161,-17.56172 4.48946,-9.90322 6.99827,-20.46666 l 1.98065,-8.18666 q 6.86623,-27.20086 -0.52817,-40.80128 -1.84861,-3.43312 -4.35742,-5.67785 l 72.62363,-53.213318 q -7.79053,7.52645 -13.73247,14.39268 -3.43311,4.09334 -5.41376,6.86624 -1.98064,2.64086 -3.43312,5.41376 -1.32043,2.7729 -1.98064,5.28172 -0.66021,2.37677 0,4.22538 4.88559,7.13032 7.65849,16.109238 6.86624,21.25892 0.39613,47.53547 l -1.98064,8.18666 z" /></g></svg>
