<?xml version="1.0" encoding="UTF-8" standalone="no"?>
<!-- Created with Inkscape (http://www.inkscape.org/) -->

<svg
   version="1.1"
   id="svg1"
   width="512"
   height="512"
   viewBox="0 0 512.00001 512.00002"
   xml:space="preserve"
   sodipodi:docname="insi-outline.svg"
   inkscape:version="1.4.1 (93de688d07, 2025-03-30)"
   xmlns:inkscape="http://www.inkscape.org/namespaces/inkscape"
   xmlns:sodipodi="http://sodipodi.sourceforge.net/DTD/sodipodi-0.dtd"
   xmlns="http://www.w3.org/2000/svg"
   xmlns:svg="http://www.w3.org/2000/svg"><sodipodi:namedview
     id="namedview1"
     pagecolor="#ffffff"
     bordercolor="#000000"
     borderopacity="0.25"
     inkscape:showpageshadow="2"
     inkscape:pageopacity="0.0"
     inkscape:pagecheckerboard="0"
     inkscape:deskcolor="#d1d1d1"
     inkscape:zoom="0.88616273"
     inkscape:cx="274.216"
     inkscape:cy="258.98178"
     inkscape:window-width="1920"
     inkscape:window-height="1052"
     inkscape:window-x="0"
     inkscape:window-y="0"
     inkscape:window-maximized="1"
     inkscape:current-layer="g15" /><defs
     id="defs1"><inkscape:path-effect
       effect="offset"
       id="path-effect15"
       is_visible="true"
       lpeversion="1.3"
       linejoin_type="miter"
       unit="px"
       offset="-5"
       miter_limit="4"
       attempt_force_join="false"
       update_on_knot_move="true" /><inkscape:path-effect
       effect="offset"
       id="path-effect11"
       is_visible="true"
       lpeversion="1.3"
       linejoin_type="miter"
       unit="px"
       offset="-5"
       miter_limit="4"
       attempt_force_join="false"
       update_on_knot_move="true" /><inkscape:path-effect
       effect="offset"
       id="path-effect10"
       is_visible="true"
       lpeversion="1.3"
       linejoin_type="miter"
       unit="px"
       offset="-5"
       miter_limit="4"
       attempt_force_join="false"
       update_on_knot_move="true" /><inkscape:path-effect
       effect="offset"
       id="path-effect5"
       is_visible="true"
       lpeversion="1.3"
       linejoin_type="miter"
       unit="px"
       offset="-5"
       miter_limit="4"
       attempt_force_join="false"
       update_on_knot_move="true" /><inkscape:path-effect
       effect="offset"
       id="path-effect18"
       is_visible="true"
       lpeversion="1.2"
       linejoin_type="miter"
       unit="px"
       offset="5"
       miter_limit="4"
       attempt_force_join="false"
       update_on_knot_move="true" /><inkscape:path-effect
       effect="offset"
       id="path-effect12"
       is_visible="true"
       lpeversion="1.2"
       linejoin_type="miter"
       unit="px"
       offset="-5"
       miter_limit="4"
       attempt_force_join="false"
       update_on_knot_move="true" /><inkscape:path-effect
       effect="offset"
       id="path-effect9"
       is_visible="true"
       lpeversion="1.2"
       linejoin_type="miter"
       unit="px"
       offset="15"
       miter_limit="4"
       attempt_force_join="false"
       update_on_knot_move="true" /><inkscape:path-effect
       effect="interpolate"
       id="path-effect8"
       is_visible="false"
       lpeversion="1"
       trajectory="m 232.24852,394.18623 8e-5,-53.39071"
       equidistant_spacing="false"
       steps="32" /><inkscape:path-effect
       effect="interpolate"
       id="path-effect2"
       is_visible="true"
       lpeversion="1"
       trajectory="m 232.24852,394.18623 8e-5,-53.39071"
       equidistant_spacing="false"
       steps="9" /><inkscape:path-effect
       effect="fillet_chamfer"
       id="path-effect14"
       is_visible="true"
       lpeversion="1"
       nodesatellites_param="F,0,0,1,0,0,0,1 @ F,0,0,1,0,0,0,1 @ F,0,0,1,0,0,0,1"
       radius="5"
       unit="px"
       method="auto"
       mode="F"
       chamfer_steps="1"
       flexible="false"
       use_knot_distance="true"
       apply_no_radius="true"
       apply_with_radius="true"
       only_selected="true"
       hide_knots="false" /><inkscape:path-effect
       effect="offset"
       id="path-effect13"
       is_visible="true"
       lpeversion="1.2"
       linejoin_type="miter"
       unit="px"
       offset="10"
       miter_limit="4"
       attempt_force_join="false"
       update_on_knot_move="true" /><inkscape:path-effect
       effect="offset"
       id="path-effect7"
       is_visible="true"
       lpeversion="1.2"
       linejoin_type="miter"
       unit="px"
       offset="10"
       miter_limit="4"
       attempt_force_join="false"
       update_on_knot_move="true" /><inkscape:path-effect
       effect="offset"
       id="path-effect6"
       is_visible="true"
       lpeversion="1.2"
       linejoin_type="miter"
       unit="px"
       offset="10"
       miter_limit="4"
       attempt_force_join="false"
       update_on_knot_move="true" /><inkscape:path-effect
       effect="offset"
       id="path-effect4"
       is_visible="true"
       lpeversion="1.2"
       linejoin_type="miter"
       unit="px"
       offset="-15"
       miter_limit="4"
       attempt_force_join="true"
       update_on_knot_move="true" /><inkscape:path-effect
       effect="offset"
       id="path-effect3"
       is_visible="true"
       lpeversion="1.2"
       linejoin_type="miter"
       unit="px"
       offset="-4"
       miter_limit="4"
       attempt_force_join="false"
       update_on_knot_move="true" /><inkscape:path-effect
       effect="offset"
       id="path-effect1"
       is_visible="false"
       lpeversion="1.2"
       linejoin_type="miter"
       unit="px"
       offset="-4"
       miter_limit="4"
       attempt_force_join="false"
       update_on_knot_move="true" /></defs><rect
     style="fill:none;fill-opacity:1;fill-rule:evenodd;stroke:none;stroke-width:7.16472;stroke-linecap:round;stroke-linejoin:round;stroke-miterlimit:10;stroke-dasharray:none;stroke-opacity:1"
     id="rect1"
     width="366.83499"
     height="366.83499"
     x="47.149284"
     y="93.728165"
     rx="49.999996"
     ry="49.999996" /><rect
     style="fill:none;fill-opacity:1;fill-rule:evenodd;stroke:none;stroke-width:9.99996;stroke-linecap:round;stroke-linejoin:round;stroke-miterlimit:10;stroke-dasharray:none;stroke-opacity:1"
     id="rect45"
     width="512"
     height="512"
     x="0"
     y="0"
     rx="50"
     ry="50" /><g
     id="g17"
     transform="matrix(0.87746634,0,0,0.87746634,-626.70262,611.15192)"
     style="stroke-width:1.13964"><circle
       style="fill:none;fill-opacity:0.601825;fill-rule:evenodd;stroke:none;stroke-width:1.13964;stroke-linecap:round;stroke-linejoin:round;stroke-miterlimit:10;stroke-dasharray:none"
       id="circle9"
       cx="976.98267"
       cy="-380.6485"
       r="209.03061" /><path
       style="fill:#ff0000;fill-rule:evenodd;stroke:none;stroke-width:11.3966;stroke-linecap:round;stroke-linejoin:round;stroke-miterlimit:10"
       d="m 1290.8787,-337.3714 c 0,5.78954 -4.6933,10.48289 -10.4829,10.48287 -5.7895,10e-6 -10.4828,-4.69333 -10.4828,-10.48287 0,-5.78954 4.6933,-10.48289 10.4829,-10.48287 5.7895,-1e-5 10.4828,4.69334 10.4828,10.48287 z"
       id="path11"
       inkscape:export-filename="limace.svg"
       inkscape:export-xdpi="96"
       inkscape:export-ydpi="96" /><g
       id="g15"><path
         style="fill:#008080;fill-opacity:1;fill-rule:evenodd;stroke:#ff6600;stroke-width:0.999996;stroke-linecap:round;stroke-linejoin:round;stroke-miterlimit:10;stroke-dasharray:none"
         d="m 233.48828,219.20509 c -0.006,-0.0606 -0.0238,-0.1271 -0.0293,-0.1875 l 0.0352,0.35547 c -0.006,-0.0549 8e-5,-0.11296 -0.006,-0.16797 z"
         id="path13"
         transform="matrix(1.1396449,0,0,1.1396449,714.21842,-696.49614)" /><path
         style="fill:none;fill-rule:evenodd;stroke:#ff6600;stroke-width:17.09467283;stroke-linecap:round;stroke-linejoin:round;stroke-miterlimit:10;stroke-dasharray:none"
         d="m 964.19531,-614.51758 11.61133,42.70313 -41.6543,-37.86719 16.47461,38.47266 -49.12695,-31.92579 21.70312,35.97657 -52.32617,-24.04102 27.4961,33.77149 -55.10547,-17.01368 30.91406,28.36329 -57.11328,-8.65625 35.68164,24.84179 -57.0918,-1.05078 37.92383,18.82813 -57.04883,7.46679 40.71875,13.62305 -55.51953,15.38672 42.31836,7.92187 -52.92187,23.03321 43.10742,2.05664 -49.12891,30.14258 42.95899,-3.98829 -44.47266,36.72852 41.93164,-9.94141 -38.60547,42.36914 39.30664,-15.63086 -32.77344,47.76563 22.74024,-12.80664 h 1.49609 c 69.22686,0 116.6956,-13.59462 153.0918,-32.70117 34.62079,-18.17454 59.31917,-41.46724 82.97655,-63.47461 -7.3213,-10.67071 -15.60917,-23.78396 -22.26952,-36.81641 -4.63261,-9.06477 -8.62726,-18.29534 -10.5,-26.58203 -0.93725,-4.14746 -1.47804,-8.49778 -0.84766,-12.89062 0.64593,-4.50096 2.89228,-9.46498 7.20508,-12.73438 0.0156,-0.0119 0.0312,-0.0234 0.0469,-0.0352 3.91021,-3.11448 8.19907,-4.35506 12.7129,-4.60742 4.3141,-0.24122 8.9576,0.46361 13.2461,1.25781 9.0763,1.6809 19.6546,5.04486 30.8125,9.16211 18.7362,6.91378 39.729,16.22426 58.3339,24.4668 15.3863,-4.51668 32.5526,-6.82569 52.5313,-6.08789 l -19.4844,-0.5957 6.5918,-57.43164 -23.3105,36.44726 -1.4297,-57.79492 -18.0332,39.34961 -9.4199,-57.0332 -12.4063,41.48437 -17.2324,-55.16406 -6.5371,42.81641 -24.7071,-52.22266 -0.5449,43.31055 -31.70113,-48.25782 5.46283,42.9668 z"
         id="path23-8"
         transform="translate(0,45.585794)"
         sodipodi:nodetypes="ccccccccccccccccccccccccccccsscsssscssccccccccccccccccc" /><path
         style="fill:none;fill-opacity:1;fill-rule:evenodd;stroke:#ff6600;stroke-width:17.09467283;stroke-linecap:round;stroke-linejoin:round;stroke-miterlimit:10;stroke-dasharray:none"
         d="m 1002.9531,-494.87109 c 0.01,0.0625 0.014,0.12711 0.022,0.19336 l 0.01,0.0684 0.01,0.0664 c 0.4105,4.51566 2.3259,10.58212 5.25,17.10156 2.9241,6.51945 6.8069,13.52747 10.9121,20.31836 1.6016,2.65008 5.7243,10.26775 15.7305,23.41211 l 9.5683,12.56641 -11.7637,10.53516 c -33.66631,30.14749 -86.0496,89.40463 -207.0605,102.71093 65.58243,9.08211 159.49266,12.88228 247.5293,1.46094 71.0307,-9.2151 138.2466,-28.42639 183.8711,-61.81055 -2.2148,-3.51877 -3.6501,-7.57191 -4.082,-11.92773 -15.3036,-3.67893 -32.3438,-9.41684 -44.0293,-19.33984 -19.1181,-16.23447 -28.9664,-37.34851 -36.42,-48.39063 -1.8951,-2.80757 -3.6569,-4.9947 -5.1601,-6.35742 l -1.0195,-0.92383 -0.4864,-1.28516 c -1.3535,-3.57903 -2.6566,-6.56725 -3.959,-9.31054 l -3.9394,-0.27149 c -17.9968,-1.23605 -34.8639,1.0439 -51.1602,5.64649 l -6.4531,1.82617 -5.9746,-3.05469 c -24.8053,-12.66518 -41.2202,-19.31929 -50.2715,-22.58789 -2.4137,-0.87163 -4.3035,-1.50342 -5.6894,-1.94336 -2.0789,-0.6599 -2.0865,-0.65712 -2.9004,-0.85937 l -0.2461,-0.0606 -0.2403,-0.082 c -7.1086,-2.45433 -13.8627,-4.47395 -19.832,-5.81641 -3.1444,-0.70713 -6.1096,-1.08703 -9.0039,-1.55273 -1.3557,-0.21814 -2.4406,-0.31318 -3.2051,-0.33203 z"
         id="path7"
         transform="translate(0,45.585794)" /><path
         id="path9"
         style="fill:none;fill-rule:evenodd;stroke:#ff6600;stroke-width:17.09467283;stroke-linecap:round;stroke-linejoin:round;stroke-miterlimit:10;stroke-dasharray:none"
         d="m 1151.26,-370.3938 a 14.731301,14.731301 0 0 1 -14.7312,14.73131 14.731301,14.731301 0 0 1 -14.7315,-14.73131 14.731301,14.731301 0 0 1 14.7315,-14.73129 14.731301,14.731301 0 0 1 14.7312,14.73129 z" /></g></g></svg>
