<?xml version="1.0" encoding="UTF-8" standalone="no"?>
<!-- Created with Inkscape (http://www.inkscape.org/) -->

<svg
   version="1.1"
   id="svg1"
   width="1520.2389"
   height="302.07401"
   viewBox="0 0 1520.2389 302.07402"
   xml:space="preserve"
   sodipodi:docname="insi-brand-ar.svg"
   inkscape:version="1.4 (e7c3feb100, 2024-10-09)"
   xmlns:inkscape="http://www.inkscape.org/namespaces/inkscape"
   xmlns:sodipodi="http://sodipodi.sourceforge.net/DTD/sodipodi-0.dtd"
   xmlns="http://www.w3.org/2000/svg"
   xmlns:svg="http://www.w3.org/2000/svg"><sodipodi:namedview
     id="namedview1"
     pagecolor="#ffffff"
     bordercolor="#000000"
     borderopacity="0.25"
     inkscape:showpageshadow="2"
     inkscape:pageopacity="0.0"
     inkscape:pagecheckerboard="true"
     inkscape:deskcolor="#d1d1d1"
     inkscape:zoom="0.41397336"
     inkscape:cx="712.60624"
     inkscape:cy="474.66823"
     inkscape:window-width="1920"
     inkscape:window-height="1052"
     inkscape:window-x="0"
     inkscape:window-y="0"
     inkscape:window-maximized="1"
     inkscape:current-layer="g41" /><defs
     id="defs1"><inkscape:path-effect
       effect="offset"
       id="path-effect27"
       is_visible="true"
       lpeversion="1.3"
       linejoin_type="round"
       unit="px"
       offset="10"
       miter_limit="4"
       attempt_force_join="false"
       update_on_knot_move="true" /><inkscape:path-effect
       effect="offset"
       id="path-effect25"
       is_visible="true"
       lpeversion="1.3"
       linejoin_type="round"
       unit="px"
       offset="6"
       miter_limit="4"
       attempt_force_join="false"
       update_on_knot_move="true" /><inkscape:path-effect
       effect="fillet_chamfer"
       id="path-effect49"
       is_visible="true"
       lpeversion="1"
       nodesatellites_param="F,1,0,1,0,0,0,1 @ F,1,1,1,0,0.2,0,1 @ F,1,1,1,0,0.2,0,1 @ F,1,1,1,0,0.2,0,1 @ F,1,1,1,0,0.2,0,1 @ F,0,0,1,0,0,0,1"
       radius="20"
       unit="px"
       method="auto"
       mode="F"
       chamfer_steps="1"
       flexible="true"
       use_knot_distance="true"
       apply_no_radius="true"
       apply_with_radius="true"
       only_selected="true"
       hide_knots="false" /><inkscape:path-effect
       effect="fillet_chamfer"
       id="path-effect48"
       is_visible="true"
       lpeversion="1"
       nodesatellites_param="F,1,0,1,0,0,0,1 @ F,1,0,1,0,0,0,1 @ F,1,0,1,0,0,0,1 @ F,1,0,1,0,0,0,1 @ F,1,1,1,0,0.2,0,1 @ F,0,0,1,0,0,0,1"
       radius="20"
       unit="px"
       method="auto"
       mode="F"
       chamfer_steps="1"
       flexible="true"
       use_knot_distance="true"
       apply_no_radius="true"
       apply_with_radius="true"
       only_selected="true"
       hide_knots="false" /><inkscape:path-effect
       effect="fillet_chamfer"
       id="path-effect47"
       is_visible="true"
       lpeversion="1"
       nodesatellites_param="F,1,0,1,0,0,0,1 @ F,1,1,1,0,0.2,0,1 @ F,1,1,1,0,0.2,0,1 @ F,0,0,1,0,0,0,1"
       radius="20"
       unit="px"
       method="auto"
       mode="F"
       chamfer_steps="1"
       flexible="true"
       use_knot_distance="true"
       apply_no_radius="true"
       apply_with_radius="true"
       only_selected="true"
       hide_knots="false" /><inkscape:path-effect
       effect="offset"
       id="path-effect18"
       is_visible="true"
       lpeversion="1.2"
       linejoin_type="miter"
       unit="px"
       offset="5"
       miter_limit="4"
       attempt_force_join="false"
       update_on_knot_move="true" /><inkscape:path-effect
       effect="offset"
       id="path-effect12"
       is_visible="true"
       lpeversion="1.2"
       linejoin_type="miter"
       unit="px"
       offset="-5"
       miter_limit="4"
       attempt_force_join="false"
       update_on_knot_move="true" /><inkscape:path-effect
       effect="offset"
       id="path-effect9"
       is_visible="true"
       lpeversion="1.2"
       linejoin_type="miter"
       unit="px"
       offset="15"
       miter_limit="4"
       attempt_force_join="false"
       update_on_knot_move="true" /><inkscape:path-effect
       effect="interpolate"
       id="path-effect8"
       is_visible="false"
       lpeversion="1"
       trajectory="m 232.24852,394.18623 8e-5,-53.39071"
       equidistant_spacing="false"
       steps="32" /><inkscape:path-effect
       effect="interpolate"
       id="path-effect2"
       is_visible="true"
       lpeversion="1"
       trajectory="m 232.24852,394.18623 8e-5,-53.39071"
       equidistant_spacing="false"
       steps="9" /><inkscape:path-effect
       effect="fillet_chamfer"
       id="path-effect14"
       is_visible="true"
       lpeversion="1"
       nodesatellites_param="F,0,0,1,0,0,0,1 @ F,0,0,1,0,0,0,1 @ F,0,0,1,0,0,0,1"
       radius="5"
       unit="px"
       method="auto"
       mode="F"
       chamfer_steps="1"
       flexible="false"
       use_knot_distance="true"
       apply_no_radius="true"
       apply_with_radius="true"
       only_selected="true"
       hide_knots="false" /><inkscape:path-effect
       effect="offset"
       id="path-effect13"
       is_visible="true"
       lpeversion="1.2"
       linejoin_type="miter"
       unit="px"
       offset="10"
       miter_limit="4"
       attempt_force_join="false"
       update_on_knot_move="true" /><inkscape:path-effect
       effect="offset"
       id="path-effect7"
       is_visible="true"
       lpeversion="1.2"
       linejoin_type="miter"
       unit="px"
       offset="10"
       miter_limit="4"
       attempt_force_join="false"
       update_on_knot_move="true" /><inkscape:path-effect
       effect="offset"
       id="path-effect6"
       is_visible="true"
       lpeversion="1.2"
       linejoin_type="miter"
       unit="px"
       offset="10"
       miter_limit="4"
       attempt_force_join="false"
       update_on_knot_move="true" /><inkscape:path-effect
       effect="offset"
       id="path-effect4"
       is_visible="true"
       lpeversion="1.2"
       linejoin_type="miter"
       unit="px"
       offset="-15"
       miter_limit="4"
       attempt_force_join="true"
       update_on_knot_move="true" /><inkscape:path-effect
       effect="offset"
       id="path-effect3"
       is_visible="true"
       lpeversion="1.2"
       linejoin_type="miter"
       unit="px"
       offset="-4"
       miter_limit="4"
       attempt_force_join="false"
       update_on_knot_move="true" /><inkscape:path-effect
       effect="offset"
       id="path-effect1"
       is_visible="false"
       lpeversion="1.2"
       linejoin_type="miter"
       unit="px"
       offset="-4"
       miter_limit="4"
       attempt_force_join="false"
       update_on_knot_move="true" /></defs><path
     id="rect1"
     style="fill:none;fill-rule:evenodd;stroke:none;stroke-width:0.680213;stroke-linecap:round;stroke-linejoin:round;stroke-miterlimit:10;stroke-dashoffset:2.6;paint-order:fill markers stroke"
     d="M 37.155509,0 H 976.5575 l 80,302.07399 H 37.155509 C 12.139358,302.07399 0,291.19237 0,277.67574 V 24.398248 C 0,10.881619 12.139358,0 37.155509,0 Z"
     sodipodi:nodetypes="sccssss" /><path
     id="rect2"
     style="fill:none;fill-rule:evenodd;stroke:none;stroke-width:0.311974;stroke-linecap:round;stroke-linejoin:round;stroke-miterlimit:10;stroke-dashoffset:2.6;paint-order:fill markers stroke"
     d="m 996.5575,0 h 514.1828 c 5.2622,0 9.4986,10.881619 9.4986,24.398248 V 277.67574 c 0,13.51663 -4.2364,24.39825 -9.4986,24.39825 h -434.1828 z"
     sodipodi:nodetypes="csssscc" /><path
     style="fill:#008080;fill-opacity:1;fill-rule:evenodd;stroke:none;stroke-width:0.999996;stroke-linecap:round;stroke-linejoin:round;stroke-miterlimit:10;stroke-dasharray:none"
     d="m -52.51175,127.7684 c -0.006,-0.0606 -0.0238,-0.1271 -0.0293,-0.1875 l 0.0352,0.35547 c -0.006,-0.0549 8e-5,-0.11296 -0.006,-0.16797 z"
     id="path13" /><text
     xml:space="preserve"
     style="font-size:319.037px;line-height:0;font-family:'TheTribalation St';-inkscape-font-specification:'TheTribalation St, Normal';text-align:start;letter-spacing:0px;word-spacing:0px;writing-mode:lr-tb;direction:ltr;text-anchor:start;fill:#ff6600;fill-rule:evenodd;stroke:#ffffff;stroke-width:2;stroke-miterlimit:10;stroke-dashoffset:2.6;paint-order:fill markers stroke"
     x="247.21747"
     y="-203.69766"
     id="text1"><tspan
       sodipodi:role="line"
       id="tspan1"
       x="247.21747"
       y="-203.69766" /></text><g
     id="g41"
     transform="translate(-29.999993)"><g
       id="g17"
       transform="matrix(-0.76462447,0,0,0.76462447,2081.441,507.15937)"
       style="stroke-width:1.30783"><path
         style="fill:#2b1100;fill-rule:evenodd;stroke:none;stroke-width:13.0784;stroke-linecap:round;stroke-linejoin:round;stroke-miterlimit:10;stroke-dasharray:none"
         d="m 988.04133,-637.87658 6.22163,48.94502 -42.04195,-47.87125 12.9409,47.59868 -46.58892,-42.35583 19.41033,45.3252 -54.20645,-35.22769 24.96085,41.37705 -57.79117,-26.55292 31.09577,38.19499 -61.31806,-18.93333 35.80586,32.84889 -62.83579,-9.52346 40.36936,28.10575 -63.67828,-1.17081 43.86116,21.77467 -63.01544,8.24733 46.49808,15.55718 -61.26025,16.97784 48.24706,9.032 -58.30947,25.37591 49.06066,2.3437 -54.22917,33.27014 48.90784,-4.53872 -49.08956,40.54075 47.80104,-11.33233 -42.82456,46.99986 44.87711,-17.84511 -36.06605,52.56483 42.84521,-24.13076 c 139.95614,0 194.16899,-55.25561 243.58313,-101.07415 -7.8725,-11.19296 -17.3224,-25.78359 -24.70272,-40.22482 -4.59657,-8.99425 -8.29345,-17.63354 -10.01284,-25.2417 -0.85965,-3.80408 -1.26129,-7.37149 -0.76609,-10.82229 0.48508,-3.38016 2.10971,-6.83948 5.0756,-9.05058 2.79489,-2.25607 5.9929,-3.23876 9.55855,-3.43811 3.6131,-0.20202 7.5947,0.37575 11.8878,1.17081 8.5863,1.59014 18.7832,4.81296 29.8755,8.90604 19.1933,7.08242 40.7738,16.70056 59.9325,25.18595 16.3993,-5.07614 35.0028,-7.56346 57.2707,-6.23815 l 15.995,-61.78888 -32.0436,37.39586 7.2789,-63.42017 -26.5489,41.51128 -1.5776,-63.82077 -20.5419,44.82135 -10.4031,-62.98033 -14.1324,47.2559 -19.0262,-60.91334 -7.4482,48.77362 -27.2797,-57.65902 -0.6196,49.33736 z"
         id="path23-8" /><path
         style="fill:#ff0000;fill-rule:evenodd;stroke:none;stroke-width:13.0785;stroke-linecap:round;stroke-linejoin:round;stroke-miterlimit:10"
         d="m 1290.8787,-382.9572 c 0,5.78954 -4.6933,10.48289 -10.4829,10.48287 -5.7895,1e-5 -10.4828,-4.69333 -10.4828,-10.48287 0,-5.78954 4.6933,-10.48289 10.4829,-10.48287 5.7895,-1e-5 10.4828,4.69334 10.4828,10.48287 z"
         id="path11"
         inkscape:export-filename="limace.svg"
         inkscape:export-xdpi="96"
         inkscape:export-ydpi="96" /><path
         id="path7"
         style="fill:#ff6600;fill-opacity:1;fill-rule:evenodd;stroke:none;stroke-width:1.30783;stroke-linecap:round;stroke-linejoin:round;stroke-miterlimit:10;stroke-dasharray:none"
         d="m 997.3022,-494.02569 c 1.0124,11.13708 8.606,26.03134 16.9634,39.8564 1.2705,2.10226 5.8728,10.51261 16.0752,23.91474 l 6.3749,8.37372 -7.8395,7.02039 c -37.8698,33.91159 -96.91532,101.70682 -246.92013,103.89465 l -1.50246,-0.0156 c 0.10312,0.31558 0.207,0.63091 0.31162,0.946 104.19073,23.55616 366.87067,34.32271 484.38467,-57.19368 -4.0954,-3.96879 -6.6353,-9.53316 -6.6353,-15.72799 0,-0.59837 0.032,-1.18822 0.078,-1.77402 -16.246,-3.5962 -34.3657,-9.26969 -45.9842,-19.1358 -22.919,-19.46211 -31.1597,-45.30454 -41.4413,-54.62504 -1.9244,-5.08861 -3.7764,-9.08962 -5.6158,-12.76091 l -7.2296,-0.49637 c -18.7227,-1.28591 -36.2866,1.09799 -53.1026,5.84736 l -4.3004,1.21532 -3.9798,-2.03221 c -41.6569,-21.26935 -60.0807,-25.84679 -60.0807,-25.84679 -7.2489,-2.50274 -14.1828,-4.58159 -20.4446,-5.98982 -3.4585,-0.77776 -6.596,-1.1753 -9.3486,-1.6182 -8.48589,-1.36542 -10.39164,0.67587 -9.7628,6.14785 z m 43.4913,24.79395 c 8.8949,-0.12826 24.6255,8.93305 40.5775,16.03739 -11.6474,6.29462 -18.6686,11.22069 -28.9363,18.4569 0,0 -23.2605,-26.69132 -16.6272,-32.8004 1.2438,-1.14546 2.9332,-1.66429 4.986,-1.69389 z"
         sodipodi:nodetypes="cccccccccscscccccccsscsccss"
         inkscape:export-filename="limace.svg"
         inkscape:export-xdpi="96"
         inkscape:export-ydpi="96" /><path
         id="path9"
         style="fill:#000000;fill-rule:evenodd;stroke:#ffffff;stroke-width:13.0784;stroke-linecap:round;stroke-linejoin:round;stroke-miterlimit:10"
         d="m 1151.26,-415.9796 a 14.731301,14.731301 0 0 1 -14.7312,14.73131 14.731301,14.731301 0 0 1 -14.7315,-14.73131 14.731301,14.731301 0 0 1 14.7315,-14.73129 14.731301,14.731301 0 0 1 14.7312,14.73129 z" /></g><path
       id="text2"
       style="font-size:319.037px;line-height:0;font-family:Alhurra;-inkscape-font-specification:'Alhurra, Normal';letter-spacing:0px;word-spacing:0px;fill:#ff6600;fill-rule:evenodd;stroke:none;stroke-width:1.49316;stroke-miterlimit:10;stroke-dashoffset:2.6;paint-order:fill markers stroke"
       d="M 995.6142,48.767544 V 207.0769 c 4.0527,-3.4972 8.78,-5.83065 14.1195,-6.98755 0.039,-0.009 0.077,-0.0169 0.1167,-0.0248 3.4379,-0.68757 6.9088,-0.99763 10.4157,-0.93323 2.0977,0.0385 4.202,0.21006 6.311,0.5162 1.7183,0.24945 3.4133,0.58357 5.0905,0.98572 V 48.7676 Z m 24.5966,165.637256 c -3.2908,-0.0605 -6.5494,0.23136 -9.7744,0.87636 -0.024,0.004 -0.048,0.0101 -0.072,0.0145 -5.495,1.19066 -10.1848,3.68516 -14.1601,7.5679 -0.026,0.0251 -0.05,0.0502 -0.074,0.0757 l -4.847,4.9636 c -1.8048,1.80481 -3.4121,3.71217 -4.8136,5.72622 -0.017,0.0242 -0.032,0.0483 -0.05,0.0729 -1.3202,1.9803 -2.5559,4.03972 -3.7066,6.1768 -0.2195,0.40768 -0.3745,0.84696 -0.4593,1.30214 l -2.5576,13.72429 c -0.05,0.27074 -0.076,0.54555 -0.076,0.82093 0,2.22802 0.1721,4.32599 0.5525,6.22784 0.014,0.0538 0.023,0.10715 0.034,0.16041 0.4223,1.7735 0.9196,3.40105 1.518,4.79737 l -0.054,-0.13415 1.5659,4.0085 H 965.606 c -2.4739,0 -4.4793,2.00554 -4.4793,4.47948 v 22.32893 c 0,2.47396 2.0054,4.47949 4.4793,4.47949 h 87.5762 c 2.4739,0 4.4794,-2.00553 4.4794,-4.47949 v -22.32895 c 0,-2.47394 -2.0055,-4.47947 -4.4794,-4.47947 h -24.493 l -8.9939,-1.61857 -5.8137,-4.03038 -2.3185,-3.09278 -0.4009,-3.6906 0.4315,-5.00738 2.4396,-3.17149 3.6527,-3.29693 4.5714,-1.18549 c 2.0796,0.0617 3.7384,0.49914 5.1517,1.27882 0.017,0.0101 0.037,0.0205 0.055,0.0305 1.7395,0.92772 3.4731,2.34704 5.1882,4.39199 0.014,0.0101 0.016,0.0186 0.026,0.0277 l 3.3728,3.95455 c 1.8892,2.21569 5.3574,2.06796 7.0517,-0.30039 l 13.724,-19.18947 c 1.3238,-1.85119 1.0491,-4.40073 -0.6384,-5.92747 l -2.4426,-2.21058 c -3.4016,-3.20982 -7.5411,-5.95453 -12.3388,-8.27072 -0.019,-0.0101 -0.04,-0.0186 -0.06,-0.0277 -4.8869,-2.275 -9.9509,-3.79734 -15.2028,-4.55966 -1.9866,-0.28841 -3.9648,-0.44939 -5.936,-0.4856 z M 903.03661,137.85476 c 4.03183,0.0773 7.79268,0.89172 11.28182,2.44243 3.48902,1.5507 6.55173,3.64414 9.1879,6.28034 2.63617,2.63617 4.72966,5.73795 6.28044,9.30454 1.55068,3.48909 2.40396,7.25004 2.55888,11.28185 0.15534,4.26442 -0.54324,8.33396 -2.09391,12.2107 -1.47306,3.87675 -3.60552,7.28857 -6.39682,10.23489 -2.79131,2.94633 -6.08579,5.27302 -9.88497,6.97879 -3.72167,1.70576 -7.75361,2.48085 -12.09548,2.32578 -4.10923,-0.0774 -7.98624,-0.93086 -11.63041,-2.55908 -3.56653,-1.62824 -6.70739,-3.83759 -9.42119,-6.62884 -2.63617,-2.86879 -4.72955,-6.16469 -6.28044,-9.88637 -1.47316,-3.72168 -2.13082,-7.71444 -1.9758,-11.97886 0.077,-4.10936 0.92949,-7.9862 2.55768,-11.63034 1.70582,-3.72168 3.91665,-6.93936 6.63022,-9.65306 2.79142,-2.79127 6.00893,-4.96149 9.6532,-6.5122 3.64404,-1.55068 7.51954,-2.2881 11.62888,-2.21057 z m -133.86325,98.6249 V 48.767544 h 36.05367 V 200.42592 l 19.01524,1.5e-4 18.55004,1.1e-4 -5.34997,-15.00308 c -0.38767,-2.55865 -0.77447,-5.27215 -1.16203,-8.14094 -0.31037,-2.8688 -0.46529,-5.77644 -0.46529,-8.72277 0,-4.88469 0.3868,-9.38162 1.16214,-13.49096 0.85306,-4.10935 2.05526,-8.25856 3.60616,-12.44547 1.93824,-4.03181 3.99263,-7.86955 6.16363,-11.51369 2.24861,-3.72168 4.84603,-7.28851 7.79247,-10.70004 3.3341,-2.79126 6.70664,-5.38741 10.11826,-7.79099 3.48914,-2.40359 7.24988,-4.53615 11.28182,-6.39698 4.18695,-1.78331 8.45055,-3.02343 12.79254,-3.72124 4.41949,-0.69782 9.07141,-1.04697 13.95609,-1.04697 4.88457,0 9.49904,0.34915 13.84092,1.04697 4.41938,0.69781 8.64401,1.93793 12.67584,3.72124 4.18684,1.86083 7.94792,3.91516 11.28192,6.16369 3.4113,2.24849 6.66822,4.92288 9.76968,8.02428 2.86871,3.41153 5.58228,6.97836 8.14094,10.70004 2.55857,3.64414 4.76797,7.48188 6.62877,11.51369 1.8608,4.18691 3.1792,8.49114 3.9546,12.91061 0.7753,4.34197 1.1635,8.95478 1.1635,13.83948 0,4.4195 -0.3882,8.8005 -1.1635,13.14246 -0.7754,4.34197 -2.0938,8.52885 -3.9546,12.56068 -1.8608,4.18688 -4.0702,8.06374 -6.62877,11.63034 -2.55866,3.56661 -5.27223,6.90017 -8.14094,10.00156 -3.10146,3.10141 -6.35838,5.7758 -9.76968,8.02431 -3.334,2.24851 -7.09508,4.30429 -11.28192,6.16514 -8.06365,3.72166 -16.90243,5.58187 -26.51676,5.58187 l -78.15504,1.2e-4 z m -39.8918,2.20976 -8.83897,21.16703 -13.60745,21.05072 -18.49196,21.16704 -29.88977,-22.79528 11.51394,-13.60737 9.65314,-11.74654 6.62916,-10.46722 5.58253,-10.1183 4.53578,-11.74654 3.02385,-12.90957 c 2.24848,-9.38171 3.56663,-18.60837 3.95431,-27.67996 0.38769,-9.14912 0.0394,-18.29823 -1.04676,-27.44736 -1.08542,-8.68391 -3.02384,-17.21275 -5.81511,-25.58651 -2.79127,-8.45132 -6.2028,-16.67003 -10.2346,-24.65612 h 40.93852 c 3.72161,8.76146 6.66798,17.71674 8.83898,26.86586 2.17086,9.07158 3.6053,18.64715 4.30318,28.72668 1.08543,9.38171 1.24054,18.99607 0.46517,28.84299 -0.77537,9.7694 -2.36477,19.61634 -4.76835,29.5408 z m -277.84638,-38.2635 c 1.93838,0 3.76045,-0.19381 5.46622,-0.58151 1.70576,-0.38767 3.10139,-0.96919 4.18688,-1.74453 l 6.74554,-5.93141 4.53578,-8.839 1.27934,-10.4672 v -70.01404 h 36.17003 v 80.48124 c 0,1.0855 0.15507,2.20976 0.4652,3.37278 0.38769,1.16302 0.77536,2.28728 1.16304,3.37277 l 4.53579,6.62923 c 3.33402,3.1014 6.93937,4.96224 10.81613,5.58251 3.87674,0.62029 7.52087,0.2326 10.93241,-1.16302 3.41154,-1.39563 6.35786,-3.6829 8.83898,-6.86185 2.48112,-3.17891 4.03182,-7.09444 4.6521,-11.74652 v -79.66714 h 36.40265 v 79.66714 c 0.15507,4.65208 1.24055,8.49007 3.25646,11.51393 2.01591,2.94633 4.45826,5.1173 7.32705,6.51293 2.86879,1.39564 5.97018,2.05468 9.30418,1.97715 3.41153,-0.15507 6.5517,-0.9692 9.42051,-2.44236 2.86879,-1.5507 5.31113,-3.7992 7.32704,-6.74553 2.0159,-2.94633 3.10139,-6.55171 3.25646,-10.81612 v -79.66714 h 36.05375 v 70.36293 12.32807 c 0,3.33401 -0.34892,6.668 -1.04673,10.002 -0.69782,3.33401 -1.58947,6.668 -2.67498,10.00199 -0.54273,1.7058 -1.24052,3.37278 -2.09342,5.00101 -0.85289,1.62824 -1.82206,3.17894 -2.90756,4.65209 -1.00796,1.55071 -2.09344,2.98511 -3.25648,4.3032 -1.16301,1.31809 -2.32603,2.55865 -3.48906,3.72167 -2.55865,2.71372 -5.42745,5.1173 -8.60638,7.21076 -3.17892,2.09344 -6.47416,3.87673 -9.8857,5.34991 -3.334,1.86083 -6.97813,3.17891 -10.93242,3.95427 -3.87674,0.77535 -7.90855,1.16303 -12.09544,1.16303 -3.25647,0 -6.66801,-0.34892 -10.23461,-1.04672 -3.48908,-0.69782 -6.93937,-1.78331 -10.35092,-3.25648 -3.334,-1.47316 -6.35786,-3.14015 -9.07159,-5.00099 -2.63618,-1.86084 -5.31113,-3.838 -8.02485,-5.93144 -2.55865,2.09344 -5.31115,4.0706 -8.25748,5.93144 -2.86879,1.86084 -6.00894,3.52783 -9.42048,5.00099 -6.51294,2.86878 -13.37477,4.3032 -20.58552,4.3032 -3.33402,0 -6.62925,-0.31014 -9.88571,-0.93044 -3.25645,-0.62026 -6.35786,-1.47314 -9.30418,-2.55863 -2.94633,-1.24057 -5.73758,-2.55867 -8.37377,-3.95428 -2.63618,-1.39564 -5.31115,-3.02386 -8.02487,-4.8847 -1.08549,1.08548 -2.36481,2.1322 -3.83797,3.14017 -1.39563,1.00795 -3.06264,1.8996 -5.00102,2.67495 l -11.74654,2.20973 -148.37363,-0.058 -46.34651,-0.0583 v -96.99615 c -6.90062,-1.00794 -11.82407,-0.11629 -14.77039,2.67497 -2.94633,2.71373 -4.34195,6.97815 -4.18689,12.79326 V 236.4797 H 114.70985 c -4.72964,0 -9.11036,-0.54275 -13.14218,-1.62824 -3.95429,-1.08549 -7.94732,-2.48111 -11.97916,-4.18688 -4.03179,-1.7833 -7.79224,-3.7992 -11.28131,-6.04772 -3.41152,-2.24853 -6.7843,-4.80716 -10.11833,-7.67596 -2.86878,-3.334 -5.38865,-6.74553 -7.55963,-10.23459 -2.093437,-3.5666 -4.031817,-7.36582 -5.815117,-11.39766 -1.860834,-4.41947 -3.178942,-8.8002 -3.954281,-13.14216 -0.697815,-4.41948 -0.891661,-8.95529 -0.581514,-13.60737 0,-5.27236 0.348913,-10.04076 1.046717,-14.30519 0.775339,-4.34196 1.938369,-8.49007 3.489078,-12.44436 1.7833,-4.03181 3.72168,-7.83102 5.815117,-11.39764 2.17098,-3.64414 4.69085,-6.90059 7.55963,-9.7694 3.33403,-2.48111 6.70681,-4.76837 10.11833,-6.86183 3.48907,-2.17097 7.24952,-4.14813 11.28131,-5.93142 4.03184,-1.62823 8.02487,-2.83004 11.97916,-3.60538 4.03182,-0.85289 8.41254,-1.27931 13.14218,-1.27931 v 35.93742 l -10.69982,2.09344 c -1.86084,0.69781 -3.68292,1.58947 -5.46622,2.67496 -1.70578,1.00796 -3.1014,2.24851 -4.18687,3.72167 -1.0855,1.08549 -2.13223,2.48113 -3.14018,4.18689 -1.00795,1.62824 -1.82207,3.37277 -2.44235,5.2336 l -2.44236,12.56066 c 0,4.88471 0.81414,9.07159 2.44236,12.56065 0.62028,1.86086 1.4344,3.68291 2.44235,5.46621 1.00795,1.70576 2.05468,3.10142 3.14018,4.18691 1.62823,1.47314 3.17892,2.75248 4.65208,3.83796 1.47318,1.00796 3.14017,1.86084 5.00101,2.55867 l 10.69982,2.44234 H 224.15038 V 136.6922 c 1.70575,-12.09546 5.58251,-20.46924 11.63023,-25.12132 6.12527,-4.65212 14.8867,-6.97815 26.28434,-6.97815 h 54.3132 v 95.83316 h 9.71126 z M 594.25451,45.627462 c 2.86878,0 5.54374,0.542742 8.02485,1.628229 2.48112,1.007963 4.65211,2.442365 6.51293,4.303189 1.86084,1.86084 3.334,4.070595 4.41949,6.629239 1.16302,2.558656 1.82207,5.349921 1.97714,8.373771 0.0773,3.023862 -0.42645,5.892665 -1.51193,8.606382 -1.08549,2.636178 -2.6362,4.962225 -4.65211,6.97814 -1.93836,1.938376 -4.22562,3.489084 -6.86182,4.652106 -2.63619,1.163009 -5.42746,1.705751 -8.37378,1.62823 -2.94633,0 -5.73758,-0.581511 -8.37375,-1.744549 -2.6362,-1.240546 -4.88473,-2.907557 -6.74555,-5.000993 -1.86083,-2.093453 -3.29524,-4.535804 -4.30319,-7.327056 -1.00795,-2.86879 -1.35686,-5.931421 -1.04671,-9.18788 0.31012,-2.713729 1.04671,-5.272386 2.20975,-7.675968 1.16301,-2.403584 2.67493,-4.45825 4.53579,-6.164032 1.86082,-1.783288 3.99302,-3.178921 6.39662,-4.18687 2.40358,-1.007964 5.001,-1.511938 7.79227,-1.511938 z m -49.19592,-0.23261 c 2.86879,0 5.54375,0.542741 8.02488,1.628242 2.48109,1.00795 4.65208,2.442352 6.5129,4.303176 1.86085,1.860854 3.33402,4.070596 4.4195,6.629253 1.16303,2.558641 1.82208,5.349907 1.97716,8.373756 0.0774,3.023878 -0.42646,5.892667 -1.51194,8.606382 -1.0855,2.636192 -2.63619,4.962238 -4.6521,6.978155 -1.93837,1.938375 -4.22565,3.489069 -6.86183,4.652092 -2.63619,1.163009 -5.42746,1.705751 -8.37379,1.62823 -2.94632,0 -5.73757,-0.581513 -8.37376,-1.744535 -2.63619,-1.24056 -4.8847,-2.907557 -6.74554,-5.001008 -1.86083,-2.093438 -3.29523,-4.535789 -4.30318,-7.327042 -1.00796,-2.868803 -1.35687,-5.93142 -1.04673,-9.187892 0.31014,-2.713717 1.04673,-5.272373 2.20976,-7.675955 1.16301,-2.403584 2.67493,-4.458264 4.53578,-6.164031 1.86084,-1.783303 3.99305,-3.178922 6.39663,-4.186886 2.40358,-1.007949 5.00101,-1.511937 7.79226,-1.511937 z M 570.29621,3.2933982 c 2.8688,0 5.54373,0.5427435 8.02487,1.6282294 2.4811,1.007964 4.6521,2.4423653 6.51293,4.3031909 1.86082,1.8608395 3.33399,4.0705945 4.41949,6.6292365 1.16301,2.558656 1.82205,5.349909 1.97712,8.373772 0.0773,3.023862 -0.42644,5.892665 -1.51192,8.606381 -1.08548,2.63618 -2.63617,4.962225 -4.65209,6.978152 -1.93837,1.938362 -4.22566,3.489055 -6.86185,4.652092 -2.63619,1.16301 -5.42743,1.705752 -8.37376,1.628216 -2.94633,0 -5.73758,-0.581511 -8.37378,-1.744535 -2.63618,-1.240546 -4.88469,-2.907557 -6.74552,-5.000993 -1.86085,-2.09345 -3.29525,-4.535801 -4.3032,-7.327054 -1.00795,-2.868789 -1.35686,-5.931419 -1.04673,-9.187879 0.31014,-2.71373 1.04673,-5.272385 2.20975,-7.675968 1.16302,-2.403582 2.67496,-4.458264 4.53579,-6.1640308 1.86084,-1.7832884 3.99306,-3.1789217 6.39663,-4.1868716 2.40359,-1.0079629 5.001,-1.5119384 7.79227,-1.5119384 z M 202.98335,256.13475 c 2.86879,0 5.54374,0.50399 8.02484,1.51194 2.48113,1.08549 4.65212,2.55865 6.51294,4.4195 1.86083,1.86083 3.33401,4.07058 4.4195,6.62924 1.16302,2.55864 1.82207,5.3499 1.97714,8.37378 0.0774,3.02384 -0.42646,5.85387 -1.51194,8.49005 -1.0855,2.71373 -2.63617,5.03978 -4.65208,6.97816 -1.93837,2.01589 -4.22566,3.60536 -6.86185,4.76839 -2.63619,1.16302 -5.42745,1.70576 -8.37377,1.62822 -4.65211,-0.31013 -8.49008,-1.58945 -11.51394,-3.83798 -3.02385,-2.24851 -5.27238,-4.96222 -6.74553,-8.14116 -1.39562,-3.1014 -2.05468,-6.47416 -1.97715,-10.11831 0.15508,-3.64414 1.00796,-7.0169 2.55865,-10.1183 1.62823,-3.02386 3.95429,-5.54374 6.97815,-7.55964 3.02385,-2.01591 6.74554,-3.02389 11.16504,-3.02389 z m -49.19591,-0.23259 c 2.86878,0 5.54373,0.50397 8.02487,1.51192 2.48112,1.0855 4.65208,2.55866 6.51293,4.4195 1.86084,1.86084 3.33399,4.07059 4.41947,6.62922 1.16303,2.55867 1.82208,5.34993 1.97716,8.37378 0.0773,3.02386 -0.42644,5.85389 -1.51193,8.49009 -1.0855,2.71371 -2.6362,5.03977 -4.65211,6.97813 -1.93837,2.01592 -4.22563,3.60538 -6.86183,4.7684 -2.63618,1.16302 -5.42744,1.70576 -8.37377,1.62824 -2.94633,0 -5.73758,-0.62029 -8.37377,-1.86086 -2.6362,-1.16301 -4.88471,-2.79124 -6.74555,-4.88468 -1.86082,-2.09345 -3.29521,-4.57457 -4.30319,-7.44335 -1.00794,-2.79126 -1.35684,-5.81513 -1.04672,-9.07158 0.31015,-2.71373 1.04672,-5.27238 2.20975,-7.67597 1.16302,-2.40358 2.67496,-4.49701 4.53581,-6.28034 1.86082,-1.70576 3.99303,-3.06261 6.39663,-4.07058 2.40356,-1.00795 5.001,-1.51192 7.79225,-1.51192 z"
       sodipodi:nodetypes="ccscsscccssccccscscccsscccsssssssscccccccccsccccccccscssscsscccscccccccsscccccccccscccccccscccccccsscscccscccccccccccccccccccccccssccccccscccssscccccsccsccccsscscscsccsccccccsscsccccccccccsccccccccccccccccccccccccccccccccscccsscscccssccsccscssscscccssccsccscssscscccssccsccscssscsccccscscccssscsccccsccsccscss" /></g></svg>
