<?xml version="1.0" encoding="UTF-8" standalone="no"?>
<!-- Created with Inkscape (http://www.inkscape.org/) -->

<svg
   version="1.1"
   id="svg1"
   width="499.99997"
   height="302.07425"
   viewBox="0 0 499.99998 302.07426"
   xml:space="preserve"
   sodipodi:docname="insi-ar.svg"
   inkscape:version="1.4 (e7c3feb100, 2024-10-09)"
   xmlns:inkscape="http://www.inkscape.org/namespaces/inkscape"
   xmlns:sodipodi="http://sodipodi.sourceforge.net/DTD/sodipodi-0.dtd"
   xmlns="http://www.w3.org/2000/svg"
   xmlns:svg="http://www.w3.org/2000/svg"><sodipodi:namedview
     id="namedview1"
     pagecolor="#ffffff"
     bordercolor="#000000"
     borderopacity="0.25"
     inkscape:showpageshadow="2"
     inkscape:pageopacity="0.0"
     inkscape:pagecheckerboard="0"
     inkscape:deskcolor="#d1d1d1"
     inkscape:zoom="0.86138854"
     inkscape:cx="206.06264"
     inkscape:cy="359.3036"
     inkscape:window-width="1920"
     inkscape:window-height="1052"
     inkscape:window-x="0"
     inkscape:window-y="0"
     inkscape:window-maximized="1"
     inkscape:current-layer="svg1" /><defs
     id="defs1"><inkscape:path-effect
       effect="offset"
       id="path-effect18"
       is_visible="true"
       lpeversion="1.2"
       linejoin_type="miter"
       unit="px"
       offset="5"
       miter_limit="4"
       attempt_force_join="false"
       update_on_knot_move="true" /><inkscape:path-effect
       effect="offset"
       id="path-effect12"
       is_visible="true"
       lpeversion="1.2"
       linejoin_type="miter"
       unit="px"
       offset="-5"
       miter_limit="4"
       attempt_force_join="false"
       update_on_knot_move="true" /><inkscape:path-effect
       effect="offset"
       id="path-effect9"
       is_visible="true"
       lpeversion="1.2"
       linejoin_type="miter"
       unit="px"
       offset="15"
       miter_limit="4"
       attempt_force_join="false"
       update_on_knot_move="true" /><inkscape:path-effect
       effect="interpolate"
       id="path-effect8"
       is_visible="false"
       lpeversion="1"
       trajectory="m 232.24852,394.18623 8e-5,-53.39071"
       equidistant_spacing="false"
       steps="32" /><inkscape:path-effect
       effect="interpolate"
       id="path-effect2"
       is_visible="true"
       lpeversion="1"
       trajectory="m 232.24852,394.18623 8e-5,-53.39071"
       equidistant_spacing="false"
       steps="9" /><inkscape:path-effect
       effect="fillet_chamfer"
       id="path-effect14"
       is_visible="true"
       lpeversion="1"
       nodesatellites_param="F,0,0,1,0,0,0,1 @ F,0,0,1,0,0,0,1 @ F,0,0,1,0,0,0,1"
       radius="5"
       unit="px"
       method="auto"
       mode="F"
       chamfer_steps="1"
       flexible="false"
       use_knot_distance="true"
       apply_no_radius="true"
       apply_with_radius="true"
       only_selected="true"
       hide_knots="false" /><inkscape:path-effect
       effect="offset"
       id="path-effect13"
       is_visible="true"
       lpeversion="1.2"
       linejoin_type="miter"
       unit="px"
       offset="10"
       miter_limit="4"
       attempt_force_join="false"
       update_on_knot_move="true" /><inkscape:path-effect
       effect="offset"
       id="path-effect7"
       is_visible="true"
       lpeversion="1.2"
       linejoin_type="miter"
       unit="px"
       offset="10"
       miter_limit="4"
       attempt_force_join="false"
       update_on_knot_move="true" /><inkscape:path-effect
       effect="offset"
       id="path-effect6"
       is_visible="true"
       lpeversion="1.2"
       linejoin_type="miter"
       unit="px"
       offset="10"
       miter_limit="4"
       attempt_force_join="false"
       update_on_knot_move="true" /><inkscape:path-effect
       effect="offset"
       id="path-effect4"
       is_visible="true"
       lpeversion="1.2"
       linejoin_type="miter"
       unit="px"
       offset="-15"
       miter_limit="4"
       attempt_force_join="true"
       update_on_knot_move="true" /><inkscape:path-effect
       effect="offset"
       id="path-effect3"
       is_visible="true"
       lpeversion="1.2"
       linejoin_type="miter"
       unit="px"
       offset="-4"
       miter_limit="4"
       attempt_force_join="false"
       update_on_knot_move="true" /><inkscape:path-effect
       effect="offset"
       id="path-effect1"
       is_visible="false"
       lpeversion="1.2"
       linejoin_type="miter"
       unit="px"
       offset="-4"
       miter_limit="4"
       attempt_force_join="false"
       update_on_knot_move="true" /></defs><path
     style="fill:#008080;fill-opacity:1;fill-rule:evenodd;stroke:none;stroke-width:0.999996;stroke-linecap:round;stroke-linejoin:round;stroke-miterlimit:10;stroke-dasharray:none"
     d="m 227.48825,127.7684 c -0.006,-0.0606 -0.0238,-0.1271 -0.0293,-0.1875 l 0.0352,0.35547 c -0.006,-0.0549 8e-5,-0.11296 -0.006,-0.16797 z"
     id="path13" /><rect
     style="fill:none;fill-opacity:1;fill-rule:evenodd;stroke:none;stroke-width:7.16472;stroke-linecap:round;stroke-linejoin:round;stroke-miterlimit:10;stroke-dasharray:none;stroke-opacity:1"
     id="rect1"
     width="366.83499"
     height="366.83499"
     x="41.149254"
     y="42.291477"
     rx="49.999996"
     ry="49.999996" /><rect
     style="fill:none;fill-opacity:1;fill-rule:evenodd;stroke:none;stroke-width:9.99996;stroke-linecap:round;stroke-linejoin:round;stroke-miterlimit:10;stroke-dasharray:none;stroke-opacity:1"
     id="rect45"
     width="512"
     height="512"
     x="-6.00003"
     y="-51.436687"
     rx="50"
     ry="50" /><g
     id="g17"
     transform="matrix(-0.87746634,0,0,0.87746634,1132.7026,559.71523)"
     style="stroke-width:1.13964"><circle
       style="fill:none;fill-opacity:0.601825;fill-rule:evenodd;stroke:none;stroke-width:1.13964;stroke-linecap:round;stroke-linejoin:round;stroke-miterlimit:10;stroke-dasharray:none"
       id="circle9"
       cx="976.98267"
       cy="-380.6485"
       r="209.03061" /><path
       style="fill:#000000;fill-rule:evenodd;stroke:none;stroke-width:11.3965;stroke-linecap:round;stroke-linejoin:round;stroke-miterlimit:10;stroke-dasharray:none"
       d="m 988.04133,-637.87658 6.22163,48.94502 -42.04195,-47.87125 12.9409,47.59868 -46.58892,-42.35583 19.41033,45.3252 -54.20645,-35.22769 24.96085,41.37705 -57.79117,-26.55292 31.09577,38.19499 -61.31806,-18.93333 35.80586,32.84889 -62.83579,-9.52346 40.36936,28.10575 -63.67828,-1.17081 43.86116,21.77467 -63.01544,8.24733 46.49808,15.55718 -61.26025,16.97784 48.24706,9.032 -58.30947,25.37591 49.06066,2.3437 -54.22917,33.27014 48.90784,-4.53872 -49.08956,40.54075 47.80104,-11.33233 -42.82456,46.99986 44.87711,-17.84511 -36.06605,52.56483 42.84521,-24.13076 c 139.95614,0 194.16899,-55.25561 243.58313,-101.07415 -7.8725,-11.19296 -17.3224,-25.78359 -24.70272,-40.22482 -4.59657,-8.99425 -8.29345,-17.63354 -10.01284,-25.2417 -0.85965,-3.80408 -1.26129,-7.37149 -0.76609,-10.82229 0.48508,-3.38016 2.10971,-6.83948 5.0756,-9.05058 2.79489,-2.25607 5.9929,-3.23876 9.55855,-3.43811 3.6131,-0.20202 7.5947,0.37575 11.8878,1.17081 8.5863,1.59014 18.7832,4.81296 29.8755,8.90604 19.1933,7.08242 40.7738,16.70056 59.9325,25.18595 16.3993,-5.07614 35.0028,-7.56346 57.2707,-6.23815 l 15.995,-61.78888 -32.0436,37.39586 7.2789,-63.42017 -26.5489,41.51128 -1.5776,-63.82077 -20.5419,44.82135 -10.4031,-62.98033 -14.1324,47.2559 -19.0262,-60.91334 -7.4482,48.77362 -27.2797,-57.65902 -0.6196,49.33736 z"
       id="path23-8" /><path
       style="fill:#ff0000;fill-rule:evenodd;stroke:none;stroke-width:11.3966;stroke-linecap:round;stroke-linejoin:round;stroke-miterlimit:10"
       d="m 1290.8787,-382.9572 c 0,5.78954 -4.6933,10.48289 -10.4829,10.48287 -5.7895,1e-5 -10.4828,-4.69333 -10.4828,-10.48287 0,-5.78954 4.6933,-10.48289 10.4829,-10.48287 5.7895,-1e-5 10.4828,4.69334 10.4828,10.48287 z"
       id="path11"
       inkscape:export-filename="limace.svg"
       inkscape:export-xdpi="96"
       inkscape:export-ydpi="96" /><path
       id="path7"
       style="fill:#ff6600;fill-opacity:1;fill-rule:evenodd;stroke:none;stroke-width:1.13964;stroke-linecap:round;stroke-linejoin:round;stroke-miterlimit:10;stroke-dasharray:none"
       d="m 997.3022,-494.02569 c 1.0124,11.13708 8.606,26.03134 16.9634,39.8564 1.2705,2.10226 5.8728,10.51261 16.0752,23.91474 l 6.3749,8.37372 -7.8395,7.02039 c -37.8698,33.91159 -96.91532,101.70682 -246.92013,103.89465 l -1.50246,-0.0156 c 0.10312,0.31558 0.207,0.63091 0.31162,0.946 104.19073,23.55616 366.87067,34.32271 484.38467,-57.19368 -4.0954,-3.96879 -6.6353,-9.53316 -6.6353,-15.72799 0,-0.59837 0.032,-1.18822 0.078,-1.77402 -16.246,-3.5962 -34.3657,-9.26969 -45.9842,-19.1358 -22.919,-19.46211 -31.1597,-45.30454 -41.4413,-54.62504 -1.9244,-5.08861 -3.7764,-9.08962 -5.6158,-12.76091 l -7.2296,-0.49637 c -18.7227,-1.28591 -36.2866,1.09799 -53.1026,5.84736 l -4.3004,1.21532 -3.9798,-2.03221 c -41.6569,-21.26935 -60.0807,-25.84679 -60.0807,-25.84679 -7.2489,-2.50274 -14.1828,-4.58159 -20.4446,-5.98982 -3.4585,-0.77776 -6.596,-1.1753 -9.3486,-1.6182 -8.48589,-1.36542 -10.39164,0.67587 -9.7628,6.14785 z m 43.4913,24.79395 c 8.8949,-0.12826 24.6255,8.93305 40.5775,16.03739 -11.6474,6.29462 -18.6686,11.22069 -28.9363,18.4569 0,0 -23.2605,-26.69132 -16.6272,-32.8004 1.2438,-1.14546 2.9332,-1.66429 4.986,-1.69389 z"
       sodipodi:nodetypes="cccccccccscscccccccsscsccss"
       inkscape:export-filename="limace.svg"
       inkscape:export-xdpi="96"
       inkscape:export-ydpi="96" /><path
       id="path9"
       style="fill:#000000;fill-rule:evenodd;stroke:#ffffff;stroke-width:11.3965;stroke-linecap:round;stroke-linejoin:round;stroke-miterlimit:10"
       d="m 1151.26,-415.9796 a 14.731301,14.731301 0 0 1 -14.7312,14.73131 14.731301,14.731301 0 0 1 -14.7315,-14.73131 14.731301,14.731301 0 0 1 14.7315,-14.73129 14.731301,14.731301 0 0 1 14.7312,14.73129 z" /></g></svg>
