<?xml version="1.0" encoding="UTF-8" standalone="no"?>
<!-- Created with Inkscape (http://www.inkscape.org/) -->

<svg
   version="1.1"
   id="svg1"
   width="1673.502"
   height="288.01279"
   viewBox="0 0 1673.5021 288.0128"
   xml:space="preserve"
   sodipodi:docname="insi-logo.svg"
   inkscape:version="1.4 (e7c3feb100, 2024-10-09)"
   xmlns:inkscape="http://www.inkscape.org/namespaces/inkscape"
   xmlns:sodipodi="http://sodipodi.sourceforge.net/DTD/sodipodi-0.dtd"
   xmlns="http://www.w3.org/2000/svg"
   xmlns:svg="http://www.w3.org/2000/svg"><sodipodi:namedview
     id="namedview1"
     pagecolor="#ffffff"
     bordercolor="#000000"
     borderopacity="0.25"
     inkscape:showpageshadow="2"
     inkscape:pageopacity="0.0"
     inkscape:pagecheckerboard="true"
     inkscape:deskcolor="#d1d1d1"
     inkscape:zoom="0.38325813"
     inkscape:cx="386.16271"
     inkscape:cy="95.236074"
     inkscape:window-width="1920"
     inkscape:window-height="1052"
     inkscape:window-x="0"
     inkscape:window-y="0"
     inkscape:window-maximized="1"
     inkscape:current-layer="svg1" /><defs
     id="defs1"><inkscape:path-effect
       effect="offset"
       id="path-effect18"
       is_visible="true"
       lpeversion="1.2"
       linejoin_type="miter"
       unit="px"
       offset="5"
       miter_limit="4"
       attempt_force_join="false"
       update_on_knot_move="true" /><inkscape:path-effect
       effect="offset"
       id="path-effect12"
       is_visible="true"
       lpeversion="1.2"
       linejoin_type="miter"
       unit="px"
       offset="-5"
       miter_limit="4"
       attempt_force_join="false"
       update_on_knot_move="true" /><inkscape:path-effect
       effect="offset"
       id="path-effect9"
       is_visible="true"
       lpeversion="1.2"
       linejoin_type="miter"
       unit="px"
       offset="15"
       miter_limit="4"
       attempt_force_join="false"
       update_on_knot_move="true" /><inkscape:path-effect
       effect="interpolate"
       id="path-effect8"
       is_visible="false"
       lpeversion="1"
       trajectory="m 232.24852,394.18623 8e-5,-53.39071"
       equidistant_spacing="false"
       steps="32" /><inkscape:path-effect
       effect="interpolate"
       id="path-effect2"
       is_visible="true"
       lpeversion="1"
       trajectory="m 232.24852,394.18623 8e-5,-53.39071"
       equidistant_spacing="false"
       steps="9" /><inkscape:path-effect
       effect="fillet_chamfer"
       id="path-effect14"
       is_visible="true"
       lpeversion="1"
       nodesatellites_param="F,0,0,1,0,0,0,1 @ F,0,0,1,0,0,0,1 @ F,0,0,1,0,0,0,1"
       radius="5"
       unit="px"
       method="auto"
       mode="F"
       chamfer_steps="1"
       flexible="false"
       use_knot_distance="true"
       apply_no_radius="true"
       apply_with_radius="true"
       only_selected="true"
       hide_knots="false" /><inkscape:path-effect
       effect="offset"
       id="path-effect13"
       is_visible="true"
       lpeversion="1.2"
       linejoin_type="miter"
       unit="px"
       offset="10"
       miter_limit="4"
       attempt_force_join="false"
       update_on_knot_move="true" /><inkscape:path-effect
       effect="offset"
       id="path-effect7"
       is_visible="true"
       lpeversion="1.2"
       linejoin_type="miter"
       unit="px"
       offset="10"
       miter_limit="4"
       attempt_force_join="false"
       update_on_knot_move="true" /><inkscape:path-effect
       effect="offset"
       id="path-effect6"
       is_visible="true"
       lpeversion="1.2"
       linejoin_type="miter"
       unit="px"
       offset="10"
       miter_limit="4"
       attempt_force_join="false"
       update_on_knot_move="true" /><inkscape:path-effect
       effect="offset"
       id="path-effect4"
       is_visible="true"
       lpeversion="1.2"
       linejoin_type="miter"
       unit="px"
       offset="-15"
       miter_limit="4"
       attempt_force_join="true"
       update_on_knot_move="true" /><inkscape:path-effect
       effect="offset"
       id="path-effect3"
       is_visible="true"
       lpeversion="1.2"
       linejoin_type="miter"
       unit="px"
       offset="-4"
       miter_limit="4"
       attempt_force_join="false"
       update_on_knot_move="true" /><inkscape:path-effect
       effect="offset"
       id="path-effect1"
       is_visible="false"
       lpeversion="1.2"
       linejoin_type="miter"
       unit="px"
       offset="-4"
       miter_limit="4"
       attempt_force_join="false"
       update_on_knot_move="true" /></defs><g
     id="g19"
     transform="translate(-527.9179,-16.212545)"><path
       d="m 598.63316,230.2256 v -84.09792 h 76.84043 v 17.08939 h -51.62717 c -3.45181,0 -6.30329,2.84827 -6.30329,6.29611 0,3.44787 2.85148,6.29614 6.30329,6.29614 h 57.93054 c 3.60184,0 6.30331,-2.84827 6.30331,-6.29614 v -29.68161 c 0,-3.44789 -2.70147,-6.29611 -6.30331,-6.29611 h -89.44714 c -3.45178,0 -6.30328,2.84822 -6.30328,6.29611 v 96.69016 c 0,3.44782 2.8515,6.29607 6.30328,6.29607 h 88.69672 v 17.08944 H 567.11656 V 60.530641 h 111.80885 v 17.089422 h -86.59559 c -3.45178,0 -6.30328,2.848217 -6.30328,6.296132 v 26.233725 c 0,3.44788 2.8515,6.29611 6.30328,6.29611 3.60192,0 6.30334,-2.84823 6.30334,-6.29611 V 90.212273 h 86.59559 c 3.60189,0 6.30333,-2.848245 6.30333,-6.296078 V 54.234536 c 0,-3.44789 -2.70144,-6.296105 -6.30333,-6.296105 h -124.4155 c -3.4518,0 -6.30331,2.848215 -6.30331,6.296105 V 266.20333 c 0,3.44785 2.85151,6.29611 6.30331,6.29611 h 126.5166 c 3.60188,0 6.3033,-2.84826 6.3033,-6.29611 v -29.6816 c 0,-3.44788 -2.70142,-6.29613 -6.3033,-6.29613 z"
       id="text18"
       style="font-size:141.112px;line-height:0;font-family:'LIBRARY 3 AM soft';-inkscape-font-specification:'LIBRARY 3 AM soft, Normal';letter-spacing:0px;word-spacing:0px;fill:#ff0000;fill-rule:evenodd;stroke:none;stroke-width:0.999995;stroke-linecap:round;stroke-linejoin:round;stroke-miterlimit:10;paint-order:fill markers stroke"
       aria-label="e" /><path
       d="m 955.7309,51.774596 h -34.75495 c -3.47551,0 -6.6614,1.883472 -8.39914,4.925987 L 838.43288,186.51507 787.89339,98.716425 c -0.86888,-1.448827 -2.17219,-2.173236 -3.62031,-2.173236 -2.17218,0 -4.34438,1.593726 -4.34438,4.346471 V 256.63805 H 761.68235 V 63.944693 h 27.22473 l 44.45739,77.946647 c 1.1585,2.02835 3.18585,3.04254 5.21324,3.04254 4.63399,0 7.67504,-5.07089 5.35805,-9.1276 L 798.75431,56.700583 c -1.73775,-3.042515 -4.92363,-4.925987 -8.39912,-4.925987 h -34.75497 c -3.33068,0 -6.08211,2.752753 -6.08211,6.085049 V 262.72311 c 0,3.33228 2.75143,6.08506 6.08211,6.08506 h 30.41059 c 3.3307,0 6.08213,-2.75278 6.08213,-6.08506 V 130.30076 l 42.14041,73.31041 c 1.01367,1.5937 2.46179,2.463 4.19953,2.463 1.59295,0 3.3307,-0.8693 4.19957,-2.463 L 922.42406,63.944693 H 949.6488 V 256.63805 H 931.40242 V 100.88966 c 0,-2.752745 -2.17217,-4.346471 -4.34438,-4.346471 -1.4481,0 -2.89623,0.724409 -3.7651,2.173236 l -56.47682,98.230155 c -2.317,4.0567 0.72407,9.12759 5.35806,9.12759 2.17218,0 4.19954,-1.15907 5.21322,-3.04254 l 41.85079,-72.73087 v 132.42235 c 0,3.33228 2.75142,6.08506 6.08213,6.08506 h 30.41058 c 3.3307,0 6.0821,-2.75278 6.0821,-6.08506 V 57.859645 c 0,-3.332296 -2.7514,-6.085049 -6.0821,-6.085049 z m 157.2662,0 h -29.8312 c -3.91,0 -7.2406,2.318104 -8.5439,5.940159 l -44.1677,121.701065 c -1.1586,3.18744 1.1585,6.66458 4.6339,6.66458 h 94.7073 c 3.4755,0 5.7926,-3.47714 4.634,-6.66458 l -32.1484,-88.523011 c -0.7241,-1.883481 -2.4616,-2.897661 -4.1995,-2.897661 -1.7378,0 -3.4756,0.8693 -4.1996,2.897661 l -21.2875,58.387521 c -1.4479,3.91183 1.593,8.1134 5.7928,8.1134 2.4615,0 4.7786,-1.59369 5.6474,-4.0567 l 14.0469,-38.39379 21.4323,58.96707 h -74.144 l 39.9683,-109.965617 h 25.4869 l 70.0891,192.693357 h -18.5359 l -17.3774,-48.10089 c -1.3034,-3.62206 -4.6342,-5.94019 -8.544,-5.94019 h -108.1748 c -3.91,0 -7.2406,2.31813 -8.544,5.94019 l -19.4048,53.60642 c -1.1584,3.18739 1.1584,6.66459 4.634,6.66459 h 30.8451 c 3.9099,0 7.2405,-2.46303 8.5439,-5.94018 l 8.5439,-23.47093 c 1.4482,-3.91179 -1.5929,-8.11341 -5.7925,-8.11341 -2.4618,0 -4.7789,1.59372 -5.6477,3.91183 l -7.8199,21.44257 h -18.3911 l 15.2053,-41.87096 h 103.8304 l 17.3775,48.1009 c 1.3034,3.47715 4.634,5.94018 8.5439,5.94018 h 30.9899 c 3.4754,0 5.7924,-3.4772 4.6341,-6.66459 L 1121.5413,57.714755 c -1.3035,-3.622055 -4.6341,-5.940159 -8.5442,-5.940159 z m 196.5108,0 h -68.786 c -3.3309,0 -6.082,2.607884 -6.082,6.085049 V 262.72311 c 0,3.33228 2.7511,6.08506 6.082,6.08506 h 30.4107 c 3.3306,0 6.082,-2.75278 6.082,-6.08506 v -91.71044 l 68.6411,93.59389 c 1.8826,2.60789 4.9236,4.20161 8.2544,4.20161 h 37.2168 c 2.7513,0 4.7787,-2.31813 4.7787,-4.78112 0,-0.8693 -0.2896,-1.88347 -1.0138,-2.75277 l -73.2748,-98.95454 c 22.1561,-3.18743 35.0443,-18.68981 35.0443,-41.72609 0,-24.340208 -17.6668,-40.132372 -45.1811,-40.132372 h -40.5476 c -3.3308,0 -6.0822,2.607863 -6.0822,6.085052 v 42.01585 c 0,3.3323 2.7514,6.08504 6.0822,6.08504 3.3306,0 6.082,-2.75274 6.082,-6.08504 V 92.631385 h 34.4656 c 20.1287,0 33.017,9.707115 33.017,27.962265 0,16.22681 -7.8198,30.57013 -34.4653,30.57013 h -2.4618 c -2.7514,0 -4.7787,2.17325 -4.7787,4.63626 0,1.01418 0.2896,2.02835 1.0136,2.89765 l 72.5509,97.94036 h -21.4321 l -74.2889,-101.27266 c -2.0274,-2.75277 -5.0683,-4.20161 -8.399,-4.20161 h -1.3033 c -3.3308,0 -6.0822,2.6079 -6.0822,6.08507 v 99.3892 h -18.2463 V 63.944693 h 62.7038 c 39.6785,0 65.6,21.732337 65.6,56.648957 0,18.97955 -7.096,35.78592 -21.4324,45.92766 -1.7378,1.15907 -2.7514,3.04254 -2.7514,4.92599 0,3.47718 2.7514,6.22995 6.0821,6.22995 1.3032,0 2.4617,-0.43466 3.6203,-1.15907 17.088,-12.02521 26.6456,-32.01897 26.6456,-55.92453 0,-38.53868 -27.8042,-68.819054 -77.7642,-68.819054 z m 265.5858,166.614544 c -1.4481,-2.89764 -5.0685,-3.76693 -7.8199,-2.17323 -13.1779,8.25829 -27.3696,14.77799 -44.0231,14.77799 -30.5554,0 -46.4846,-22.60163 -51.5532,-48.39064 -0.5792,-2.89766 -3.1857,-4.92601 -6.082,-4.92601 -3.7652,0 -6.6612,3.47718 -5.9373,7.24411 6.3719,31.58432 26.7902,58.24264 63.5725,58.24264 17.2328,0 31.8589,-5.79529 44.3127,-12.8945 l 8.1095,15.50238 c -17.0878,9.41735 -34.1756,13.90871 -53.5806,13.90871 -55.4633,0 -82.8327,-46.21746 -82.8327,-97.50575 v -0.8693 h 24.4733 c 3.1858,0 5.9373,-2.60785 5.9373,-5.79529 0.8688,-33.03311 18.9703,-66.066272 50.6843,-66.066272 18.3912,0 28.2384,5.070876 40.8371,13.763812 2.4619,1.73859 6.0822,0.86927 7.6753,-1.88347 l 14.7707,-26.513461 c 1.4481,-2.607884 0.7241,-6.085047 -1.8826,-7.82363 -17.6671,-12.170119 -36.7824,-18.400038 -62.2693,-18.400038 -47.6432,0 -77.9093,34.626845 -88.4802,76.497799 -0.8691,3.76695 2.0271,7.53389 5.9372,7.53389 2.7513,0 5.2133,-1.88346 5.9373,-4.63623 9.1233,-36.65519 35.0444,-67.22536 76.6057,-67.22536 19.8392,0 35.6239,4.056706 50.6844,13.18429 l -8.3992,15.067748 c -11.8746,-7.389009 -23.17,-11.735475 -41.4164,-11.735475 -37.6511,0 -59.5178,35.496167 -62.5589,71.861597 h -24.6181 c -3.3307,0 -6.0822,2.60788 -6.0822,5.94018 v 7.09921 c 0,60.85054 34.755,109.67584 94.997,109.67584 26.5006,0 46.9192,-7.67876 64.8761,-18.54493 2.7512,-1.5937 3.6202,-5.21574 2.172,-7.96852 z M 1790.4299,51.774596 h -30.4107 c -3.3307,0 -6.082,2.752753 -6.082,6.085049 V 134.35747 H 1643.7349 V 63.944693 h 18.2463 v 47.811147 c 0,3.33229 2.7516,6.08504 6.0823,6.08504 3.3305,0 6.082,-2.75275 6.082,-6.08504 V 57.859645 c 0,-3.332296 -2.7515,-6.085049 -6.082,-6.085049 h -30.4108 c -3.3306,0 -6.0821,2.752753 -6.0821,6.085049 v 82.582875 c 0,3.33229 2.7515,6.08504 6.0821,6.08504 h 122.3665 c 3.3307,0 6.0823,-2.75275 6.0823,-6.08504 V 63.944693 h 18.2461 V 256.63805 h -18.2461 v -87.50884 c 0,-3.33231 -2.7516,-6.08506 -6.0823,-6.08506 h -122.3665 c -3.3306,0 -6.0821,2.75275 -6.0821,6.08506 v 93.5939 c 0,3.33228 2.7515,6.08506 6.0821,6.08506 h 30.4108 c 3.3305,0 6.082,-2.75278 6.082,-6.08506 V 197.8159 c 0,-3.33232 -2.7515,-6.08509 -6.082,-6.08509 -3.3307,0 -6.0823,2.75277 -6.0823,6.08509 v 58.82215 h -18.2463 v -81.4238 h 110.2023 v 87.50886 c 0,3.33228 2.7513,6.08506 6.082,6.08506 h 30.4107 c 3.3308,0 6.082,-2.75278 6.082,-6.08506 V 57.859645 c 0,-3.332296 -2.7512,-6.085049 -6.082,-6.085049 z m 106.5819,176.176764 v -81.27891 h 74.1443 v 16.51657 h -49.8156 c -3.3308,0 -6.0821,2.75278 -6.0821,6.08505 0,3.33229 2.7513,6.08506 6.0821,6.08506 h 55.8975 c 3.4757,0 6.0822,-2.75277 6.0822,-6.08506 v -28.68666 c 0,-3.33229 -2.6065,-6.08508 -6.0822,-6.08508 h -86.3081 c -3.3308,0 -6.0822,2.75279 -6.0822,6.08508 v 93.44902 c 0,3.33228 2.7514,6.08506 6.0822,6.08506 h 85.5841 v 16.51656 H 1866.6015 V 63.944693 h 107.8851 v 16.516585 h -83.5567 c -3.3308,0 -6.0822,2.752758 -6.0822,6.085052 v 25.35439 c 0,3.3323 2.7514,6.08506 6.0822,6.08506 3.4754,0 6.0819,-2.75276 6.0819,-6.08506 V 92.631385 h 83.5569 c 3.4756,0 6.0822,-2.752756 6.0822,-6.085055 V 57.859645 c 0,-3.332296 -2.6066,-6.085049 -6.0822,-6.085049 h -120.0495 c -3.3305,0 -6.0819,2.752753 -6.0819,6.085049 V 262.72311 c 0,3.33228 2.7514,6.08506 6.0819,6.08506 h 122.0769 c 3.4756,0 6.0823,-2.75278 6.0823,-6.08506 v -28.68668 c 0,-3.33229 -2.6067,-6.08507 -6.0823,-6.08507 z m 216.4948,-92.14508 c 0,2.17324 1.3035,4.34647 3.6204,5.36065 31.1344,14.34332 45.0365,35.49614 45.0365,66.64581 0,38.82844 -33.0173,51.86785 -66.9033,51.86785 -21.4323,0 -39.9681,-4.20161 -60.3867,-13.90871 l 6.2269,-16.51656 c 19.8392,9.27245 38.0856,13.90868 54.1598,13.90868 42.4299,0 48.6569,-22.16697 48.6569,-35.35126 0,-34.48197 -23.0251,-45.20325 -43.1541,-56.06941 -15.7846,-8.54806 -29.8314,-15.79218 -29.8314,-38.10403 0,-15.357525 11.1506,-24.195322 32.7279,-24.195322 15.2051,0 29.2519,3.911817 44.7468,11.300822 0.724,0.28976 1.593,0.57952 2.3171,0.57952 2.3169,0 4.6339,-1.448815 5.5028,-3.911818 l 10.2817,-28.252041 c 1.1584,-2.897644 0.1436,-5.940178 -3.041,-7.533872 -16.2192,-8.11341 -30.99,-13.039398 -59.9524,-13.039398 -39.3889,0 -75.1578,21.587442 -75.1578,65.196999 0,31.29456 14.9158,54.18594 41.8508,68.38441 0.8691,0.43466 1.8827,0.7244 2.7516,0.7244 3.7651,0 6.082,-3.1874 6.082,-6.22993 0,-2.02834 -1.0137,-4.05671 -3.1858,-5.21577 -20.129,-10.57638 -35.3342,-28.3969 -35.3342,-57.66311 0,-35.206385 28.5282,-53.0269 62.9934,-53.0269 24.618,0 36.7822,3.477164 49.6705,9.417343 l -6.0819,16.661456 c -15.4951,-6.519701 -29.2522,-9.562236 -43.4436,-9.562236 -32.1486,0 -44.8921,17.67565 -44.8921,36.365447 0,28.39694 17.8122,38.97332 35.9137,48.68044 18.3912,9.99688 37.0717,17.53073 37.0717,45.493 0,16.22681 -13.033,23.18116 -36.4926,23.18116 -17.812,0 -36.9273,-6.66458 -55.0287,-15.64729 -0.8688,-0.43465 -1.7376,-0.57952 -2.6067,-0.57952 -2.317,0 -4.6341,1.30393 -5.5028,3.76692 l -10.5713,28.10717 c -1.1584,2.89765 0.2896,6.22992 3.041,7.67877 20.4186,10.28661 42.4302,17.53073 70.6685,17.53073 45.9055,0 79.0676,-21.73233 79.0676,-64.03794 0,-37.81426 -18.2465,-62.15445 -52.1325,-77.65686 -4.1996,-1.88346 -8.6887,1.15906 -8.6887,5.6504 z"
       id="text19"
       style="font-size:141.112px;line-height:0;font-family:'LIBRARY 3 AM soft';-inkscape-font-specification:'LIBRARY 3 AM soft, Normal';letter-spacing:0px;word-spacing:0px;fill:#ff6600;fill-rule:evenodd;stroke:#ff6600;stroke-width:0.999997;stroke-linecap:round;stroke-linejoin:round;stroke-miterlimit:10;paint-order:fill markers stroke"
       aria-label="MARCHES" /></g><rect
     style="fill:none;fill-rule:evenodd;stroke:none;stroke-width:0.999995;stroke-linecap:round;stroke-linejoin:round;stroke-miterlimit:10;paint-order:fill markers stroke"
     id="rect1"
     width="1672.502"
     height="287.01279"
     x="0.4999975"
     y="0.4999975"
     rx="24.322165"
     ry="24.322168" /></svg>
