<?xml version="1.0" encoding="UTF-8" standalone="no"?>
<!-- Created with Inkscape (http://www.inkscape.org/) -->

<svg
   width="329.47699"
   height="88.776009"
   viewBox="0 0 87.174112 23.488653"
   version="1.1"
   id="svg1"
   sodipodi:docname="m777-logo-ar.svg"
   inkscape:version="1.4 (e7c3feb100, 2024-10-09)"
   xmlns:inkscape="http://www.inkscape.org/namespaces/inkscape"
   xmlns:sodipodi="http://sodipodi.sourceforge.net/DTD/sodipodi-0.dtd"
   xmlns:xlink="http://www.w3.org/1999/xlink"
   xmlns="http://www.w3.org/2000/svg"
   xmlns:svg="http://www.w3.org/2000/svg">
  <sodipodi:namedview
     id="namedview1"
     pagecolor="#ffffff"
     bordercolor="#000000"
     borderopacity="0.25"
     inkscape:showpageshadow="2"
     inkscape:pageopacity="0.0"
     inkscape:pagecheckerboard="true"
     inkscape:deskcolor="#d1d1d1"
     inkscape:zoom="4.0532663"
     inkscape:cx="116.44929"
     inkscape:cy="44.285272"
     inkscape:window-width="1920"
     inkscape:window-height="1052"
     inkscape:window-x="0"
     inkscape:window-y="0"
     inkscape:window-maximized="1"
     inkscape:current-layer="svg1" />
  <defs
     id="defs1">
    <inkscape:path-effect
       effect="offset"
       id="path-effect1"
       is_visible="true"
       lpeversion="1.3"
       linejoin_type="miter"
       unit="px"
       offset="0.5"
       miter_limit="4"
       attempt_force_join="false"
       update_on_knot_move="true" />
  </defs>
  <path
     id="path1"
     style="fill:#000000;fill-rule:evenodd;stroke:#000000;stroke-width:1.28653;stroke-linecap:round;stroke-linejoin:round;stroke-miterlimit:10;stroke-dasharray:none;paint-order:fill markers stroke"
     d="M 64.528543,22.845386 H 4.624822 c -2.205782,0 -3.98155699,-1.677588 -3.98155699,-3.761408 V 4.404673 c 0,-2.08382 1.77577499,-3.76140799 3.98155699,-3.76140799 h 55.717233"
     sodipodi:nodetypes="cssssc" />
  <path
     id="rect4"
     style="fill:#ff6600;fill-rule:evenodd;stroke:#ff6600;stroke-width:1.28653;stroke-linecap:butt;stroke-linejoin:round;stroke-miterlimit:10;stroke-dasharray:none;paint-order:fill markers stroke"
     d="m 64.528543,22.845386 h 18.020752 c 2.205782,0 3.981557,-1.677588 3.981557,-3.761408 V 4.404673 c 0,-2.08382 -1.775775,-3.76140799 -3.981557,-3.76140799 h -22.20724"
     sodipodi:nodetypes="cssssc" />
  <g
     id="g1"
     transform="matrix(0.17373027,0,0,0.17373027,125.34023,-31.320735)">
    <g
       id="g3"
       style="fill:#ffffff;stroke:#ff0000"
       transform="matrix(0.84894837,0,0,0.84894837,-514.32456,325.67658)">
      <rect
         style="fill:#ff6600;fill-rule:evenodd;stroke:none;stroke-width:0.264583;stroke-linecap:round;stroke-linejoin:round;stroke-miterlimit:10;paint-order:fill markers stroke"
         id="rect3"
         width="135.20209"
         height="135.20209"
         x="192.65698"
         y="-159.23422"
         rx="26.981005"
         ry="26.981005" />
    </g>
    <g
       id="g5"
       transform="matrix(1.1185809,0,0,1.1197896,-370.53276,190.8355)"
       style="fill:#ffffff;stroke:#ffffff;stroke-width:0.893507">
      <use
         x="0"
         y="0"
         xlink:href="#g2"
         id="use4"
         transform="translate(-52.916667)"
         style="fill:#ffffff;stroke:#ffffff;stroke-width:0.893507" />
      <use
         x="0"
         y="0"
         xlink:href="#g2"
         id="use3"
         transform="translate(-26.458334)"
         style="fill:#ffffff;stroke:#ffffff;stroke-width:0.893507" />
      <g
         id="g2"
         transform="translate(9.5256134,0.10132618)"
         style="fill:#ffffff;stroke:#ffffff;stroke-width:1.18204;stroke-dasharray:none">
        <path
           id="path2"
           style="color:#000000;fill:#ffffff;fill-rule:evenodd;stroke:#ffffff;stroke-width:2.36407;stroke-linecap:square;stroke-miterlimit:10;stroke-dasharray:none;paint-order:fill markers stroke"
           d="m 76.35177,19.215045 c -1.7196,0.01526 -3.377324,0.972918 -4.228682,2.617928 l -1.595768,3.083016 c -1.238339,2.392741 -0.301713,5.337756 2.025199,6.695198 3.641486,2.12432 7.283135,4.468139 10.924915,6.591846 2.326493,1.356696 3.836517,4.502871 3.305741,7.144266 l -6.78738,33.775654 a 2.8005571,2.8005571 50.681262 0 0 2.745667,3.352312 h 7.108296 c 1.63786,0 3.227363,-1.30169 3.550224,-2.907412 2.773953,-13.795988 5.546297,-27.592295 8.318718,-41.388591 0.53079,-2.641392 -0.9802,-5.784807 -3.339334,-7.085873 -6.571287,-3.624079 -13.14229,-7.668153 -19.714042,-11.2913 -0.737143,-0.406403 -1.531917,-0.593981 -2.313554,-0.587044 z" />
        <text
           xml:space="preserve"
           style="font-weight:bold;font-size:37.9198px;line-height:0;font-family:'Noto Naskh Arabic';-inkscape-font-specification:'Noto Naskh Arabic, Bold';text-align:justify;letter-spacing:1.32292px;word-spacing:2.64583px;direction:rtl;text-orientation:sideways;fill:#ffffff;fill-rule:evenodd;stroke:#ffffff;stroke-width:1.18204;stroke-linecap:square;stroke-linejoin:miter;stroke-miterlimit:10;stroke-dasharray:none;paint-order:fill markers stroke"
           x="168.95973"
           y="13.978068"
           id="text5"><tspan
             id="tspan5"
             style="fill:#ffffff;stroke:#ffffff;stroke-width:1.18204;stroke-dasharray:none"
             x="168.95973"
             y="13.978068" /></text>
      </g>
    </g>
  </g>
  <g
     id="g7"
     transform="translate(-22.351559,-18.623842)">
    <g
       id="g4"
       transform="translate(-2.1166665,-0.61155662)">
      <path
         id="text6"
         style="font-size:14.2507px;line-height:0;font-family:Amin;-inkscape-font-specification:'Amin, Normal';letter-spacing:0px;word-spacing:0px;fill:#ffffff;fill-rule:evenodd;stroke-width:0.0644062;stroke-miterlimit:10;stroke-dashoffset:2.6;paint-order:fill markers stroke"
         d="m 77.252138,27.059552 c -0.767186,0 -1.429408,0.244356 -1.996081,0.723847 -0.557952,0.479491 -0.837149,1.290354 -0.837149,2.414981 0,0.52308 0.08712,1.028669 0.226607,1.482006 -0.427184,0.17436 -0.83688,0.270158 -1.491073,0.274518 l -0.749096,-0.01295 -6.47e-4,-0.26157 c 0,-0.104615 0.009,-0.200722 0.009,-0.331493 0,-0.83693 -0.09591,-1.716982 -0.505657,-2.449294 h 0.009 c -0.339918,-0.54923 -0.723891,-0.959193 -1.151074,-1.212015 -0.479492,-0.270259 -0.950254,-0.444979 -1.499489,-0.514721 h 0.009 c -0.531802,-0.06102 -1.011446,-0.08676 -1.438629,-0.08676 -0.819495,0 -1.51686,0.235291 -2.100968,0.714781 -0.592825,0.488209 -0.889592,1.290355 -0.889592,2.41498 0,1.037445 0.270387,1.787133 0.802187,2.231753 0.523081,0.444621 1.246645,0.740784 2.118448,0.906427 0.130772,0 0.270391,0.01792 0.427316,0.06151 0.09589,0.02616 0.27045,0.0519 0.575582,0.08676 0.226669,0.04359 0.697237,0.165927 0.923907,0.235672 -0.680008,0.92411 -1.586885,1.377422 -2.71151,1.368704 -0.03487,0.688724 -0.07808,1.351383 -0.104232,2.040107 h 0.244087 c 1.054883,0 2.005274,-0.261444 2.807333,-0.714782 0.871802,-0.5318 1.560224,-1.343009 2.013561,-2.424043 h 1.211376 c 1.41266,-0.01744 2.441575,-0.322319 3.339533,-0.906427 l 0.7232,0.269984 1.098717,0.470696 0.392354,0.165747 h 2.868193 v -2.737409 c 0,-1.028727 -0.148081,-1.822063 -0.453214,-2.380017 -0.30513,-0.557955 -0.679907,-0.985052 -1.089654,-1.220439 h -0.009 c -0.427183,-0.270259 -0.923874,-0.453047 -1.412082,-0.514073 -0.549237,-0.06102 -1.011567,-0.09647 -1.360288,-0.09647 z m -9.066855,1.787604 c 0.680005,0 1.2384,0.209257 1.6743,0.636441 0.409748,0.427183 0.618959,1.010915 0.618959,1.73451 v 1.203606 c -0.48821,-0.235386 -1.020267,-0.444855 -1.604375,-0.593061 l 0.009,0.0083 -0.610543,-0.139202 -0.209127,-0.05245 c -0.462055,-0.13077 -0.802079,-0.31395 -1.011311,-0.540617 -0.18308,-0.322568 -0.279051,-0.62715 -0.279051,-0.914845 0,-0.409747 0.122357,-0.741355 0.366456,-1.002895 0.226668,-0.226669 0.574854,-0.33991 1.045628,-0.33991 z m 9.450793,0.200707 c 0.601544,0 1.072081,0.209213 1.412083,0.618961 0.331286,0.401029 0.497239,0.941201 0.497239,1.621209 v 1.159579 c -0.409747,-0.235386 -0.86366,-0.435792 -1.35187,-0.583998 h 0.009 l -0.505613,-0.130785 -0.165746,-0.04402 h 0.009 c -0.409842,-0.113346 -0.689083,-0.278602 -0.854725,-0.479117 -0.165642,-0.287696 -0.244088,-0.584115 -0.244088,-0.880527 0,-0.374876 0.09601,-0.679804 0.29653,-0.92391 0.235386,-0.235386 0.540572,-0.357391 0.898012,-0.357391 z" />
      <path
         id="path11"
         style="font-size:14.2507px;line-height:0;font-family:Amin;-inkscape-font-specification:'Amin, Normal';letter-spacing:0px;word-spacing:0px;fill:#ffffff;fill-rule:evenodd;stroke-width:0.057995;stroke-miterlimit:10;stroke-dashoffset:2.6;paint-order:fill markers stroke"
         d="m 59.100386,27.083983 c -0.149154,0 -0.266523,0.0079 -0.415678,0.01574 -0.847821,0.07065 -1.789972,0.3766 -2.645645,0.933964 V 27.091562 H 55.16748 c -0.321859,0 -0.612214,0.118101 -0.863421,0.361458 -0.227655,0.227655 -0.376467,0.541764 -0.431418,0.942125 v 3.689213 c -0.05495,2.064604 -0.934302,3.108628 -2.645647,3.140029 C 49.531351,35.19299 48.652,34.149003 48.581349,32.1001 v -2.048657 h -0.879161 c -0.35326,0 -0.651587,0.133342 -0.910643,0.408099 -0.251208,0.266907 -0.376618,0.581016 -0.376618,0.942125 l -0.01574,0.07812 0.02332,0.620311 c 0.03925,1.522938 0.479083,2.723976 1.326904,3.595349 0.839972,0.879223 1.970142,1.334836 3.39888,1.358387 0.02356,0 0.02368,0.0076 0.04722,0.0076 h 0.06296 c 0.02356,0 0.0231,-0.0076 0.04664,-0.0076 1.083328,-0.0157 2.002214,-0.282925 2.755833,-0.80104 0.74577,-0.518113 1.303038,-1.271741 1.656298,-2.260867 h 8.219109 V 31.91937 c 0,-1.122579 -0.259334,-2.056392 -0.785298,-2.794311 -0.510263,-0.722219 -1.208754,-1.2721 -1.962373,-1.609658 -0.651567,-0.274757 -1.366081,-0.431418 -2.0883,-0.431418 z m -0.01574,1.939052 c 0.75362,0 1.429073,0.219609 2.049238,0.714172 0.635868,0.502414 0.957867,1.232289 0.957867,2.182163 v 0.212211 H 56.062383 V 31.91937 c 0,-0.949874 0.321999,-1.679749 0.957865,-2.182163 0.628017,-0.494563 1.310779,-0.714172 2.064398,-0.714172 z" />
      <path
         style="font-size:14.2507px;line-height:0;font-family:Amin;-inkscape-font-specification:'Amin, Normal';letter-spacing:0px;word-spacing:0px;fill:#ffffff;fill-rule:evenodd;stroke-width:0.0696533;stroke-miterlimit:10;stroke-dashoffset:2.6;paint-order:fill markers stroke"
         d="m 60.355559,25.45887 c 0.0095,-0.377131 -0.07543,-0.650551 -0.254564,-0.820259 -0.179136,-0.188566 -0.461985,-0.282849 -0.829687,-0.282849 h -1.178534 v 1.744231 h 2.262785 z"
         id="path9" />
    </g>
    <g
       id="g8"
       transform="translate(-4.2333334,1.0138449)">
      <path
         id="path7"
         style="font-size:11.2889px;line-height:0;font-family:'Oswald Stencil';-inkscape-font-specification:'Oswald Stencil, Normal';letter-spacing:0px;word-spacing:0px;fill:#ffffff;fill-rule:evenodd;stroke:#ffffff;stroke-width:0.249835;stroke-miterlimit:10;stroke-dasharray:none;stroke-dashoffset:2.6;paint-order:fill markers stroke"
         d="M 42.769687,26.101271 H 40.70854 v -1.384508 h 2.352623 z m 0.556926,-1.384508 h 1.290822 v 0.858812 l -1.847748,8.416352 h -1.420943 z" />
      <path
         id="path5"
         style="font-size:11.2889px;line-height:0;font-family:'Oswald Stencil';-inkscape-font-specification:'Oswald Stencil, Normal';letter-spacing:0px;word-spacing:0px;fill:#ffffff;fill-rule:evenodd;stroke:#ffffff;stroke-width:0.249835;stroke-miterlimit:10;stroke-dasharray:none;stroke-dashoffset:2.6;paint-order:fill markers stroke"
         d="m 38.050561,26.101271 h -2.061147 v -1.384508 h 2.352622 z m 0.556927,-1.384508 h 1.290819 v 0.858812 l -1.847746,8.416352 h -1.420942 z" />
      <path
         id="text7"
         style="font-size:11.2889px;line-height:0;font-family:'Oswald Stencil';-inkscape-font-specification:'Oswald Stencil, Normal';letter-spacing:0px;word-spacing:0px;fill:#ffffff;fill-rule:evenodd;stroke:#ffffff;stroke-width:0.249835;stroke-miterlimit:10;stroke-dasharray:none;stroke-dashoffset:2.6;paint-order:fill markers stroke"
         d="m 33.331436,26.101271 h -2.061149 v -1.384508 h 2.352624 z m 0.556926,-1.384508 h 1.290819 v 0.858812 l -1.847745,8.416352 h -1.420944 z" />
    </g>
  </g>
</svg>
