<?xml version="1.0" encoding="UTF-8" standalone="no"?>
<!-- Created with Inkscape (http://www.inkscape.org/) -->

<svg
   width="309.47699"
   height="88.776176"
   viewBox="0 0 81.882446 23.488697"
   version="1.1"
   id="svg1"
   sodipodi:docname="m777-logo-la.svg"
   inkscape:version="1.4 (e7c3feb100, 2024-10-09)"
   xmlns:inkscape="http://www.inkscape.org/namespaces/inkscape"
   xmlns:sodipodi="http://sodipodi.sourceforge.net/DTD/sodipodi-0.dtd"
   xmlns:xlink="http://www.w3.org/1999/xlink"
   xmlns="http://www.w3.org/2000/svg"
   xmlns:svg="http://www.w3.org/2000/svg">
  <sodipodi:namedview
     id="namedview1"
     pagecolor="#ffffff"
     bordercolor="#000000"
     borderopacity="0.25"
     inkscape:showpageshadow="2"
     inkscape:pageopacity="0.0"
     inkscape:pagecheckerboard="true"
     inkscape:deskcolor="#d1d1d1"
     inkscape:zoom="1.557966"
     inkscape:cx="133.82834"
     inkscape:cy="44.609446"
     inkscape:window-width="1920"
     inkscape:window-height="1052"
     inkscape:window-x="0"
     inkscape:window-y="0"
     inkscape:window-maximized="1"
     inkscape:current-layer="svg1" />
  <defs
     id="defs1">
    <inkscape:path-effect
       effect="offset"
       id="path-effect1"
       is_visible="true"
       lpeversion="1.3"
       linejoin_type="miter"
       unit="px"
       offset="0.5"
       miter_limit="4"
       attempt_force_join="false"
       update_on_knot_move="true" />
  </defs>
  <g
     id="g11">
    <path
       id="path1"
       style="fill:#000000;fill-rule:evenodd;stroke:#000000;stroke-width:1.28653;stroke-linecap:round;stroke-linejoin:round;stroke-miterlimit:10;stroke-dasharray:none;paint-order:fill markers stroke"
       d="m 24.233074,22.845386 h 53.024554 c 2.205782,0 3.981557,-1.677588 3.981557,-3.761408 V 4.404673 c 0,-2.08382 -1.775775,-3.76140799 -3.981557,-3.76140799 H 28.419562"
       sodipodi:nodetypes="cssssc" />
    <path
       id="rect4"
       style="fill:#ff6600;fill-rule:evenodd;stroke:#ff6600;stroke-width:1.28653;stroke-linecap:butt;stroke-linejoin:round;stroke-miterlimit:10;stroke-dasharray:none;paint-order:fill markers stroke"
       d="m 24.233074,22.845386 -19.6082516,0 c -2.2057819,0 -3.98155739,-1.677588 -3.98155739,-3.761408 V 4.404673 c 0,-2.08382 1.77577549,-3.76140799 3.98155739,-3.76140799 l 23.7947396,0"
       sodipodi:nodetypes="cssssc" />
    <g
       id="g1"
       transform="matrix(0.17373027,0,0,0.17373027,62.713149,-31.320735)">
      <g
         id="g3"
         style="fill:#ffffff;stroke:#ff0000"
         transform="matrix(0.84894837,0,0,0.84894837,-514.32456,325.67658)">
        <rect
           style="fill:#ff6600;fill-rule:evenodd;stroke:none;stroke-width:0.264583;stroke-linecap:round;stroke-linejoin:round;stroke-miterlimit:10;paint-order:fill markers stroke"
           id="rect3"
           width="135.20209"
           height="135.20209"
           x="192.65698"
           y="-159.23422"
           rx="26.981005"
           ry="26.981005" />
      </g>
      <g
         id="g5"
         transform="matrix(1.1185809,0,0,1.1197896,-370.53276,190.8355)"
         style="fill:#ffffff;stroke:#ffffff;stroke-width:0.893507">
        <use
           x="0"
           y="0"
           xlink:href="#g2"
           id="use4"
           transform="translate(-52.916667)"
           style="fill:#ffffff;stroke:#ffffff;stroke-width:0.893507" />
        <use
           x="0"
           y="0"
           xlink:href="#g2"
           id="use3"
           transform="translate(-26.458334)"
           style="fill:#ffffff;stroke:#ffffff;stroke-width:0.893507" />
        <g
           id="g2"
           transform="translate(9.5256134,0.10132618)"
           style="fill:#ffffff;stroke:#ffffff;stroke-width:1.18204;stroke-dasharray:none">
          <path
             id="path2"
             style="color:#000000;fill:#ffffff;fill-rule:evenodd;stroke:#ffffff;stroke-width:2.36407;stroke-linecap:square;stroke-miterlimit:10;stroke-dasharray:none;paint-order:fill markers stroke"
             d="m 76.35177,19.215045 c -1.7196,0.01526 -3.377324,0.972918 -4.228682,2.617928 l -1.595768,3.083016 c -1.238339,2.392741 -0.301713,5.337756 2.025199,6.695198 3.641486,2.12432 7.283135,4.468139 10.924915,6.591846 2.326493,1.356696 3.836517,4.502871 3.305741,7.144266 l -6.78738,33.775654 a 2.8005571,2.8005571 50.681262 0 0 2.745667,3.352312 h 7.108296 c 1.63786,0 3.227363,-1.30169 3.550224,-2.907412 2.773953,-13.795988 5.546297,-27.592295 8.318718,-41.388591 0.53079,-2.641392 -0.9802,-5.784807 -3.339334,-7.085873 -6.571287,-3.624079 -13.14229,-7.668153 -19.714042,-11.2913 -0.737143,-0.406403 -1.531917,-0.593981 -2.313554,-0.587044 z" />
          <text
             xml:space="preserve"
             style="font-weight:bold;font-size:37.9198px;line-height:0;font-family:'Noto Naskh Arabic';-inkscape-font-specification:'Noto Naskh Arabic, Bold';text-align:justify;letter-spacing:1.32292px;word-spacing:2.64583px;direction:rtl;text-orientation:sideways;fill:#ffffff;fill-rule:evenodd;stroke:#ffffff;stroke-width:1.18204;stroke-linecap:square;stroke-linejoin:miter;stroke-miterlimit:10;stroke-dasharray:none;paint-order:fill markers stroke"
             x="168.95973"
             y="13.978068"
             id="text5"><tspan
               id="tspan5"
               style="fill:#ffffff;stroke:#ffffff;stroke-width:1.18204;stroke-dasharray:none"
               x="168.95973"
               y="13.978068" /></text>
        </g>
      </g>
    </g>
    <path
       style="font-size:12.5034px;line-height:0;font-family:'Oswald Regular';-inkscape-font-specification:'Oswald Regular, Normal';letter-spacing:0.146524px;word-spacing:0px;text-orientation:sideways;white-space:pre;fill:#ffffff;fill-rule:evenodd;stroke:#ffffff;stroke-width:0.529167;stroke-linecap:round;stroke-linejoin:round;stroke-miterlimit:10;stroke-dasharray:none;paint-order:fill markers stroke"
       d="m 43.599609,6.453125 c -1.014279,0 -1.766194,0.2815479 -2.230468,0.8671875 -0.452938,0.5724739 -0.669922,1.4039104 -0.669922,2.4726563 v 3.8300782 c 0,0.528145 0.04933,0.993128 0.15039,1.396484 0.101475,0.405015 0.263499,0.764401 0.486328,1.072266 0.227268,0.313994 0.532039,0.549529 0.91211,0.708984 0.382272,0.158571 0.833281,0.236328 1.351562,0.236328 1.007291,0 1.75808,-0.295059 2.220703,-0.90039 0.459804,-0.596018 0.681641,-1.43756 0.681641,-2.507813 V 9.7929688 c 0,-1.0610838 -0.221468,-1.8912638 -0.677734,-2.4667969 C 45.360313,6.7366327 44.610062,6.453125 43.599609,6.453125 Z m -10.96289,0.095703 V 16.925781 h 1.341797 v -6.322265 l 1.466796,6.322265 h 1.00586 l 1.478515,-6.330078 v 6.330078 h 1.330079 V 6.5488281 H 37.638672 L 35.941406,14.267578 34.257812,6.5488281 Z m 15.146484,0 V 16.925781 h 2.435547 c 1.060145,0 1.843478,-0.280309 2.320312,-0.865234 0.474933,-0.581606 0.703126,-1.446761 0.703125,-2.572266 V 9.7675781 C 53.242188,8.6858162 53.012035,7.8673134 52.529297,7.3378906 52.046083,6.8031271 51.229072,6.5488281 50.115234,6.5488281 Z m 6.740234,0 V 16.925781 h 4.220704 v -1.277343 h -2.542969 v -3.441407 h 2.041015 V 10.935547 H 56.201172 V 7.8574219 h 2.511719 V 6.5488281 Z m 7.798829,0 v 1.3164063 h 2.685546 l -1.833984,9.0605466 h 1.560547 L 66.634766,7.3417969 V 6.5488281 Z m 4.96289,0 v 1.3164063 h 2.685547 l -1.833984,9.0605466 h 1.560547 l 1.90039,-9.5839841 V 6.5488281 Z m 4.962891,0 v 1.3164063 h 2.685547 l -1.833985,9.0605466 h 1.560547 L 76.558594,7.3417969 V 6.5488281 Z M 43.599609,7.8164062 c 0.264408,0 0.476051,0.037441 0.634766,0.109375 0.159057,0.067011 0.271486,0.1685378 0.351562,0.3144532 0.08602,0.156739 0.143001,0.3294087 0.173829,0.5214844 C 44.794369,8.9535445 44.8125,9.2002843 44.8125,9.5 v 4.427734 c 0,0.303851 -0.01761,0.55715 -0.05273,0.759766 -0.03045,0.193711 -0.08925,0.36981 -0.175782,0.53125 -0.08093,0.150982 -0.194627,0.259083 -0.355468,0.333984 -0.155521,0.07407 -0.365692,0.115235 -0.628907,0.115235 -0.263214,0 -0.473115,-0.04088 -0.632812,-0.115235 -0.155713,-0.07416 -0.268351,-0.182388 -0.34961,-0.333984 -0.08687,-0.162058 -0.147696,-0.337548 -0.18164,-0.529297 -0.0311,-0.201762 -0.04687,-0.45736 -0.04687,-0.761719 V 9.5 c 0,-0.3002332 0.01634,-0.5477355 0.04687,-0.7382812 0.03436,-0.190493 0.09333,-0.3641219 0.179687,-0.5214844 0.08042,-0.1465371 0.191476,-0.24715 0.347657,-0.3144532 0.160649,-0.071245 0.372312,-0.1093749 0.636718,-0.109375 z m 5.859375,0.041016 h 0.632813 c 0.201644,0 0.374799,0.014412 0.519531,0.041016 0.145701,0.026782 0.269438,0.064441 0.375,0.1132813 0.09516,0.040693 0.172289,0.098512 0.238281,0.1816406 0.07052,0.085184 0.127913,0.1744766 0.171875,0.2695312 0.04117,0.089007 0.07442,0.2146123 0.09766,0.3730469 0.02384,0.1625118 0.03898,0.3239325 0.04687,0.4863281 0.008,0.1632862 0.01172,0.3686876 0.01172,0.6113282 v 3.2871092 c 0,0.288128 -0.0018,0.508068 -0.0059,0.660156 -0.0039,0.145911 -0.01496,0.327402 -0.03516,0.541016 -0.01979,0.209313 -0.05107,0.364837 -0.08594,0.458984 -0.03303,0.09886 -0.0851,0.209723 -0.160156,0.335938 -0.06377,0.113116 -0.138184,0.188572 -0.220703,0.234375 -0.09812,0.05076 -0.228288,0.09819 -0.386719,0.140625 -0.149463,0.03728 -0.329284,0.05664 -0.537109,0.05664 h -0.66211 z"
       id="text1"
       aria-label="MODE 777"
       sodipodi:nodetypes="ccccccccccccccscsssscscsscscscscsscscscscsscscccscsscsccsccccscsssssccssccccccccccccccccccccccccccccccccccccccc"
       inkscape:path-effect="#path-effect1"
       inkscape:original-d="M 32.769967,16.79394 V 6.6825588 h 1.381262 l 1.790762,8.2025372 1.802987,-8.2025372 h 1.381339 V 16.79394 H 38.062692 V 9.4451979 L 36.345372,16.79394 H 35.550835 L 33.845762,9.4451979 V 16.79394 Z m 10.830131,0.109773 c -0.505244,0 -0.939182,-0.07522 -1.301816,-0.225645 -0.358561,-0.150432 -0.643779,-0.372012 -0.855655,-0.664741 -0.211876,-0.292731 -0.366709,-0.634249 -0.464498,-1.024555 -0.09779,-0.390307 -0.146684,-0.845664 -0.146684,-1.366073 V 9.7928147 c 0,-1.0530147 0.213913,-1.8498908 0.641741,-2.3906281 0.431901,-0.544803 1.140872,-0.8172046 2.126912,-0.8172046 0.981966,0 1.688899,0.2744344 2.120801,0.8233031 0.431903,0.544803 0.647853,1.3396462 0.647853,2.3845296 v 3.8359823 c 0,1.053014 -0.217988,1.862087 -0.653964,2.427219 -0.431903,0.565132 -1.136799,0.847697 -2.11469,0.847697 z m -0.690635,-1.231905 c 0.183354,0.08538 0.413566,0.128069 0.690635,0.128069 0.27707,0 0.505245,-0.04269 0.684524,-0.128069 0.183355,-0.08538 0.321889,-0.215481 0.415604,-0.390306 0.09371,-0.174825 0.156869,-0.365913 0.189466,-0.573263 0.03667,-0.211416 0.05501,-0.47162 0.05501,-0.780613 V 9.5000846 c 0,-0.3049269 -0.01834,-0.5590328 -0.05501,-0.7623175 -0.0326,-0.2032848 -0.09575,-0.3903067 -0.189466,-0.5610658 -0.09371,-0.1707592 -0.232249,-0.2947629 -0.415604,-0.372011 -0.179279,-0.081314 -0.407454,-0.1219708 -0.684524,-0.1219708 -0.277069,0 -0.507281,0.040657 -0.690635,0.1219708 -0.17928,0.077248 -0.315777,0.2012518 -0.409492,0.372011 -0.09371,0.1707591 -0.158907,0.357781 -0.195578,0.5610658 -0.0326,0.2032847 -0.04889,0.4573906 -0.04889,0.7623175 v 4.4275414 c 0,0.308993 0.0163,0.569197 0.04889,0.780613 0.03667,0.20735 0.101866,0.398438 0.195578,0.573263 0.09371,0.174825 0.230212,0.304926 0.409492,0.390306 z m 5.005578,1.122132 V 6.6825588 h 2.200255 c 1.096052,0 1.868178,0.2480073 2.316378,0.7440219 0.452274,0.4960147 0.678412,1.276628 0.678412,2.3418398 v 3.7201105 c 0,1.109934 -0.2241,1.939336 -0.6723,2.488205 -0.444126,0.544802 -1.183656,0.817204 -2.218589,0.817204 z m 1.41183,-1.012358 h 0.794536 c 0.215951,0 0.405417,-0.02033 0.568399,-0.06098 0.167057,-0.04472 0.305591,-0.09555 0.415604,-0.152463 0.110012,-0.06098 0.20169,-0.15653 0.275032,-0.286631 0.07741,-0.130102 0.13446,-0.250041 0.171131,-0.359814 0.04074,-0.109774 0.07131,-0.272402 0.09168,-0.487884 0.02037,-0.215481 0.0326,-0.398437 0.03667,-0.548869 0.0041,-0.154496 0.0061,-0.376075 0.0061,-0.66474 V 9.9330811 c 0,-0.2439416 -0.0041,-0.4492592 -0.01222,-0.6159526 -0.0081,-0.1666935 -0.02444,-0.3333869 -0.04889,-0.5000804 -0.02445,-0.1666934 -0.06112,-0.3028942 -0.11001,-0.4086023 -0.04889,-0.1057081 -0.11205,-0.2053175 -0.189466,-0.2988285 -0.07742,-0.097577 -0.173169,-0.1707591 -0.287256,-0.2195474 -0.114087,-0.052854 -0.248548,-0.093511 -0.40338,-0.1219709 -0.154833,-0.02846 -0.33615,-0.04269 -0.543952,-0.04269 h -0.763977 z m 5.329505,1.012358 V 6.6825588 h 3.923787 V 7.7254092 H 56.068206 V 11.06741 h 2.041347 v 1.006259 h -2.041347 v 3.707913 h 2.542516 v 1.012358 z m 8.678781,0 1.833544,-9.0624322 h -2.713646 v -1.048949 h 4.046023 V 7.3290041 L 64.62475,16.79394 Z m 4.962794,0 1.833546,-9.0624322 H 67.41785 v -1.048949 h 4.046023 V 7.3290041 L 69.587545,16.79394 Z m 4.962794,0 1.833546,-9.0624322 h -2.713647 v -1.048949 h 4.046023 V 7.3290041 L 74.550339,16.79394 Z" />
  </g>
</svg>
