<?xml version="1.0" encoding="UTF-8" standalone="no"?>
<!-- Created with Inkscape (http://www.inkscape.org/) -->

<svg
   width="261.47699"
   height="88.776009"
   viewBox="0 0 69.182447 23.488653"
   version="1.1"
   id="svg1"
   sodipodi:docname="portfolio-link.svg"
   inkscape:version="1.4.1 (93de688d07, 2025-03-30)"
   xmlns:inkscape="http://www.inkscape.org/namespaces/inkscape"
   xmlns:sodipodi="http://sodipodi.sourceforge.net/DTD/sodipodi-0.dtd"
   xmlns="http://www.w3.org/2000/svg"
   xmlns:svg="http://www.w3.org/2000/svg">
  <sodipodi:namedview
     id="namedview1"
     pagecolor="#ffffff"
     bordercolor="#000000"
     borderopacity="0.25"
     inkscape:showpageshadow="2"
     inkscape:pageopacity="0.0"
     inkscape:pagecheckerboard="true"
     inkscape:deskcolor="#d1d1d1"
     inkscape:zoom="1.8216736"
     inkscape:cx="85.361066"
     inkscape:cy="44.190134"
     inkscape:window-width="1920"
     inkscape:window-height="1052"
     inkscape:window-x="0"
     inkscape:window-y="0"
     inkscape:window-maximized="1"
     inkscape:current-layer="g8" />
  <defs
     id="defs1">
    <inkscape:path-effect
       effect="offset"
       id="path-effect1"
       is_visible="true"
       lpeversion="1.3"
       linejoin_type="miter"
       unit="px"
       offset="0.5"
       miter_limit="4"
       attempt_force_join="false"
       update_on_knot_move="true" />
  </defs>
  <g
     id="g11">
    <path
       id="rect4"
       style="fill:#cccccc;fill-rule:evenodd;stroke:#cccccc;stroke-width:1.28653;stroke-linecap:butt;stroke-linejoin:round;stroke-miterlimit:10;stroke-dasharray:none;paint-order:fill markers stroke"
       d="M 24.233074,22.845386 H 4.6248224 c -2.2057819,0 -3.98155739,-1.677588 -3.98155739,-3.761408 V 4.404673 c 0,-2.08382 1.77577549,-3.76140799 3.98155739,-3.76140799 H 28.419562 M 24.233074,22.845386 h 40.324554 c 2.205782,0 3.981557,-1.677588 3.981557,-3.761408 V 4.404673 c 0,-2.08382 -1.775775,-3.76140799 -3.981557,-3.76140799 H 28.419562"
       sodipodi:nodetypes="cssssccssssc" />
    <g
       id="g8"
       transform="translate(-0.00350281,-0.04810934)">
      <path
         style="font-size:13.1268px;line-height:0;font-family:'Oswald Regular';-inkscape-font-specification:'Oswald Regular, Normal';text-align:justify;letter-spacing:0px;word-spacing:0px;fill:#ff6600;fill-rule:evenodd;stroke-width:0.264583;stroke-linecap:round;stroke-linejoin:round;stroke-miterlimit:10;stroke-dashoffset:2.6;paint-order:fill markers stroke"
         d="M 8.9457232,11.035564 H 9.618728 q 0.974255,0 1.3396,-0.346117 0.365346,-0.346116 0.365346,-1.3267806 0,-0.4038029 -0.01923,-0.6601857 Q 11.285216,8.4396883 11.214711,8.2089438 11.150615,7.9781992 11.041653,7.8564174 10.93269,7.728226 10.733993,7.638492 10.541706,7.548758 10.278914,7.5167102 10.022531,7.4846623 9.6379567,7.4846623 H 8.9457232 Z M 7.4651125,17.047741 V 6.4206737 h 2.6343335 q 1.384467,0 2.006195,0.7499197 0.621729,0.7435101 0.621729,2.1856634 0,1.2947332 -0.673005,2.0190142 -0.666596,0.724282 -1.94851,0.724282 H 8.9457232 v 4.948188 z m 8.1786115,0.108963 q -0.621728,0 -1.057579,-0.192287 Q 14.156704,16.772129 13.90673,16.393965 13.656757,16.0158 13.541385,15.522263 13.432422,15.022317 13.432422,14.355721 v -2.198482 q 0,-0.666595 0.108963,-1.160132 0.115372,-0.499947 0.365345,-0.878111 0.249974,-0.378165 0.679415,-0.5704521 0.435851,-0.1922871 1.057579,-0.1922871 1.198589,0 1.704946,0.7178722 0.506356,0.717872 0.506356,2.08311 v 2.198482 q 0,1.365239 -0.506356,2.083111 -0.506357,0.717872 -1.704946,0.717872 z m 0,-1.038351 q 0.192287,0 0.333297,-0.05769 0.147421,-0.05769 0.230745,-0.192287 0.08332,-0.134601 0.134601,-0.256383 0.05128,-0.128191 0.07051,-0.358936 0.02564,-0.237154 0.02564,-0.378164 0.0064,-0.14742 0.0064,-0.429442 v -2.37795 q 0,-0.243564 -0.0064,-0.365346 0,-0.121781 -0.01282,-0.333297 -0.01282,-0.211516 -0.04487,-0.320479 -0.02564,-0.115372 -0.08332,-0.262792 -0.05769,-0.14742 -0.14742,-0.217925 -0.08332,-0.07051 -0.211516,-0.121782 -0.128191,-0.05769 -0.29484,-0.05769 -0.166649,0 -0.30125,0.05769 -0.128191,0.05128 -0.211516,0.121782 -0.08332,0.07051 -0.14742,0.217925 -0.05769,0.14742 -0.08973,0.262792 -0.02564,0.108963 -0.03846,0.320479 -0.01282,0.211516 -0.01923,0.333297 0,0.121782 0,0.365346 v 2.37795 q 0,0.243564 0,0.365346 0.0064,0.121782 0.01923,0.333298 0.01282,0.211515 0.03846,0.326888 0.03205,0.108962 0.08973,0.256382 0.0641,0.141011 0.14742,0.217926 0.08333,0.0705 0.211516,0.121782 0.134601,0.05128 0.30125,0.05128 z m 3.525264,0.929388 V 9.4588099 h 1.403696 v 1.0832171 q 0.390984,-0.6537759 0.801196,-0.9165683 0.416622,-0.2627923 0.878111,-0.2627923 0.128192,0 0.230745,0.012819 v 1.5511155 q -0.390984,-0.14742 -0.769149,-0.14742 -0.352526,0 -0.621728,0.16024 -0.262792,0.153829 -0.519175,0.564042 v 5.544278 z m 6.204464,0.108963 q -0.865292,0 -1.249866,-0.45508 -0.378165,-0.455079 -0.390984,-1.358829 V 10.394607 H 22.937815 V 9.4588099 h 0.794787 V 7.2475082 h 1.403696 v 2.2113017 h 1.217818 v 0.9357971 h -1.217818 v 4.852045 q 0,0.455079 0.14101,0.640957 0.14742,0.185877 0.551223,0.185877 0.30125,0 0.519175,-0.03205 v 1.038351 q -0.615318,0.07691 -0.974254,0.07691 z m 2.474094,-0.108963 V 10.50357 H 26.930978 V 9.4588099 h 0.916568 V 9.0678262 q 0,-0.4614891 0.03205,-0.7819676 0.03205,-0.3204785 0.134601,-0.6217283 0.102553,-0.3012498 0.275612,-0.4807178 0.179468,-0.1794679 0.474308,-0.282021 0.30125,-0.1089627 0.724281,-0.1089627 0.346117,0 0.910159,0.070505 v 1.0511695 q -0.512765,-0.064096 -0.519175,-0.064096 -0.384574,0 -0.512766,0.2435637 -0.121781,0.2371541 -0.121781,0.730691 v 0.6345474 h 1.160132 V 10.50357 h -1.160132 v 6.544171 z m 5.390449,0.108963 q -0.621728,0 -1.057579,-0.192287 -0.429441,-0.192288 -0.679414,-0.570452 -0.249974,-0.378165 -0.365346,-0.871702 -0.108963,-0.499946 -0.108963,-1.166542 v -2.198482 q 0,-0.666595 0.108963,-1.160132 0.115372,-0.499947 0.365346,-0.878111 0.249973,-0.378165 0.679414,-0.5704521 0.435851,-0.1922871 1.057579,-0.1922871 1.19859,0 1.704946,0.7178722 0.506356,0.717872 0.506356,2.08311 v 2.198482 q 0,1.365239 -0.506356,2.083111 -0.506356,0.717872 -1.704946,0.717872 z m 0,-1.038351 q 0.192287,0 0.333298,-0.05769 0.14742,-0.05769 0.230744,-0.192287 0.08333,-0.134601 0.134601,-0.256383 0.05128,-0.128191 0.0705,-0.358936 0.02564,-0.237154 0.02564,-0.378164 0.0064,-0.14742 0.0064,-0.429442 v -2.37795 q 0,-0.243564 -0.0064,-0.365346 0,-0.121781 -0.01282,-0.333297 -0.01282,-0.211516 -0.04487,-0.320479 -0.02564,-0.115372 -0.08333,-0.262792 -0.05769,-0.14742 -0.14742,-0.217925 -0.08332,-0.07051 -0.211516,-0.121782 -0.128191,-0.05769 -0.29484,-0.05769 -0.166649,0 -0.30125,0.05769 -0.128191,0.05128 -0.211516,0.121782 -0.08332,0.07051 -0.14742,0.217925 -0.05769,0.14742 -0.08973,0.262792 -0.02564,0.108963 -0.03846,0.320479 -0.01282,0.211516 -0.01923,0.333297 0,0.121782 0,0.365346 v 2.37795 q 0,0.243564 0,0.365346 0.0064,0.121782 0.01923,0.333298 0.01282,0.211515 0.03846,0.326888 0.03205,0.108962 0.08973,0.256382 0.0641,0.141011 0.14742,0.217926 0.08333,0.0705 0.211516,0.121782 0.134601,0.05128 0.30125,0.05128 z m 3.621407,0.929388 V 6.4206737 h 1.410106 V 17.047741 Z M 39.827031,8.3371352 V 6.862934 h 1.410106 v 1.4742012 z m 0,8.7106058 V 9.4588099 h 1.403696 v 7.5889311 z m 4.980237,0.108963 q -0.621728,0 -1.057579,-0.192287 -0.429441,-0.192288 -0.679414,-0.570452 -0.249974,-0.378165 -0.365346,-0.871702 -0.108963,-0.499946 -0.108963,-1.166542 v -2.198482 q 0,-0.666595 0.108963,-1.160132 0.115372,-0.499947 0.365346,-0.878111 0.249973,-0.378165 0.679414,-0.5704521 0.435851,-0.1922871 1.057579,-0.1922871 1.19859,0 1.704946,0.7178722 0.506356,0.717872 0.506356,2.08311 v 2.198482 q 0,1.365239 -0.506356,2.083111 -0.506356,0.717872 -1.704946,0.717872 z m 0,-1.038351 q 0.192287,0 0.333298,-0.05769 0.14742,-0.05769 0.230744,-0.192287 0.08333,-0.134601 0.134601,-0.256383 0.05128,-0.128191 0.07051,-0.358936 0.02564,-0.237154 0.02564,-0.378164 0.0064,-0.14742 0.0064,-0.429442 v -2.37795 q 0,-0.243564 -0.0064,-0.365346 0,-0.121781 -0.01282,-0.333297 -0.01282,-0.211516 -0.04487,-0.320479 -0.02564,-0.115372 -0.08333,-0.262792 -0.05769,-0.14742 -0.14742,-0.217925 -0.08332,-0.07051 -0.211516,-0.121782 -0.128191,-0.05769 -0.29484,-0.05769 -0.166649,0 -0.30125,0.05769 -0.128191,0.05128 -0.211516,0.121782 -0.08332,0.07051 -0.14742,0.217925 -0.05769,0.14742 -0.08973,0.262792 -0.02564,0.108963 -0.03846,0.320479 -0.01282,0.211516 -0.01923,0.333297 0,0.121782 0,0.365346 v 2.37795 q 0,0.243564 0,0.365346 0.0064,0.121782 0.01923,0.333298 0.01282,0.211515 0.03846,0.326888 0.03205,0.108962 0.08973,0.256382 0.0641,0.141011 0.14742,0.217926 0.08333,0.0705 0.211516,0.121782 0.134601,0.05128 0.30125,0.05128 z"
         id="text2"
         transform="scale(0.99968231,1.0003178)"
         aria-label="Portfolio" />
      <path
         id="path4"
         style="fill:none;fill-rule:evenodd;stroke:#ff6600;stroke-width:2.11666;stroke-linecap:round;stroke-linejoin:round;stroke-miterlimit:10;stroke-dasharray:none;stroke-dashoffset:2.6;paint-order:fill markers stroke"
         d="M 60.668386,15.304841 V 7.8007725 h -7.504067 m -0.383081,7.8871505 6.761538,-6.7615402"
         sodipodi:nodetypes="ccccc" />
    </g>
  </g>
</svg>
