<?xml version="1.0" encoding="UTF-8" standalone="no"?>
<!-- Created with Inkscape (http://www.inkscape.org/) -->

<svg
   width="164.6145"
   height="83.913528"
   viewBox="0 0 43.554249 22.202122"
   version="1.1"
   id="svg1"
   sodipodi:docname="powered-by.svg"
   inkscape:version="1.4.1 (93de688d07, 2025-03-30)"
   xmlns:inkscape="http://www.inkscape.org/namespaces/inkscape"
   xmlns:sodipodi="http://sodipodi.sourceforge.net/DTD/sodipodi-0.dtd"
   xmlns="http://www.w3.org/2000/svg"
   xmlns:svg="http://www.w3.org/2000/svg">
  <sodipodi:namedview
     id="namedview1"
     pagecolor="#ffffff"
     bordercolor="#000000"
     borderopacity="0.25"
     inkscape:showpageshadow="2"
     inkscape:pageopacity="0.0"
     inkscape:pagecheckerboard="true"
     inkscape:deskcolor="#d1d1d1"
     inkscape:zoom="1.8216736"
     inkscape:cx="76.577934"
     inkscape:cy="41.994351"
     inkscape:window-width="1920"
     inkscape:window-height="1052"
     inkscape:window-x="0"
     inkscape:window-y="0"
     inkscape:window-maximized="1"
     inkscape:current-layer="g11" />
  <defs
     id="defs1">
    <inkscape:path-effect
       effect="offset"
       id="path-effect1"
       is_visible="true"
       lpeversion="1.3"
       linejoin_type="miter"
       unit="px"
       offset="0.5"
       miter_limit="4"
       attempt_force_join="false"
       update_on_knot_move="true" />
  </defs>
  <g
     id="g11"
     transform="translate(-0.64326501,-0.64326501)">
    <path
       id="rect4"
       style="fill:none;fill-rule:evenodd;stroke:none;stroke-width:1.28653;stroke-linecap:butt;stroke-linejoin:round;stroke-miterlimit:10;stroke-dasharray:none;paint-order:fill markers stroke"
       d="M 24.233074,22.845386 H 4.6248224 c -2.2057819,0 -3.98155739,-1.677588 -3.98155739,-3.761408 V 4.404673 c 0,-2.08382 1.77577549,-3.76140799 3.98155739,-3.76140799 H 28.419562 M 24.233074,22.845386 h 15.982888 c 2.205782,0 3.981557,-1.677588 3.981557,-3.761408 V 4.404673 c 0,-2.08382 -1.775775,-3.76140799 -3.981557,-3.76140799 h -11.7964"
       sodipodi:nodetypes="cssssccssssc" />
    <path
       style="font-size:8.63057px;line-height:0;font-family:'Oswald Regular';-inkscape-font-specification:'Oswald Regular, Normal';text-align:justify;letter-spacing:0px;word-spacing:0px;fill:#808080;fill-rule:evenodd;stroke-width:0.264584;stroke-linecap:round;stroke-linejoin:round;stroke-miterlimit:10;stroke-dashoffset:2.6;paint-order:fill markers stroke"
       d="m 7.3764072,10.657559 h 0.4424853 q 0.6405502,0 0.8807565,-0.227564 0.2402063,-0.227564 0.2402063,-0.8723278 0,-0.2654912 -0.012642,-0.4340571 Q 8.9145704,8.9508302 8.8682148,8.7991209 8.8260734,8.6474117 8.7544329,8.5673429 8.6827924,8.48306 8.5521539,8.424062 8.4257295,8.3650639 8.2529495,8.3439932 8.0843837,8.3229225 7.831535,8.3229225 H 7.3764072 Z M 6.4029396,14.610428 V 7.6233743 h 1.7320139 q 0.9102554,0 1.3190276,0.493055 0.4087721,0.4888409 0.4087721,1.4370237 0,0.851257 -0.4424853,1.327456 -0.4382712,0.476198 -1.2811003,0.476198 H 7.3764072 v 3.253321 z m 5.3772494,0.07164 q -0.408772,0 -0.695334,-0.126424 -0.282347,-0.126424 -0.446699,-0.375059 -0.164352,-0.248635 -0.240206,-0.573124 -0.07164,-0.328703 -0.07164,-0.766974 v -1.445452 q 0,-0.438271 0.07164,-0.762761 0.07585,-0.328703 0.240206,-0.577338 0.164352,-0.2486343 0.446699,-0.3750586 0.286562,-0.1264244 0.695334,-0.1264244 0.788046,0 1.120963,0.471984 0.332918,0.471985 0.332918,1.369598 v 1.445452 q 0,0.897613 -0.332918,1.369597 -0.332917,0.471984 -1.120963,0.471984 z m 0,-0.682691 q 0.126425,0 0.219136,-0.03793 0.09692,-0.03793 0.151709,-0.126424 0.05478,-0.0885 0.0885,-0.168566 0.03371,-0.08428 0.04636,-0.235992 0.01686,-0.155923 0.01686,-0.248635 0.0042,-0.09693 0.0042,-0.282347 v -1.563448 q 0,-0.160138 -0.0042,-0.240207 0,-0.08007 -0.0084,-0.219135 -0.0084,-0.139067 -0.0295,-0.210708 -0.01686,-0.07585 -0.05478,-0.17278 -0.03793,-0.09693 -0.09693,-0.14328 -0.05478,-0.04636 -0.139067,-0.08007 -0.08428,-0.03793 -0.193851,-0.03793 -0.109567,0 -0.198065,0.03793 -0.08428,0.03371 -0.139066,0.08007 -0.05478,0.04636 -0.09693,0.14328 -0.03793,0.09693 -0.059,0.17278 -0.01686,0.07164 -0.02529,0.210708 -0.0084,0.139067 -0.01264,0.219135 0,0.08007 0,0.240207 v 1.563448 q 0,0.160137 0,0.240206 0.0042,0.08007 0.01264,0.219136 0.0084,0.139066 0.02529,0.214921 0.02107,0.07164 0.059,0.168566 0.04214,0.09271 0.09693,0.143281 0.05478,0.04636 0.139066,0.08007 0.0885,0.03371 0.198065,0.03371 z m 2.806622,0.611051 -0.796474,-4.9895487 h 0.758546 l 0.51834,3.6747347 0.665835,-3.6747347 h 0.703763 l 0.66162,3.6620927 0.522554,-3.6620927 h 0.754333 l -0.821759,4.9895487 h -0.783831 l -0.674263,-3.518812 -0.674264,3.518812 z m 5.330894,-2.979401 h 1.057751 v -0.450914 q 0,-0.198065 -0.01264,-0.332917 -0.0084,-0.134853 -0.04214,-0.261277 -0.0295,-0.126425 -0.08428,-0.198065 -0.05478,-0.07164 -0.151709,-0.113782 -0.09271,-0.04214 -0.227564,-0.04214 -0.328704,0 -0.434057,0.235993 -0.105354,0.235992 -0.105354,0.893399 z m 0.552053,3.051041 q -0.438271,0 -0.729047,-0.12221 -0.290776,-0.126424 -0.455128,-0.387701 -0.160137,-0.265491 -0.227564,-0.615266 -0.06321,-0.353988 -0.06321,-0.868114 v -1.142033 q 0,-0.51834 0.06743,-0.872328 0.07164,-0.358203 0.235993,-0.615266 0.164351,-0.2612765 0.450913,-0.3834868 0.290776,-0.1222102 0.716405,-0.1222102 0.265491,0 0.471984,0.05057 0.206493,0.05057 0.353988,0.1390668 0.15171,0.088497 0.257063,0.2402063 0.105354,0.1474951 0.168566,0.3160611 0.06743,0.164351 0.105354,0.404558 0.03793,0.235992 0.05057,0.471984 0.01264,0.235992 0.01264,0.552053 l -0.0042,0.404558 h -1.963792 v 0.665835 q 0,0.01686 0,0.05478 0,0.210707 0,0.311847 0.0042,0.101139 0.01686,0.265491 0.01686,0.160138 0.05057,0.240206 0.03371,0.08007 0.09271,0.168566 0.059,0.0885 0.151709,0.126425 0.09692,0.03371 0.231778,0.03371 0.299204,0 0.404558,-0.202279 0.109568,-0.206493 0.109568,-0.61948 V 12.8742 h 0.901827 v 0.193851 q 0,1.614017 -1.407525,1.614017 z m 2.271425,-0.07164 V 9.6208793 h 0.922898 V 10.33307 q 0.257063,-0.4298429 0.526768,-0.6026229 0.27392,-0.1727799 0.577338,-0.1727799 0.08428,0 0.151709,0.00843 v 1.0198236 q -0.257062,-0.09693 -0.505697,-0.09693 -0.231778,0 -0.408772,0.105354 -0.17278,0.101139 -0.341346,0.370845 v 3.645236 z m 3.57781,-2.979401 h 1.057751 v -0.450914 q 0,-0.198065 -0.01264,-0.332917 -0.0084,-0.134853 -0.04214,-0.261277 -0.0295,-0.126425 -0.08428,-0.198065 -0.05478,-0.07164 -0.151709,-0.113782 -0.09271,-0.04214 -0.227564,-0.04214 -0.328704,0 -0.434057,0.235993 -0.105354,0.235992 -0.105354,0.893399 z m 0.552053,3.051041 q -0.438271,0 -0.729047,-0.12221 -0.290776,-0.126424 -0.455128,-0.387701 -0.160137,-0.265491 -0.227564,-0.615266 -0.06321,-0.353988 -0.06321,-0.868114 v -1.142033 q 0,-0.51834 0.06743,-0.872328 0.07164,-0.358203 0.235993,-0.615266 0.164351,-0.2612765 0.450913,-0.3834868 0.290776,-0.1222102 0.716405,-0.1222102 0.265491,0 0.471984,0.05057 0.206493,0.05057 0.353989,0.1390668 0.151709,0.088497 0.257062,0.2402063 0.105354,0.1474951 0.168566,0.3160611 0.06743,0.164351 0.105354,0.404558 0.03793,0.235992 0.05057,0.471984 0.01264,0.235992 0.01264,0.552053 l -0.0042,0.404558 h -1.963792 v 0.665835 q 0,0.01686 0,0.05478 0,0.210707 0,0.311847 0.0042,0.101139 0.01686,0.265491 0.01686,0.160138 0.05057,0.240206 0.03371,0.08007 0.09271,0.168566 0.059,0.0885 0.151709,0.126425 0.09693,0.03371 0.231778,0.03371 0.299204,0 0.404558,-0.202279 0.109568,-0.206493 0.109568,-0.61948 V 12.8742 h 0.901827 v 0.193851 q 0,1.614017 -1.407525,1.614017 z m 3.641022,-0.729047 q 0.269705,0 0.564695,-0.185422 v -3.270177 q -0.303418,-0.219136 -0.581552,-0.219136 -0.543625,0 -0.543625,1.040894 v 1.411739 q 0,0.235992 0.0084,0.400344 0.01264,0.164351 0.04636,0.332917 0.03371,0.164352 0.09271,0.265491 0.059,0.09693 0.164352,0.160138 0.105354,0.06321 0.248635,0.06321 z m -0.231778,0.729047 q -0.648979,0.0042 -0.952397,-0.46777 -0.299205,-0.471984 -0.299205,-1.563448 v -0.969253 q 0,-0.370845 0.02529,-0.661621 0.0295,-0.290776 0.109568,-0.573124 0.08428,-0.286562 0.214921,-0.4719844 0.130639,-0.1896366 0.349774,-0.3034185 0.22335,-0.1179961 0.51834,-0.1179961 0.450914,0 0.830187,0.3877014 V 7.6233743 h 0.922898 v 6.9870537 h -0.922898 v -0.320275 q -0.362416,0.391915 -0.796473,0.391915 z m 6.224293,-0.729047 q 0.113782,0 0.198065,-0.04214 0.0885,-0.04214 0.139067,-0.139067 0.05478,-0.09693 0.0885,-0.198065 0.03371,-0.101139 0.04636,-0.269705 0.01686,-0.17278 0.02107,-0.311847 0.0042,-0.139067 0.0042,-0.353988 v -1.20946 q 0,-0.210707 -0.01264,-0.362417 -0.0084,-0.151709 -0.04214,-0.307632 -0.0295,-0.160138 -0.0885,-0.257063 -0.05478,-0.10114 -0.155923,-0.160138 -0.09693,-0.06321 -0.235992,-0.06321 -0.299205,0 -0.623694,0.252849 v 3.202751 q 0.303419,0.219135 0.661621,0.219135 z m 0.185422,0.729047 q -0.446699,0 -0.847043,-0.438271 v 0.366631 H 34.920064 V 7.6233743 h 0.922898 v 2.3936347 q 0.408772,-0.463556 0.948183,-0.463556 0.214921,0 0.387701,0.075855 0.176994,0.07164 0.290776,0.1896366 0.113782,0.1179961 0.202279,0.2865618 0.0885,0.168566 0.134853,0.332918 0.04636,0.164351 0.07164,0.358202 0.0295,0.193851 0.03793,0.337132 0.0084,0.143281 0.0084,0.29499 v 1.205246 q 0,2.048074 -1.234745,2.048074 z m 1.989076,1.175747 v -0.699548 q 0.615266,0 0.783831,-0.117996 0.17278,-0.117996 0.09271,-0.484627 -0.122211,-0.522554 -0.160138,-0.686906 -0.147495,-0.632122 -0.501483,-2.123929 -0.349774,-1.491808 -0.501484,-2.1239297 h 0.935541 l 0.670049,3.7295187 0.648978,-3.7295187 h 0.935541 L 40.38581,14.884347 q -0.117996,0.530983 -0.505697,0.750118 -0.383487,0.22335 -1.08725,0.22335 z"
       id="text2"
       transform="scale(0.99968231,1.0003178)"
       aria-label="Powered by" />
  </g>
</svg>
