<?xml version="1.0" encoding="UTF-8" standalone="no"?>
<svg
   width="16.973892"
   height="15.99999"
   fill="currentColor"
   class="bi bi-star"
   viewBox="0 0 16.973892 15.99999"
   version="1.1"
   id="svg1"
   sodipodi:docname="star-fill.svg"
   inkscape:version="1.4 (e7c3feb100, 2024-10-09)"
   xml:space="preserve"
   xmlns:inkscape="http://www.inkscape.org/namespaces/inkscape"
   xmlns:sodipodi="http://sodipodi.sourceforge.net/DTD/sodipodi-0.dtd"
   xmlns="http://www.w3.org/2000/svg"
   xmlns:svg="http://www.w3.org/2000/svg"><defs
     id="defs1" /><sodipodi:namedview
     id="namedview1"
     pagecolor="#ffffff"
     bordercolor="#000000"
     borderopacity="0.25"
     inkscape:showpageshadow="2"
     inkscape:pageopacity="0.0"
     inkscape:pagecheckerboard="0"
     inkscape:deskcolor="#d1d1d1"
     inkscape:zoom="28.872221"
     inkscape:cx="9.1783726"
     inkscape:cy="7.1175682"
     inkscape:window-width="1920"
     inkscape:window-height="1052"
     inkscape:window-x="0"
     inkscape:window-y="0"
     inkscape:window-maximized="1"
     inkscape:current-layer="svg1" /><path
     style="fill:#0d6efd;fill-rule:evenodd;stroke:#0d6efd;stroke-width:1;stroke-linecap:round;stroke-linejoin:round;stroke-miterlimit:10;stroke-dasharray:none;stroke-opacity:1;paint-order:fill markers stroke;fill-opacity:1"
     d="m 8.4875163,0.50000025 a 0.5128915,0.51305887 0 0 1 0.4627932,0.29495556 l 2.1831325,4.32666829 4.8974,0.6953923 c 0.441906,0.062009 0.61112,0.6372453 0.281191,0.951281 l -3.52074,3.3558546 0.829903,4.731011 c 0.07798,0.443049 -0.360019,0.789888 -0.745937,0.591864 L 8.4875163,13.190909 4.0978198,15.447027 C 3.7124713,15.644758 3.2755337,15.298272 3.3518837,14.855163 L 4.181786,10.124152 0.66104672,6.7682974 C 0.33211631,6.4542617 0.50133152,5.880977 0.94223721,5.8189698 L 5.8396395,5.1216241 8.0227705,0.79495581 A 0.5128915,0.51305887 0 0 1 8.4875163,0.50000025 Z"
     id="path3" /></svg>
