<?xml version="1.0" encoding="UTF-8" standalone="no"?>
<!-- Created with Inkscape (http://www.inkscape.org/) -->

<svg
   width="102.28375mm"
   height="102.28375mm"
   viewBox="0 0 102.28375 102.28375"
   version="1.1"
   id="svg1"
   xmlns="http://www.w3.org/2000/svg"
   xmlns:svg="http://www.w3.org/2000/svg">
  <defs
     id="defs1" />
  <g
     transform="matrix(0.264583,0,0,0.264583,-10.24138,-10.241385)"
     id="g20">
    <rect
       x="38.707623"
       y="38.707623"
       width="386.58475"
       height="386.58475"
       style="fill:#ffffff;stroke:none;stroke-width:0.833157"
       id="rect19" />
    <g
       style="fill:#000000;stroke:none"
       id="g19">
      <path
         d="M 64,64 H 80 V 80 H 64 Z m 16,0 H 96 V 80 H 80 Z m 16,0 h 16 V 80 H 96 Z m 16,0 h 16 v 16 h -16 z m 16,0 h 16 v 16 h -16 z m 16,0 h 16 v 16 h -16 z m 16,0 h 16 v 16 h -16 z m 48,0 h 16 v 16 h -16 z m 32,0 h 16 v 16 h -16 z m 16,0 h 16 v 16 h -16 z m 32,0 h 16 v 16 h -16 z m 16,0 h 16 v 16 h -16 z m 16,0 h 16 v 16 h -16 z m 16,0 h 16 v 16 h -16 z m 16,0 h 16 v 16 h -16 z m 16,0 h 16 v 16 h -16 z m 16,0 h 16 V 80 H 384 Z M 64,80 H 80 V 96 H 64 Z m 96,0 h 16 v 16 h -16 z m 32,0 h 16 v 16 h -16 z m 32,0 h 16 v 16 h -16 z m 16,0 h 16 v 16 h -16 z m 48,0 h 16 v 16 h -16 z m 96,0 h 16 V 96 H 384 Z M 64,96 h 16 v 16 H 64 Z m 32,0 h 16 v 16 H 96 Z m 16,0 h 16 v 16 h -16 z m 16,0 h 16 v 16 h -16 z m 32,0 h 16 v 16 h -16 z m 32,0 h 16 v 16 h -16 z m 16,0 h 16 v 16 h -16 z m 16,0 h 16 v 16 h -16 z m 32,0 h 16 v 16 h -16 z m 32,0 h 16 v 16 h -16 z m 32,0 h 16 v 16 h -16 z m 16,0 h 16 v 16 h -16 z m 16,0 h 16 v 16 h -16 z m 32,0 h 16 v 16 H 384 Z M 64,112 h 16 v 16 H 64 Z m 32,0 h 16 v 16 H 96 Z m 16,0 h 16 v 16 h -16 z m 16,0 h 16 v 16 h -16 z m 32,0 h 16 v 16 h -16 z m 32,0 h 16 v 16 h -16 z m 32,0 h 16 v 16 h -16 z m 32,0 h 16 v 16 h -16 z m 32,0 h 16 v 16 h -16 z m 32,0 h 16 v 16 h -16 z m 16,0 h 16 v 16 h -16 z m 16,0 h 16 v 16 h -16 z m 32,0 h 16 v 16 H 384 Z M 64,128 h 16 v 16 H 64 Z m 32,0 h 16 v 16 H 96 Z m 16,0 h 16 v 16 h -16 z m 16,0 h 16 v 16 h -16 z m 32,0 h 16 v 16 h -16 z m 48,0 h 16 v 16 h -16 z m 16,0 h 16 v 16 h -16 z m 32,0 h 16 v 16 h -16 z m 32,0 h 16 v 16 h -16 z m 32,0 h 16 v 16 h -16 z m 16,0 h 16 v 16 h -16 z m 16,0 h 16 v 16 h -16 z m 32,0 h 16 v 16 H 384 Z M 64,144 h 16 v 16 H 64 Z m 96,0 h 16 v 16 h -16 z m 48,0 h 16 v 16 h -16 z m 16,0 h 16 v 16 h -16 z m 16,0 h 16 v 16 h -16 z m 48,0 h 16 v 16 h -16 z m 96,0 h 16 v 16 H 384 Z M 64,160 h 16 v 16 H 64 Z m 16,0 h 16 v 16 H 80 Z m 16,0 h 16 v 16 H 96 Z m 16,0 h 16 v 16 h -16 z m 16,0 h 16 v 16 h -16 z m 16,0 h 16 v 16 h -16 z m 16,0 h 16 v 16 h -16 z m 32,0 h 16 v 16 h -16 z m 32,0 h 16 v 16 h -16 z m 32,0 h 16 v 16 h -16 z m 32,0 h 16 v 16 h -16 z m 16,0 h 16 v 16 h -16 z m 16,0 h 16 v 16 h -16 z m 16,0 h 16 v 16 h -16 z m 16,0 h 16 v 16 h -16 z m 16,0 h 16 v 16 h -16 z m 16,0 h 16 v 16 h -16 z m -192,16 h 16 v 16 h -16 z m 16,0 h 16 v 16 h -16 z m 16,0 h 16 v 16 H 224 Z M 64,192 h 16 v 16 H 64 Z m 96,0 h 16 v 16 h -16 z m 32,0 h 16 v 16 h -16 z m 16,0 h 16 v 16 h -16 z m 32,0 h 16 v 16 h -16 z m 32,0 h 16 v 16 h -16 z m 16,0 h 16 v 16 h -16 z m 48,0 h 16 v 16 h -16 z m 16,0 h 16 v 16 h -16 z m 16,0 h 16 v 16 H 368 Z M 64,208 h 16 v 16 H 64 Z m 32,0 h 16 v 16 H 96 Z m 16,0 h 16 v 16 h -16 z m 32,0 h 16 v 16 h -16 z m 64,0 h 16 v 16 h -16 z m 16,0 h 16 v 16 h -16 z m 32,0 h 16 v 16 h -16 z m 16,0 h 16 v 16 h -16 z m 16,0 h 16 v 16 h -16 z m 16,0 h 16 v 16 h -16 z m 48,0 h 16 v 16 h -16 z m 16,0 h 16 v 16 H 368 Z M 64,224 h 16 v 16 H 64 Z m 32,0 h 16 v 16 H 96 Z m 64,0 h 16 v 16 h -16 z m 16,0 h 16 v 16 h -16 z m 16,0 h 16 v 16 h -16 z m 32,0 h 16 v 16 h -16 z m 32,0 h 16 v 16 h -16 z m 48,0 h 16 v 16 h -16 z m -192,16 h 16 v 16 h -16 z m 16,0 h 16 v 16 h -16 z m 16,0 h 16 v 16 h -16 z m 64,0 h 16 v 16 h -16 z m 16,0 h 16 v 16 h -16 z m 32,0 h 16 v 16 h -16 z m 48,0 h 16 v 16 h -16 z m 16,0 h 16 v 16 h -16 z m 32,0 h 16 v 16 h -16 z m 16,0 h 16 v 16 h -16 z m 16,0 h 16 v 16 H 384 Z M 96,256 h 16 v 16 H 96 Z m 16,0 h 16 v 16 h -16 z m 32,0 h 16 v 16 h -16 z m 16,0 h 16 v 16 h -16 z m 16,0 h 16 v 16 h -16 z m 16,0 h 16 v 16 h -16 z m 16,0 h 16 v 16 h -16 z m 16,0 h 16 v 16 h -16 z m 32,0 h 16 v 16 h -16 z m 64,0 h 16 v 16 h -16 z m 48,0 h 16 v 16 h -16 z m -176,16 h 16 v 16 h -16 z m 32,0 h 16 v 16 h -16 z m 16,0 h 16 v 16 h -16 z m 32,0 h 16 v 16 h -16 z m 32,0 h 16 v 16 h -16 z m 16,0 h 16 v 16 h -16 z m 32,0 h 16 v 16 h -16 z m 32,0 h 16 v 16 H 384 Z M 64,288 h 16 v 16 H 64 Z m 16,0 h 16 v 16 H 80 Z m 16,0 h 16 v 16 H 96 Z m 16,0 h 16 v 16 h -16 z m 16,0 h 16 v 16 h -16 z m 16,0 h 16 v 16 h -16 z m 16,0 h 16 v 16 h -16 z m 48,0 h 16 v 16 h -16 z m 48,0 h 16 v 16 h -16 z m 16,0 h 16 v 16 h -16 z m 16,0 h 16 v 16 h -16 z m 16,0 h 16 v 16 h -16 z m 32,0 h 16 v 16 h -16 z m 16,0 h 16 v 16 H 352 Z M 64,304 h 16 v 16 H 64 Z m 96,0 h 16 v 16 h -16 z m 48,0 h 16 v 16 h -16 z m 16,0 h 16 v 16 h -16 z m 16,0 h 16 v 16 h -16 z m 48,0 h 16 v 16 h -16 z m 32,0 h 16 v 16 h -16 z m 32,0 h 16 v 16 h -16 z m 16,0 h 16 v 16 h -16 z m 16,0 h 16 v 16 H 384 Z M 64,320 h 16 v 16 H 64 Z m 32,0 h 16 v 16 H 96 Z m 16,0 h 16 v 16 h -16 z m 16,0 h 16 v 16 h -16 z m 32,0 h 16 v 16 h -16 z m 48,0 h 16 v 16 h -16 z m 32,0 h 16 v 16 h -16 z m 16,0 h 16 v 16 h -16 z m 16,0 h 16 v 16 h -16 z m 16,0 h 16 v 16 h -16 z m 16,0 h 16 v 16 h -16 z m 32,0 h 16 v 16 h -16 z m 32,0 h 16 v 16 h -16 z m 16,0 h 16 v 16 H 384 Z M 64,336 h 16 v 16 H 64 Z m 32,0 h 16 v 16 H 96 Z m 16,0 h 16 v 16 h -16 z m 16,0 h 16 v 16 h -16 z m 32,0 h 16 v 16 h -16 z m 48,0 h 16 v 16 h -16 z m 16,0 h 16 v 16 h -16 z m 16,0 h 16 v 16 h -16 z m 32,0 h 16 v 16 h -16 z m 32,0 h 16 v 16 h -16 z m 16,0 h 16 v 16 h -16 z m 32,0 h 16 v 16 H 352 Z M 64,352 h 16 v 16 H 64 Z m 32,0 h 16 v 16 H 96 Z m 16,0 h 16 v 16 h -16 z m 16,0 h 16 v 16 h -16 z m 32,0 h 16 v 16 h -16 z m 64,0 h 16 v 16 h -16 z m 16,0 h 16 v 16 h -16 z m 16,0 h 16 v 16 h -16 z m 48,0 h 16 v 16 h -16 z m 16,0 h 16 v 16 h -16 z m 16,0 h 16 v 16 h -16 z m 32,0 h 16 v 16 h -16 z m 16,0 h 16 v 16 H 384 Z M 64,368 h 16 v 16 H 64 Z m 96,0 h 16 v 16 h -16 z m 48,0 h 16 v 16 h -16 z m 32,0 h 16 v 16 h -16 z m 64,0 h 16 v 16 h -16 z m 16,0 h 16 v 16 h -16 z m 32,0 h 16 v 16 H 352 Z M 64,384 h 16 v 16 H 64 Z m 16,0 h 16 v 16 H 80 Z m 16,0 h 16 v 16 H 96 Z m 16,0 h 16 v 16 h -16 z m 16,0 h 16 v 16 h -16 z m 16,0 h 16 v 16 h -16 z m 16,0 h 16 v 16 h -16 z m 32,0 h 16 v 16 h -16 z m 16,0 h 16 v 16 h -16 z m 32,0 h 16 v 16 h -16 z m 16,0 h 16 v 16 h -16 z m 16,0 h 16 v 16 h -16 z m 16,0 h 16 v 16 h -16 z m 48,0 h 16 v 16 h -16 z m 32,0 h 16 v 16 h -16 z"
         id="path19" />
    </g>
  </g>
</svg>
