<?xml version="1.0" encoding="UTF-8" standalone="no"?>
<!-- Uploaded to: SVG Repo, www.svgrepo.com, Generator: SVG Repo Mixer Tools -->

<svg
   width="159.28569"
   height="160"
   viewBox="-2.73 0 243.9094 245.0032"
   version="1.1"
   id="svg4"
   sodipodi:docname="whatsapp.svg"
   inkscape:version="1.4.1 (93de688d07, 2025-03-30)"
   xml:space="preserve"
   xmlns:inkscape="http://www.inkscape.org/namespaces/inkscape"
   xmlns:sodipodi="http://sodipodi.sourceforge.net/DTD/sodipodi-0.dtd"
   xmlns="http://www.w3.org/2000/svg"
   xmlns:svg="http://www.w3.org/2000/svg"><defs
     id="defs4" /><sodipodi:namedview
     id="namedview4"
     pagecolor="#ffffff"
     bordercolor="#000000"
     borderopacity="0.25"
     inkscape:showpageshadow="2"
     inkscape:pageopacity="0.0"
     inkscape:pagecheckerboard="true"
     inkscape:deskcolor="#d1d1d1"
     inkscape:zoom="1.5377545"
     inkscape:cx="28.61315"
     inkscape:cy="101.77177"
     inkscape:window-width="1920"
     inkscape:window-height="1052"
     inkscape:window-x="0"
     inkscape:window-y="0"
     inkscape:window-maximized="1"
     inkscape:current-layer="g1" /><linearGradient
     id="a"
     gradientUnits="userSpaceOnUse"
     x1="609.77002"
     y1="1190.114"
     x2="609.77002"
     y2="21.084"
     gradientTransform="matrix(0.76075785,0,0,0.76076334,145.75635,145.00286)"><stop
       offset="0"
       stop-color="#20b038"
       id="stop1" /><stop
       offset="1"
       stop-color="#60d66a"
       id="stop2" /></linearGradient><g
     id="g1"
     transform="matrix(0.2,0,0,0.2,-1.0881818,-0.1992181)"
     style="stroke-width:5"><g
       id="g5"
       transform="translate(-2940.294,-71.269696)"><path
         fill="url(#a)"
         d="m 3085.5182,1143.5618 65.8422,-240.40923 c -40.6204,-70.35921 -61.9818,-150.18406 -61.9561,-231.93744 0.1064,-255.80058 208.2943,-463.91175 464.0923,-463.91175 124.1512,0.0561 240.6747,48.37176 328.2844,136.06289 87.6288,87.69033 135.8577,204.25011 135.8073,328.21165 -0.1065,255.80699 -208.3075,463.93658 -464.0732,463.93658 -0.018,0 0.012,0 0,0 h -0.2066 c -77.6683,-0.025 -153.9845,-19.5215 -221.7656,-56.4623 z"
         id="path1"
         style="fill:#00d400;fill-opacity:1;stroke:#ffffff;stroke-width:91.8762;stroke-linecap:round;stroke-linejoin:miter;stroke-dasharray:none" /><path
         style="opacity:1;fill:#ffffff;fill-rule:evenodd;stroke:none;stroke-width:91.8762;stroke-linecap:round;stroke-linejoin:miter;stroke-miterlimit:10;stroke-dasharray:none;stroke-dashoffset:2.6;paint-order:fill markers stroke"
         d="m 3467.4173,556.81485 c -16.4147,-40.59391 -28.9018,-75.70674 -48.5961,-114.11423 -5.874,-13.61645 -62.2161,-13.82559 -76.3655,0.86779 -35.9195,33.34211 -89.1858,107.69329 -9.1118,227.36068 55.9824,83.66365 128.4045,172.34871 231.6997,212.60824 71.0039,27.67395 156.6894,75.83799 241.2452,-23.43025 10.7917,-34.85862 14.0266,-66.09472 0.8678,-72.89427 l -105.8702,-51.63346 c -11.1166,-6.93669 -23.6834,-2.13068 -33.2018,10.6675 -20.1413,27.08126 -38.4045,56.57358 -50.5399,53.11502 -85.5571,-27.80416 -144.6144,-77.98326 -190.9134,-161.40876 -9.2087,-17.50056 52.7904,-52.50123 40.786,-81.13826 z"
         id="path5"
         sodipodi:nodetypes="cccsscccsccc" /></g></g></svg>
