<?xml version="1.0" encoding="UTF-8" standalone="no"?>
<!-- Created with Inkscape (http://www.inkscape.org/) -->

<svg
   version="1.1"
   id="svg1"
   width="805.33301"
   height="805.33301"
   viewBox="0 0 805.33301 805.333"
   sodipodi:docname="default.svg"
   inkscape:version="1.4 (e7c3feb100, 2024-10-09)"
   inkscape:export-filename="default.png"
   inkscape:export-xdpi="28.609283"
   inkscape:export-ydpi="28.609283"
   xmlns:inkscape="http://www.inkscape.org/namespaces/inkscape"
   xmlns:sodipodi="http://sodipodi.sourceforge.net/DTD/sodipodi-0.dtd"
   xmlns="http://www.w3.org/2000/svg"
   xmlns:svg="http://www.w3.org/2000/svg">
  <sodipodi:namedview
     id="namedview1"
     pagecolor="#ffffff"
     bordercolor="#000000"
     borderopacity="0.25"
     inkscape:showpageshadow="2"
     inkscape:pageopacity="0.0"
     inkscape:pagecheckerboard="0"
     inkscape:deskcolor="#d1d1d1"
     inkscape:zoom="0.52214425"
     inkscape:cx="253.76129"
     inkscape:cy="519.97125"
     inkscape:window-width="1920"
     inkscape:window-height="1052"
     inkscape:window-x="0"
     inkscape:window-y="0"
     inkscape:window-maximized="1"
     inkscape:current-layer="svg1" />
  <defs
     id="defs1" />
  <path
     id="path27"
     d="m 402.66753,1078.9178 c 165.04555,0 299.66206,-14.8028 299.66206,-32.9563 0,-18.1485 -134.61651,-32.9533 -299.66206,-32.9533 -165.04962,0 -299.66226,14.8048 -299.66226,32.9533 0,18.1535 134.61264,32.9563 299.66226,32.9563"
     style="fill:#b5621d;fill-opacity:1;fill-rule:evenodd;stroke:none;stroke-width:0.133333" />
  <path
     id="path28"
     style="fill:#5f2e15;fill-opacity:1;fill-rule:evenodd;stroke:none;stroke-width:0.133333"
     d="M 402.66602 0 C 387.69869 18.360773 315.95544 59.157045 302.94727 72.722656 C 296.787 63.901347 290.62511 55.079121 284.46484 46.257812 C 242.1018 72.390126 213.36351 105.85834 197.56836 146.29883 C 191.13853 136.93026 184.70522 127.55998 178.27539 118.19141 C 141.44501 156.63816 118.41781 197.51913 116.33008 242.09766 C 109.46304 234.4136 102.59278 226.72515 95.726562 219.03906 C 71.786148 260.00036 59.860198 302.81088 62.488281 347.85938 C 54.133671 344.2686 45.779251 340.67876 37.423828 337.08594 C 22.415193 383.53209 17.653405 428.51026 31.257812 470.86719 C 22.555925 467.57344 13.853153 464.28017 5.1503906 460.98438 C 2.7798063 507.89234 7.8275306 552.2041 25.892578 591.95898 C 17.262221 592.49404 8.6304585 593.02736 0 593.56445 C 7.6296859 642.64596 23.701066 683.98772 47.373047 718.36133 L 636.78906 128.94531 C 633.62416 125.34649 630.46338 121.74756 627.05664 118.19141 C 620.62376 127.55998 614.19444 136.93026 607.76562 146.29883 C 591.97028 105.85834 563.23209 72.390125 520.87109 46.257812 C 514.70879 55.079122 508.54301 63.901347 502.38477 72.722656 C 489.37456 59.157045 417.63539 18.360773 402.66602 0 z M 669.61133 175.32031 L 63.042969 781.88867 C 85.806029 811.89144 116.23709 834.73713 156.18164 848.70508 C 148.98178 853.87255 141.78405 859.04136 134.58398 864.21289 C 209.98888 926.05767 306.07717 953.67911 402.66602 953.44922 C 499.25895 953.67911 595.34368 926.05767 670.75 864.21289 C 663.55013 859.04136 656.3522 853.87255 649.15234 848.70508 C 703.48599 829.7055 740.34872 794.40476 764.02344 746.79492 C 755.8796 745.25485 747.73385 743.7139 739.58594 742.17383 C 773.58541 703.71285 795.85961 654.50798 805.33398 593.56445 C 796.70187 593.02736 788.07156 592.49404 779.43945 591.95898 C 797.50523 552.2041 802.55371 507.89234 800.18359 460.98438 C 791.48028 464.28017 782.77549 467.57344 774.07422 470.86719 C 787.68052 428.51026 782.91622 383.53209 767.9082 337.08594 C 759.55481 340.67876 751.19714 344.2686 742.84375 347.85938 C 745.47427 302.81089 733.54466 260.00036 709.60547 219.03906 C 702.73925 226.72515 695.8702 234.4136 689.00195 242.09766 C 687.91629 218.88896 681.04252 196.7031 669.61133 175.32031 z " />
  <path
     id="path29"
     style="fill:#392015;fill-opacity:1;fill-rule:evenodd;stroke:none;stroke-width:0.133333"
     d="M 402.66602 177.17969 C 390.8541 192.01275 334.23459 224.97214 323.9668 235.93164 C 319.1045 228.80298 314.24121 221.67545 309.37891 214.54883 C 275.94705 235.65812 253.26584 262.69815 240.79883 295.36914 C 235.72495 287.80104 230.65013 280.23215 225.57422 272.66406 C 196.50662 303.72377 178.3312 336.75002 176.68555 372.76562 C 171.26561 366.55449 165.84551 360.34582 160.42578 354.13672 C 141.53097 387.22884 132.11926 421.81295 134.19336 458.20898 C 127.60057 455.30584 121.00685 452.40509 114.41406 449.50195 C 102.56816 487.02507 98.810876 523.36479 109.54883 557.58398 C 102.67936 554.92294 95.809536 552.25877 88.939453 549.5957 C 87.070215 587.49111 91.053966 623.29254 105.3125 655.41016 C 98.49959 655.8435 91.688932 656.27378 84.875 656.70508 C 85.934831 663.68258 87.253576 670.41857 88.716797 677.01758 L 526.92578 238.80859 C 517.86449 230.02548 507.60386 221.90446 495.95508 214.54883 C 491.09278 221.67545 486.22956 228.80298 481.36523 235.93164 C 471.09743 224.97214 414.47999 192.01275 402.66602 177.17969 z M 579.75781 272.66406 C 574.68393 280.23215 569.60708 287.80104 564.5332 295.36914 C 563.17212 291.80229 561.63653 288.33261 560.03125 284.90039 L 109.33008 735.60156 C 117.00678 750.70114 126.12733 764.44572 136.76562 776.76562 C 130.33641 778.00866 123.90578 779.25305 117.47656 780.49609 C 136.16325 818.95911 165.25714 847.4784 208.13672 862.82617 C 202.45556 867.00287 196.77479 871.17869 191.0918 875.35742 C 250.6041 925.3211 326.43576 947.6363 402.66602 947.45117 C 478.89833 947.6363 554.73098 925.3211 614.24023 875.35742 C 608.55805 871.17869 602.87554 867.00287 597.19336 862.82617 C 640.07518 847.4784 669.16903 818.95911 687.85938 780.49609 C 681.43057 779.25305 674.99726 778.00866 668.56641 776.76562 C 695.4006 745.69371 712.97853 705.9384 720.45508 656.70508 C 713.64582 656.27378 706.83294 655.8435 700.01758 655.41016 C 714.27693 623.29254 718.26027 587.49111 716.39062 549.5957 C 709.52033 552.25877 702.65341 554.92294 695.78516 557.58398 C 706.52494 523.36479 702.76652 487.02507 690.91797 449.50195 C 684.3264 452.40509 677.73033 455.30584 671.13672 458.20898 C 673.21388 421.81295 663.80199 387.22884 644.9082 354.13672 C 639.48846 360.34582 634.06622 366.55449 628.64648 372.76562 C 627.00062 336.75003 608.82581 303.72377 579.75781 272.66406 z " />
  <path
     id="path30"
     d="m 597.98547,794.90051 16.97735,68.97547 c 15.15451,61.58234 -2.23584,126.63746 -46.09825,172.43872 -7.03915,7.3526 -17.21539,10.8191 -27.28177,9.2957 -10.06435,-1.5283 -18.75342,-7.8517 -23.30038,-16.9599 -12.85356,-25.7453 -32.79712,-47.28388 -57.48092,-62.07829 -37.03892,-22.19568 -57.81863,-63.87514 -53.25743,-106.81189 4.55917,-42.94285 33.63327,-79.32668 74.51117,-93.24628 40.87383,-13.91757 86.11152,-2.84414 115.93023,28.38647 z m -390.63995,0 -16.97492,68.97547 c -15.15572,61.58234 2.23626,126.63746 46.09785,172.43872 7.04118,7.3526 17.21742,10.8191 27.27974,9.2957 10.06435,-1.5283 18.75749,-7.8517 23.30445,-16.9599 12.85152,-25.7453 32.79509,-47.28388 57.48092,-62.07829 37.03485,-22.19568 57.81863,-63.87514 53.25539,-106.81189 -4.5612,-42.94285 -33.63531,-79.32668 -74.51117,-93.24628 -40.87179,-13.91757 -86.11151,-2.84414 -115.93226,28.38647 v 0"
     style="fill:#dc8835;fill-opacity:1;fill-rule:evenodd;stroke:none;stroke-width:0.133333" />
  <path
     id="path31"
     style="fill:#f4a554;fill-opacity:1;fill-rule:evenodd;stroke:none;stroke-width:0.133333"
     d="M 404.07031 440.86133 L 169.32617 675.60547 C 167.54293 689.26975 166.61523 703.25731 166.61523 717.49023 C 166.61523 869.87549 272.65538 994.1582 402.66797 994.1582 C 532.68055 994.1582 638.71875 869.87549 638.71875 717.49023 C 638.71875 565.65618 533.43874 441.75594 404.07031 440.86133 z M 293.14648 472.58789 C 261.88014 491.90175 234.69397 519.14726 213.64258 552.0918 L 293.14648 472.58789 z " />
  <path
     id="path32"
     d="m 514.07114,961.45561 c -33.1857,20.86313 -71.11367,32.70354 -111.40565,32.70354 -40.28994,0 -78.21791,-11.84041 -111.40157,-32.70354 -16.68847,-34.06254 -26.54937,-76.05734 -26.54937,-121.49848 0,-113.77169 61.7634,-206.00279 137.95094,-206.00279 76.18958,0 137.95299,92.2311 137.95299,206.00279 0,45.44114 -9.86091,87.43594 -26.54734,121.49848"
     style="fill:#fbc283;fill-opacity:1;fill-rule:evenodd;stroke:none;stroke-width:0.133333" />
  <path
     id="path33"
     style="fill:#f4a554;fill-opacity:1;fill-rule:evenodd;stroke:none;stroke-width:0.133333"
     d="M 299.94922 302.28906 C 290.80639 302.43273 281.51246 303.79658 272.11719 306.38477 C 242.05435 314.66492 219.31892 333.18887 205.13281 360.96094 C 192.70139 385.29888 185.77539 412.34018 185.77539 440.82227 C 185.77539 479.36551 198.50561 515.23848 220.35352 545.38086 L 445.43555 320.29883 C 432.68445 327.78596 418.14072 332.07422 402.66602 332.07422 C 386.26645 332.07422 370.88228 327.30415 357.60352 318.96094 C 339.45153 307.55615 320.06345 301.97299 299.94922 302.28906 z M 537.3125 307.61914 L 259.27148 585.66016 C 297.50178 615.69463 347.67669 633.95508 402.66602 633.95508 C 522.4515 633.95508 619.55859 547.48565 619.55859 440.82227 C 619.55859 412.34018 612.63156 385.29888 600.20117 360.96094 C 586.66987 334.4708 565.34344 316.41723 537.3125 307.61914 z " />
  <path
     id="path34"
     d="m 603.06341,571.21441 25.61761,30.5979 c 30.56738,36.51403 34.3616,88.48367 9.41333,129.04623 -24.94624,40.56052 -73.03418,60.62208 -119.40911,49.81313 -25.09679,-5.849 -42.13925,-29.17583 -40.07837,-54.86056 2.05885,-25.68678 22.5985,-46.00061 48.30562,-47.7787 55.29593,-3.81864 92.54033,-52.15477 76.15092,-106.818"
     style="fill:#dc8835;fill-opacity:1;fill-rule:evenodd;stroke:none;stroke-width:0.133333" />
  <path
     id="path35"
     style="fill:#dc8835;fill-opacity:1;fill-rule:evenodd;stroke:none;stroke-width:0.133333"
     d="M 208.66211 636.26953 L 152.57617 692.35547 C 154.96368 705.72681 159.82115 718.79883 167.23828 730.85938 C 192.18391 771.41989 240.27545 791.48083 286.65039 780.67188 C 311.74718 774.82287 328.78737 751.49528 326.72852 725.81055 C 324.66764 700.12377 304.12907 679.81129 278.41992 678.0332 C 247.38032 675.88958 222.0319 659.71426 208.66211 636.26953 z " />
  <path
     id="path36"
     style="fill:#fbc283;fill-opacity:1;fill-rule:evenodd;stroke:none;stroke-width:0.133333"
     d="M 312.85156 362.91211 C 295.97331 362.5622 279.35952 370.07636 268.52539 384.1582 C 252.76666 404.64089 253.56951 433.37991 270.44922 452.95117 C 277.15293 460.7232 284.89152 467.2254 293.30859 472.42578 L 384.41406 381.32031 C 367.4554 380.20396 350.84392 375.83765 335.51367 368.38477 C 328.25011 364.85375 320.52349 363.07116 312.85156 362.91211 z M 492.48242 362.91211 C 488.42226 362.99628 484.35196 363.58125 480.33789 364.59375 L 358.69727 486.23438 C 366.5128 485.15344 374.28527 483.1459 381.8457 480.12109 L 402.66602 475.36523 L 423.48828 480.12109 C 462.61046 495.77404 507.35895 484.86128 534.88281 452.95117 C 551.76048 433.37991 552.56732 404.64089 536.80859 384.1582 C 525.97447 370.07636 509.36067 362.5622 492.48242 362.91211 z " />
  <path
     id="path37"
     style="fill:#392015;fill-opacity:1;fill-rule:evenodd;stroke:none;stroke-width:0.133333"
     d="M 404.61914 440.3125 L 361.43555 483.49609 C 363.45014 487.14302 366.43706 490.26531 370.21094 492.42773 C 375.28685 495.33697 379.7187 499.2487 383.23828 503.92383 C 387.80965 509.99662 395.07148 513.43439 402.66602 513.12109 C 410.26057 513.43439 417.52238 509.99662 422.09375 503.92383 C 425.61333 499.2487 430.04714 495.33697 435.12305 492.42773 C 443.273 487.75667 447.81335 478.64006 446.61914 469.32031 C 444.49519 452.73763 430.38304 440.3125 413.66406 440.3125 L 404.61914 440.3125 z " />
  <path
     id="path38"
     d="m 346.1489,531.33136 c -1.31221,-3.76371 0.67746,-7.87937 4.4432,-9.19362 3.76371,-1.31017 7.87937,0.67747 9.19158,4.44321 1.4709,4.21128 4.3659,7.59048 7.99736,9.7368 3.62333,2.1382 7.98719,3.03335 12.40598,2.28467 4.39845,-0.7446 8.21302,-3.0313 10.92899,-6.24774 2.70173,-3.19814 4.30893,-7.34431 4.30893,-11.82821 v -33.33828 h 14.48518 v 33.33828 c 0,4.4839 1.60516,8.63007 4.30689,11.82821 2.71801,3.21644 6.53257,5.50314 10.92695,6.24774 4.41879,0.74868 8.78469,-0.14647 12.40599,-2.28467 3.6335,-2.14632 6.5285,-5.52552 7.99736,-9.7368 1.31424,-3.76574 5.4299,-5.75338 9.19564,-4.44321 3.76371,1.31425 5.75338,5.42991 4.44117,9.19362 -2.64069,7.56199 -7.80612,13.61036 -14.27969,17.43103 -6.47764,3.82677 -14.26546,5.43398 -22.13669,4.09735 -7.89564,-1.33865 -14.7293,-5.42583 -19.58347,-11.17108 l -0.51878,-0.62864 -0.51878,0.62864 c -4.85212,5.74525 -11.68579,9.83243 -19.58143,11.17108 -7.87123,1.33663 -15.65905,-0.27058 -22.13872,-4.09735 -6.4695,-3.82067 -11.63697,-9.86904 -14.27766,-17.43103"
     style="fill:#392015;fill-opacity:1;fill-rule:evenodd;stroke:none;stroke-width:0.133333" />
  <path
     id="path39"
     d="m 316.13488,384.8724 c 14.07219,0 25.4813,12.52398 25.4813,27.97348 0,15.4495 -11.40911,27.97348 -25.4813,27.97348 -14.07422,0 -25.48129,-12.52398 -25.48129,-27.97348 0,-15.4495 11.40707,-27.97348 25.48129,-27.97348 z m 173.06122,0 c 14.07422,0 25.48333,12.52398 25.48333,27.97348 0,15.4495 -11.40911,27.97348 -25.48333,27.97348 -14.07015,0 -25.48129,-12.52398 -25.48129,-27.97348 0,-15.4495 11.41114,-27.97348 25.48129,-27.97348 v 0"
     style="fill:#221812;fill-opacity:1;fill-rule:evenodd;stroke:none;stroke-width:0.133333" />
</svg>
