<?xml version="1.0" encoding="UTF-8" standalone="no"?>
<!-- Created with Inkscape (http://www.inkscape.org/) -->

<svg
   width="57.322926mm"
   height="57.322914mm"
   viewBox="0 0 57.322924 57.322914"
   version="1.1"
   id="svg1"
   xml:space="preserve"
   xmlns="http://www.w3.org/2000/svg"
   xmlns:svg="http://www.w3.org/2000/svg"><defs
     id="defs1" /><g
     id="layer1"
     transform="translate(-339.04942,-85.115882)"><g
       id="g8"
       transform="matrix(0.97580494,0,0,0.97580494,-84.694069,-208.43776)"
       style="stroke:#0000ff;stroke-width:4.06715;stroke-dasharray:none"><circle
         style="fill:none;fill-rule:evenodd;stroke:#0000ff;stroke-width:4.06715;stroke-linecap:round;stroke-linejoin:round;stroke-miterlimit:10;stroke-dasharray:none;stroke-dashoffset:2.6;stroke-opacity:1;paint-order:fill markers stroke"
         id="circle1"
         cx="463.62231"
         cy="330.20441"
         r="27.338541" /><g
         id="g7"
         transform="translate(4.4239734)"><path
           style="fill:none;fill-rule:evenodd;stroke:#ff0000;stroke-width:4.06717;stroke-linecap:round;stroke-linejoin:round;stroke-miterlimit:10;stroke-dasharray:none;stroke-dashoffset:2.6;paint-order:fill markers stroke"
           d="m 474.78912,342.27035 -24.13184,-24.1319"
           id="path3" /><path
           id="use6"
           style="fill:none;fill-rule:evenodd;stroke:#0000ff;stroke-width:4.06716;stroke-linecap:round;stroke-linejoin:round;stroke-miterlimit:10;stroke-dasharray:none;stroke-dashoffset:2.6;paint-order:fill markers stroke"
           d="m 467.57204,342.15664 c 0,3.55836 -5.25435,1.78544 -6.10727,0.94423 l -7.26874,-7.16905 c -0.35534,-0.35046 -0.83728,-0.54735 -1.3398,-0.54735 h -4.25174 c -0.87033,0 -1.57586,-0.69587 -1.57586,-1.55426 v -3.62658 m 20.54341,-2.70989 v -9.24157 c 0,-3.55836 -5.25435,-1.78544 -6.10727,-0.94423 l -2.04802,2.01994 m -9.27196,5.69646 h -1.5403 c -0.87033,0 -1.57586,0.69587 -1.57586,1.55426 v 3.62658" /></g></g></g></svg>
