<?xml version="1.0" encoding="UTF-8" standalone="no"?>
<svg
   width="16"
   height="16"
   fill="currentColor"
   class="bi bi-info-circle"
   viewBox="0 0 16 16"
   version="1.1"
   id="svg2"
   sodipodi:docname="insi.svg"
   inkscape:version="1.4 (e7c3feb100, 2024-10-09)"
   xmlns:inkscape="http://www.inkscape.org/namespaces/inkscape"
   xmlns:sodipodi="http://sodipodi.sourceforge.net/DTD/sodipodi-0.dtd"
   xmlns="http://www.w3.org/2000/svg"
   xmlns:svg="http://www.w3.org/2000/svg">
  <defs
     id="defs2" />
  <sodipodi:namedview
     id="namedview2"
     pagecolor="#ffffff"
     bordercolor="#000000"
     borderopacity="0.25"
     inkscape:showpageshadow="2"
     inkscape:pageopacity="0.0"
     inkscape:pagecheckerboard="0"
     inkscape:deskcolor="#d1d1d1"
     inkscape:zoom="11.313708"
     inkscape:cx="-14.142136"
     inkscape:cy="7.2036503"
     inkscape:window-width="1920"
     inkscape:window-height="1052"
     inkscape:window-x="0"
     inkscape:window-y="0"
     inkscape:window-maximized="1"
     inkscape:current-layer="svg2" />
  <g
     id="g10"
     transform="translate(-39.312854,-17.279922)">
    <path
       id="path10"
       style="fill:none;stroke:#000000;stroke-width:0.760832"
       d="m 42.34375,21.9375 c -0.155105,0.0097 -0.191729,0.09228 -0.173828,0.248047 0.03843,0.422712 0.327322,0.988936 0.644531,1.513672 0.04822,0.07979 0.222139,0.39952 0.609375,0.908203 l 0.242188,0.316406 -0.296875,0.267578 c -0.504984,0.452202 -1.115344,1.062041 -1.933594,1.667969 0.296504,1.105813 0.896105,2.087174 1.705078,2.849609 3.48378,-0.235397 7.004404,-1.004723 9.195313,-2.710937 -0.155443,-0.150637 -0.251954,-0.360575 -0.251954,-0.595703 0,-0.02271 0.0021,-0.04613 0.0039,-0.06836 -0.616624,-0.136496 -1.305108,-0.35209 -1.746094,-0.726562 -0.8699,-0.738693 -1.182024,-1.718502 -1.572266,-2.072266 -0.07304,-0.19314 -0.143074,-0.345029 -0.21289,-0.484375 L 48.28125,23.03125 c -0.710629,-0.04881 -1.377366,0.04239 -2.015625,0.222656 l -0.162109,0.04492 -0.152344,-0.07617 c -1.581106,-0.807287 -2.279297,-0.980469 -2.279297,-0.980468 -0.275135,-0.09499 -0.539674,-0.175066 -0.777344,-0.228516 -0.131268,-0.02952 -0.249039,-0.04374 -0.353515,-0.06055 -0.08052,-0.01296 -0.145564,-0.01884 -0.197266,-0.01563 z" />
    <path
       style="fill:none;fill-rule:evenodd;stroke:#000000;stroke-width:0.865115;stroke-linecap:round;stroke-linejoin:round;stroke-miterlimit:10;stroke-dasharray:none"
       d="m 53.312633,26.401847 c 0,0.219745 -0.178136,0.397883 -0.397883,0.397882 -0.219743,0 -0.397879,-0.178137 -0.397879,-0.397882 0,-0.219745 0.178136,-0.397883 0.397883,-0.397882 0.219743,0 0.397879,0.178138 0.397879,0.397882 z"
       id="path11"
       inkscape:export-filename="limace.svg"
       inkscape:export-xdpi="96"
       inkscape:export-ydpi="96" />
    <path
       id="path9"
       style="fill:none;fill-rule:evenodd;stroke:#000000;stroke-width:0.865115;stroke-linecap:round;stroke-linejoin:round;stroke-miterlimit:10;stroke-dasharray:none"
       d="m 48.013344,25.148467 a 0.55913301,0.55913301 0 0 1 -0.559129,0.559134 0.55913301,0.55913301 0 0 1 -0.559141,-0.559134 0.55913301,0.55913301 0 0 1 0.559141,-0.559132 0.55913301,0.55913301 0 0 1 0.559129,0.559132 z" />
    <path
       d="m 47.312854,32.279922 a 7,7 0 1 1 0,-14 7,7 0 0 1 0,14 m 0,1 a 8,8 0 1 0 0,-16 8,8 0 0 0 0,16"
       id="path3" />
  </g>
</svg>
